%FSDAX25Y25*%
%MOIN*%
%SFA1B1*%

%IPPOS*%
%ADD10R,0.008660X0.027560*%
%ADD11R,0.027560X0.035430*%
%ADD12R,0.035430X0.027560*%
%ADD13R,0.036220X0.015750*%
%ADD14R,0.015750X0.015750*%
%ADD15R,0.033470X0.039370*%
%ADD16R,0.033470X0.039370*%
%ADD17R,0.015750X0.015750*%
%ADD18R,0.039370X0.027560*%
%ADD19R,0.043310X0.039370*%
%ADD20R,0.039370X0.043310*%
%ADD21R,0.039370X0.090550*%
%ADD22R,0.051180X0.059060*%
%ADD23R,0.023620X0.086610*%
%LNmoo1.1-1*%
%LPD*%
G54D10*
X0309075Y0365580D03*
X0307500D03*
X0305925D03*
Y0361821D03*
X0307500D03*
X0309075D03*
G54D11*
X0282000Y0338541D03*
Y0343659D03*
X0293500Y0368941D03*
Y0374059D03*
X0301800Y0350741D03*
X0296200Y0355859D03*
X0301800D03*
X0282000Y0369641D03*
Y0374759D03*
X0271100Y0372141D03*
Y0377259D03*
Y0362641D03*
Y0367759D03*
Y0343641D03*
Y0348759D03*
Y0353141D03*
Y0358259D03*
X0302400Y0389441D03*
Y0394559D03*
X0287200Y0389059D03*
Y0383941D03*
X0296200Y0350741D03*
G54D12*
X0324641Y0354600D03*
X0329759D03*
X0243559Y0343600D03*
X0238441D03*
X0338259Y0393600D03*
X0333141D03*
X0338259Y0399300D03*
X0333141D03*
X0287159Y0404200D03*
Y0399000D03*
X0281559Y0389500D03*
X0276441D03*
X0258559Y0378700D03*
X0253441D03*
X0258559Y0369800D03*
X0253441D03*
X0258559Y0361100D03*
X0253441D03*
X0258559Y0352200D03*
X0253441D03*
X0258559Y0343600D03*
X0253441D03*
X0282041Y0399000D03*
Y0404200D03*
X0333441Y0404500D03*
X0338559D03*
X0324741Y0349200D03*
X0329859D03*
X0265441Y0398700D03*
X0270559D03*
G54D13*
X0297240Y0344759D03*
X0289760D03*
Y0342200D03*
Y0339641D03*
X0297240D03*
X0307540Y0370241D03*
Y0372800D03*
X0300060Y0375359D03*
Y0370241D03*
X0307540Y0375359D03*
G54D14*
X0310068Y0349425D03*
Y0352575D03*
X0306132Y0351000D03*
X0307469Y0379725D03*
X0303532Y0381300D03*
X0307469Y0382875D03*
X0260488Y0389000D03*
X0266000D03*
G54D15*
X0242600Y0357524D03*
X0238860Y0348076D03*
G54D16*
X0246340Y0348076D03*
G54D17*
X0299225Y0361831D03*
X0275000Y0379112D03*
Y0373600D03*
X0271000Y0384000D03*
Y0389512D03*
X0300800Y0365769D03*
X0302375Y0361831D03*
G54D18*
X0258765Y0382000D03*
X0266835Y0384559D03*
Y0379441D03*
X0258765Y0373100D03*
X0266835Y0375659D03*
Y0370541D03*
X0258765Y0364200D03*
X0266835Y0366759D03*
Y0361641D03*
X0258765Y0355300D03*
X0266835Y0357859D03*
Y0352741D03*
X0258765Y0346400D03*
X0266835Y0348959D03*
Y0343841D03*
G54D19*
X0246354Y0357500D03*
X0253046D03*
G54D20*
X0244300Y0362291D03*
X0295700Y0395746D03*
Y0389054D03*
G54D21*
X0244300Y0371346D03*
G54D22*
X0270240Y0407500D03*
X0262760D03*
G54D23*
X0314950Y0385764D03*
X0319950D03*
X0324950D03*
X0329950D03*
X0314950Y0364586D03*
X0319950D03*
X0324950D03*
X0329950D03*
M02*