%FSDAX25Y25*%
%MOIN*%
%SFA1B1*%

%IPPOS*%
%ADD24C,0.008000*%
%ADD25C,0.010000*%
%ADD26C,0.012000*%
%ADD35C,0.039370*%
%ADD36R,0.039370X0.039370*%
%ADD37C,0.030000*%
%ADD40C,0.013000*%
%ADD41C,0.018000*%
%ADD42C,0.015000*%
%LNmoo1.1-1*%
%LPD*%
G54D24*
X0301400Y0345600D02*
X0313700Y0333300D01*
X0291700Y0352300D02*
X0314850Y0329150D01*
X0289650Y0351450D02*
X0310000Y0331100D01*
X0298800Y0334500D02*
X0303000D01*
X0287850Y0345450D02*
X0298800Y0334500D01*
X0303000D02*
X0304900Y0332600D01*
X0276700Y0331800D02*
X0279900Y0328600D01*
Y0339600D02*
X0290100Y0329400D01*
X0286300Y0361035D02*
Y0362200D01*
X0283500Y0358235D02*
X0286300Y0361035D01*
X0283500Y0340700D02*
Y0358235D01*
Y0340700D02*
X0295300Y0328900D01*
X0285800Y0357990D02*
X0288350Y0360540D01*
X0285800Y0343200D02*
Y0357990D01*
Y0343200D02*
X0299950Y0329050D01*
X0304900Y0328500D02*
Y0332600D01*
X0288350Y0363250D02*
X0288900Y0363800D01*
X0288350Y0360540D02*
Y0363250D01*
X0287850Y0345450D02*
Y0356995D01*
X0291300Y0360445*
X0289650Y0356249D02*
X0293201Y0359800D01*
X0289650Y0351450D02*
Y0356249D01*
X0310000Y0328500D02*
Y0331100D01*
X0291300Y0360445D02*
Y0361700D01*
X0324900Y0328500D02*
Y0335300D01*
X0323400Y0336800D02*
X0324900Y0335300D01*
X0318000Y0336800D02*
X0323400D01*
X0311400Y0343400D02*
X0318000Y0336800D01*
X0311400Y0343400D02*
Y0344600D01*
X0319900Y0328600D02*
Y0331900D01*
X0318500Y0333300D02*
X0319900Y0331900D01*
X0313700Y0333300D02*
X0318500D01*
X0301400Y0345600D02*
Y0346100D01*
X0291700Y0352300D02*
Y0355400D01*
X0293201Y0359800D02*
X0294800D01*
X0305300Y0344600D02*
X0311400D01*
X0303600Y0346300D02*
X0305300Y0344600D01*
X0276700Y0331800D02*
Y0354100D01*
X0284250Y0361531D02*
Y0363049D01*
X0279900Y0357181D02*
X0284250Y0361531D01*
X0282450Y0362277D02*
Y0364650D01*
X0279173Y0359000D02*
X0282450Y0362277D01*
X0284250Y0363049D02*
X0285400Y0364199D01*
X0282450Y0364650D02*
X0284300Y0366500D01*
X0272600Y0361800D02*
X0275400Y0359000D01*
X0272600Y0361800D02*
Y0375500D01*
X0273900Y0376800*
X0275400Y0359000D02*
X0279173D01*
X0284300Y0366500D02*
X0287800D01*
X0279900Y0339600D02*
Y0357181D01*
X0285400Y0364199D02*
Y0364300D01*
X0333351Y0365750D02*
X0335550D01*
X0335600Y0365700*
X0328401Y0370700D02*
X0333351Y0365750D01*
X0275900Y0370700D02*
X0328401D01*
X0333600Y0363200D02*
X0334200Y0363800D01*
X0332600Y0363200D02*
X0333600D01*
X0327100Y0368700D02*
X0332600Y0363200D01*
X0275900Y0368700D02*
X0327100D01*
X0255500Y0398000D02*
X0269300D01*
X0251000Y0393500D02*
X0255500Y0398000D01*
X0251000Y0389700D02*
Y0393500D01*
Y0389700D02*
X0267100Y0373600D01*
Y0363700D02*
Y0373600D01*
Y0363700D02*
X0276700Y0354100D01*
X0274800Y0379700D02*
X0278900Y0375600D01*
X0265100Y0379700D02*
X0274800D01*
X0277300Y0372800D02*
X0329200D01*
X0334200Y0367800*
X0277200Y0372900D02*
X0277300Y0372800D01*
X0285300Y0375600D02*
X0286000Y0374900D01*
X0283000Y0375600D02*
X0285300D01*
X0289900Y0379800D02*
X0290200Y0379500D01*
X0289900Y0379800D02*
Y0395400D01*
X0290000Y0403700D02*
Y0410500D01*
Y0403700D02*
X0294000Y0399700D01*
X0284900Y0404700D02*
Y0410500D01*
Y0404700D02*
X0291950Y0397650D01*
X0279900Y0405400D02*
Y0410500D01*
Y0405400D02*
X0289900Y0395400D01*
X0329900Y0404800D02*
Y0410500D01*
X0328500Y0403400D02*
X0329900Y0404800D01*
X0320400Y0403400D02*
X0328500D01*
X0315500Y0398500D02*
X0320400Y0403400D01*
X0294000Y0383500D02*
Y0399700D01*
X0291950Y0381450D02*
Y0397650D01*
Y0381450D02*
X0292000Y0381400D01*
X0292050Y0381450D02*
X0292100Y0381400D01*
X0278900Y0375600D02*
X0283000D01*
X0253500Y0391300D02*
X0265100Y0379700D01*
X0334100Y0363700D02*
X0334150Y0363650D01*
X0287800Y0366500D02*
X0288900Y0365400D01*
Y0363800D02*
Y0365400D01*
G54D25*
X0250600Y0374900D02*
Y0386200D01*
Y0374900D02*
X0271700Y0353800D01*
Y0336400D02*
Y0353800D01*
G54D26*
X0275700Y0403000D02*
X0282200Y0396500D01*
X0256100Y0403000D02*
X0275700D01*
X0248300Y0395200D02*
X0256100Y0403000D01*
X0248300Y0367600D02*
X0262700Y0353200D01*
X0248300Y0367600D02*
Y0395200D01*
X0282100Y0386500D02*
Y0396200D01*
X0317848Y0344849D02*
X0317851D01*
X0317800Y0344801D02*
X0317848Y0344849D01*
X0317800Y0344800D02*
Y0344801D01*
X0329700Y0349200D02*
X0333200D01*
X0324850Y0344350D02*
X0329700Y0349200D01*
X0318350Y0344350D02*
X0324850D01*
X0317851Y0344849D02*
X0318350Y0344350D01*
X0286700Y0377400D02*
Y0390900D01*
Y0377400D02*
X0288100Y0376000D01*
X0335200*
X0339100Y0372100*
X0334900Y0333100D02*
X0339100Y0337300D01*
X0334900Y0328500D02*
Y0333100D01*
X0339100Y0337300D02*
Y0372100D01*
G54D35*
X0279900Y0328600D03*
X0289900D03*
X0294900D03*
X0299900D03*
X0304900D03*
X0309900D03*
X0314900D03*
X0319900D03*
X0324900D03*
X0334900D03*
X0284900Y0410500D03*
X0289900D03*
X0329900D03*
G54D36*
X0279900Y0410500D03*
G54D37*
X0333200Y0349200D03*
G54D40*
X0303600Y0346300D03*
X0301400Y0346100D03*
X0311400Y0344600D03*
X0294800Y0359800D03*
X0286300Y0362200D03*
X0291700Y0355400D03*
X0285400Y0364300D03*
X0288900Y0363800D03*
X0291300Y0361700D03*
X0275900Y0368600D03*
X0277200Y0372800D03*
X0273900Y0376800D03*
X0335700Y0365700D03*
X0286000Y0374900D03*
X0290200Y0379500D03*
X0315500Y0398500D03*
X0269300Y0398000D03*
X0286700Y0390900D03*
X0334100Y0363700D03*
X0275800Y0370800D03*
X0292000Y0381400D03*
X0294000Y0383500D03*
X0334200Y0367800D03*
G54D41*
X0317800Y0344800D03*
G54D42*
X0282100Y0396600D03*
X0271700Y0336400D03*
X0262700Y0353200D03*
X0250700Y0386200D03*
X0253500Y0391300D03*
X0282100Y0386500D03*
M02*