%FSDAX25Y25*%
%MOIN*%
%SFA1B1*%

%IPPOS*%
%ADD25C,0.010000*%
%ADD59C,0.003940*%
%ADD60C,0.009840*%
%ADD61C,0.007870*%
%ADD62C,0.003000*%
%ADD63C,0.005000*%
%LNmoo1.1-1*%
%LPD*%
G54D25*
X0285257Y0403900D02*
D01*
X0285256Y0403924*
X0285253Y0403949*
X0285249Y0403973*
X0285243Y0403997*
X0285235Y0404020*
X0285226Y0404043*
X0285215Y0404065*
X0285203Y0404087*
X0285189Y0404107*
X0285174Y0404126*
X0285157Y0404145*
X0285140Y0404162*
X0285121Y0404178*
X0285101Y0404192*
X0285080Y0404205*
X0285058Y0404217*
X0285036Y0404227*
X0285013Y0404235*
X0284989Y0404242*
X0284965Y0404247*
X0284940Y0404251*
X0284916Y0404252*
X0284891*
X0284867Y0404251*
X0284842Y0404247*
X0284818Y0404242*
X0284794Y0404235*
X0284771Y0404227*
X0284749Y0404217*
X0284727Y0404205*
X0284706Y0404192*
X0284686Y0404178*
X0284667Y0404162*
X0284650Y0404145*
X0284633Y0404126*
X0284618Y0404107*
X0284604Y0404087*
X0284592Y0404065*
X0284581Y0404043*
X0284572Y0404020*
X0284564Y0403997*
X0284558Y0403973*
X0284554Y0403949*
X0284551Y0403924*
X0284551Y0403900*
X0284551Y0403875*
X0284554Y0403850*
X0284558Y0403826*
X0284564Y0403802*
X0284572Y0403779*
X0284581Y0403756*
X0284592Y0403734*
X0284604Y0403712*
X0284618Y0403692*
X0284633Y0403673*
X0284650Y0403654*
X0284667Y0403637*
X0284686Y0403621*
X0284706Y0403607*
X0284727Y0403594*
X0284749Y0403582*
X0284771Y0403572*
X0284794Y0403564*
X0284818Y0403557*
X0284842Y0403552*
X0284867Y0403548*
X0284891Y0403547*
X0284916*
X0284940Y0403548*
X0284965Y0403552*
X0284989Y0403557*
X0285013Y0403564*
X0285036Y0403572*
X0285058Y0403582*
X0285080Y0403594*
X0285101Y0403607*
X0285121Y0403621*
X0285140Y0403637*
X0285157Y0403654*
X0285174Y0403673*
X0285189Y0403692*
X0285203Y0403712*
X0285215Y0403734*
X0285226Y0403756*
X0285235Y0403779*
X0285243Y0403802*
X0285249Y0403826*
X0285253Y0403850*
X0285256Y0403875*
X0285257Y0403900*
X0242631Y0371769D02*
D01*
X0242630Y0371771*
X0242630Y0371773*
X0242630Y0371775*
X0242629Y0371777*
X0242629Y0371779*
X0242628Y0371781*
X0242627Y0371783*
X0242626Y0371785*
X0242625Y0371787*
X0242623Y0371788*
X0242622Y0371790*
X0242620Y0371792*
X0242619Y0371793*
X0242617Y0371794*
X0242615Y0371795*
X0242613Y0371796*
X0242611Y0371797*
X0242609Y0371798*
X0242607Y0371799*
X0242605Y0371799*
X0242603Y0371799*
X0242601Y0371799*
X0242598*
X0242596Y0371799*
X0242594Y0371799*
X0242592Y0371799*
X0242590Y0371798*
X0242588Y0371797*
X0242586Y0371796*
X0242584Y0371795*
X0242582Y0371794*
X0242580Y0371793*
X0242579Y0371792*
X0242577Y0371790*
X0242576Y0371788*
X0242574Y0371787*
X0242573Y0371785*
X0242572Y0371783*
X0242571Y0371781*
X0242570Y0371779*
X0242570Y0371777*
X0242569Y0371775*
X0242569Y0371773*
X0242569Y0371771*
Y0371769*
Y0371766*
X0242569Y0371764*
X0242569Y0371762*
X0242570Y0371760*
X0242570Y0371758*
X0242571Y0371756*
X0242572Y0371754*
X0242573Y0371752*
X0242574Y0371750*
X0242576Y0371749*
X0242577Y0371747*
X0242579Y0371745*
X0242580Y0371744*
X0242582Y0371743*
X0242584Y0371742*
X0242586Y0371741*
X0242588Y0371740*
X0242590Y0371739*
X0242592Y0371738*
X0242594Y0371738*
X0242596Y0371738*
X0242598Y0371738*
X0242601*
X0242603Y0371738*
X0242605Y0371738*
X0242607Y0371738*
X0242609Y0371739*
X0242611Y0371740*
X0242613Y0371741*
X0242615Y0371742*
X0242617Y0371743*
X0242619Y0371744*
X0242620Y0371745*
X0242622Y0371747*
X0242623Y0371749*
X0242625Y0371750*
X0242626Y0371752*
X0242627Y0371754*
X0242628Y0371756*
X0242629Y0371758*
X0242629Y0371760*
X0242630Y0371762*
X0242630Y0371764*
X0242630Y0371766*
X0242631Y0371769*
X0273711Y0345000D02*
D01*
X0273710Y0345002*
X0273710Y0345004*
X0273710Y0345006*
X0273709Y0345008*
X0273709Y0345010*
X0273708Y0345012*
X0273707Y0345014*
X0273706Y0345016*
X0273705Y0345018*
X0273703Y0345019*
X0273702Y0345021*
X0273700Y0345023*
X0273699Y0345024*
X0273697Y0345025*
X0273695Y0345026*
X0273693Y0345027*
X0273691Y0345028*
X0273689Y0345029*
X0273687Y0345030*
X0273685Y0345030*
X0273683Y0345030*
X0273681Y0345030*
X0273678*
X0273676Y0345030*
X0273674Y0345030*
X0273672Y0345030*
X0273670Y0345029*
X0273668Y0345028*
X0273666Y0345027*
X0273664Y0345026*
X0273662Y0345025*
X0273660Y0345024*
X0273659Y0345023*
X0273657Y0345021*
X0273656Y0345019*
X0273654Y0345018*
X0273653Y0345016*
X0273652Y0345014*
X0273651Y0345012*
X0273650Y0345010*
X0273650Y0345008*
X0273649Y0345006*
X0273649Y0345004*
X0273649Y0345002*
Y0345000*
Y0344997*
X0273649Y0344995*
X0273649Y0344993*
X0273650Y0344991*
X0273650Y0344989*
X0273651Y0344987*
X0273652Y0344985*
X0273653Y0344983*
X0273654Y0344981*
X0273656Y0344980*
X0273657Y0344978*
X0273659Y0344976*
X0273660Y0344975*
X0273662Y0344974*
X0273664Y0344973*
X0273666Y0344972*
X0273668Y0344971*
X0273670Y0344970*
X0273672Y0344969*
X0273674Y0344969*
X0273676Y0344969*
X0273678Y0344969*
X0273681*
X0273683Y0344969*
X0273685Y0344969*
X0273687Y0344969*
X0273689Y0344970*
X0273691Y0344971*
X0273693Y0344972*
X0273695Y0344973*
X0273697Y0344974*
X0273699Y0344975*
X0273700Y0344976*
X0273702Y0344978*
X0273703Y0344980*
X0273705Y0344981*
X0273706Y0344983*
X0273707Y0344985*
X0273708Y0344987*
X0273709Y0344989*
X0273709Y0344991*
X0273710Y0344993*
X0273710Y0344995*
X0273710Y0344997*
X0273711Y0345000*
X0311400Y0336100D02*
X0317400D01*
X0311400Y0342100D02*
X0317400D01*
G54D59*
X0282297Y0379097D02*
D01*
X0282296Y0379110*
X0282295Y0379124*
X0282292Y0379137*
X0282289Y0379151*
X0282285Y0379164*
X0282279Y0379177*
X0282273Y0379189*
X0282267Y0379201*
X0282259Y0379212*
X0282250Y0379223*
X0282241Y0379233*
X0282231Y0379243*
X0282221Y0379252*
X0282210Y0379260*
X0282198Y0379267*
X0282186Y0379274*
X0282173Y0379279*
X0282160Y0379284*
X0282147Y0379288*
X0282134Y0379291*
X0282120Y0379292*
X0282106Y0379293*
X0282093*
X0282079Y0379292*
X0282065Y0379291*
X0282052Y0379288*
X0282039Y0379284*
X0282026Y0379279*
X0282013Y0379274*
X0282001Y0379267*
X0281989Y0379260*
X0281978Y0379252*
X0281968Y0379243*
X0281958Y0379233*
X0281949Y0379223*
X0281940Y0379212*
X0281932Y0379201*
X0281926Y0379189*
X0281920Y0379177*
X0281914Y0379164*
X0281910Y0379151*
X0281907Y0379137*
X0281904Y0379124*
X0281903Y0379110*
X0281903Y0379097*
X0281903Y0379083*
X0281904Y0379069*
X0281907Y0379056*
X0281910Y0379042*
X0281914Y0379029*
X0281920Y0379016*
X0281926Y0379004*
X0281932Y0378992*
X0281940Y0378981*
X0281949Y0378970*
X0281958Y0378960*
X0281968Y0378950*
X0281978Y0378941*
X0281989Y0378933*
X0282001Y0378926*
X0282013Y0378919*
X0282026Y0378914*
X0282039Y0378909*
X0282052Y0378905*
X0282065Y0378902*
X0282079Y0378901*
X0282093Y0378900*
X0282106*
X0282120Y0378901*
X0282134Y0378902*
X0282147Y0378905*
X0282160Y0378909*
X0282173Y0378914*
X0282186Y0378919*
X0282198Y0378926*
X0282210Y0378933*
X0282221Y0378941*
X0282231Y0378950*
X0282241Y0378960*
X0282250Y0378970*
X0282259Y0378981*
X0282267Y0378992*
X0282273Y0379004*
X0282279Y0379016*
X0282285Y0379029*
X0282289Y0379042*
X0282292Y0379056*
X0282295Y0379069*
X0282296Y0379083*
X0282297Y0379097*
X0260169Y0355972D02*
D01*
X0260168Y0355999*
X0260165Y0356026*
X0260160Y0356053*
X0260153Y0356080*
X0260145Y0356106*
X0260134Y0356132*
X0260122Y0356156*
X0260109Y0356180*
X0260093Y0356203*
X0260076Y0356225*
X0260058Y0356245*
X0260038Y0356264*
X0260017Y0356282*
X0259995Y0356298*
X0259972Y0356313*
X0259947Y0356326*
X0259922Y0356337*
X0259896Y0356346*
X0259870Y0356354*
X0259843Y0356360*
X0259816Y0356363*
X0259788Y0356365*
X0259761*
X0259733Y0356363*
X0259706Y0356360*
X0259679Y0356354*
X0259653Y0356346*
X0259627Y0356337*
X0259602Y0356326*
X0259578Y0356313*
X0259554Y0356298*
X0259532Y0356282*
X0259511Y0356264*
X0259491Y0356245*
X0259473Y0356225*
X0259456Y0356203*
X0259440Y0356180*
X0259427Y0356156*
X0259415Y0356132*
X0259404Y0356106*
X0259396Y0356080*
X0259389Y0356053*
X0259384Y0356026*
X0259381Y0355999*
X0259381Y0355972*
X0259381Y0355944*
X0259384Y0355917*
X0259389Y0355890*
X0259396Y0355863*
X0259404Y0355837*
X0259415Y0355811*
X0259427Y0355787*
X0259440Y0355763*
X0259456Y0355740*
X0259473Y0355718*
X0259491Y0355698*
X0259511Y0355679*
X0259532Y0355661*
X0259554Y0355645*
X0259578Y0355630*
X0259602Y0355617*
X0259627Y0355606*
X0259653Y0355597*
X0259679Y0355589*
X0259706Y0355583*
X0259733Y0355580*
X0259761Y0355578*
X0259788*
X0259816Y0355580*
X0259843Y0355583*
X0259870Y0355589*
X0259896Y0355597*
X0259922Y0355606*
X0259947Y0355617*
X0259972Y0355630*
X0259995Y0355645*
X0260017Y0355661*
X0260038Y0355679*
X0260058Y0355698*
X0260076Y0355718*
X0260093Y0355740*
X0260109Y0355763*
X0260122Y0355787*
X0260134Y0355811*
X0260145Y0355837*
X0260153Y0355863*
X0260160Y0355890*
X0260165Y0355917*
X0260168Y0355944*
X0260169Y0355972*
X0277432Y0378662D02*
X0281368D01*
X0277432Y0373938D02*
X0281368D01*
G54D60*
X0332592Y0347808D02*
D01*
X0332590Y0347842*
X0332587Y0347876*
X0332581Y0347910*
X0332572Y0347943*
X0332562Y0347976*
X0332549Y0348008*
X0332534Y0348038*
X0332517Y0348068*
X0332498Y0348097*
X0332476Y0348124*
X0332453Y0348149*
X0332429Y0348173*
X0332402Y0348195*
X0332375Y0348215*
X0332346Y0348234*
X0332315Y0348250*
X0332284Y0348264*
X0332252Y0348275*
X0332219Y0348285*
X0332185Y0348292*
X0332151Y0348297*
X0332117Y0348299*
X0332082*
X0332048Y0348297*
X0332014Y0348292*
X0331980Y0348285*
X0331947Y0348275*
X0331915Y0348264*
X0331884Y0348250*
X0331854Y0348234*
X0331824Y0348215*
X0331797Y0348195*
X0331770Y0348173*
X0331746Y0348149*
X0331723Y0348124*
X0331701Y0348097*
X0331682Y0348068*
X0331665Y0348038*
X0331650Y0348008*
X0331637Y0347976*
X0331627Y0347943*
X0331618Y0347910*
X0331612Y0347876*
X0331609Y0347842*
X0331608Y0347808*
X0331609Y0347773*
X0331612Y0347739*
X0331618Y0347705*
X0331627Y0347672*
X0331637Y0347639*
X0331650Y0347607*
X0331665Y0347577*
X0331682Y0347547*
X0331701Y0347518*
X0331723Y0347491*
X0331746Y0347466*
X0331770Y0347442*
X0331797Y0347420*
X0331824Y0347400*
X0331854Y0347381*
X0331884Y0347365*
X0331915Y0347351*
X0331947Y0347340*
X0331980Y0347330*
X0332014Y0347323*
X0332048Y0347318*
X0332082Y0347316*
X0332117*
X0332151Y0347318*
X0332185Y0347323*
X0332219Y0347330*
X0332252Y0347340*
X0332284Y0347351*
X0332315Y0347365*
X0332346Y0347381*
X0332375Y0347400*
X0332402Y0347420*
X0332429Y0347442*
X0332453Y0347466*
X0332476Y0347491*
X0332498Y0347518*
X0332517Y0347547*
X0332534Y0347577*
X0332549Y0347607*
X0332562Y0347639*
X0332572Y0347672*
X0332581Y0347705*
X0332587Y0347739*
X0332590Y0347773*
X0332592Y0347808*
X0251937Y0397654D02*
D01*
X0251935Y0397688*
X0251932Y0397722*
X0251926Y0397756*
X0251917Y0397789*
X0251907Y0397822*
X0251894Y0397854*
X0251879Y0397884*
X0251862Y0397914*
X0251843Y0397943*
X0251821Y0397970*
X0251798Y0397995*
X0251774Y0398019*
X0251747Y0398041*
X0251720Y0398061*
X0251691Y0398080*
X0251660Y0398096*
X0251629Y0398110*
X0251597Y0398121*
X0251564Y0398131*
X0251530Y0398138*
X0251496Y0398143*
X0251462Y0398145*
X0251427*
X0251393Y0398143*
X0251359Y0398138*
X0251325Y0398131*
X0251292Y0398121*
X0251260Y0398110*
X0251229Y0398096*
X0251199Y0398080*
X0251169Y0398061*
X0251142Y0398041*
X0251115Y0398019*
X0251091Y0397995*
X0251068Y0397970*
X0251046Y0397943*
X0251027Y0397914*
X0251010Y0397884*
X0250995Y0397854*
X0250982Y0397822*
X0250972Y0397789*
X0250963Y0397756*
X0250957Y0397722*
X0250954Y0397688*
X0250953Y0397654*
X0250954Y0397619*
X0250957Y0397585*
X0250963Y0397551*
X0250972Y0397518*
X0250982Y0397485*
X0250995Y0397453*
X0251010Y0397423*
X0251027Y0397393*
X0251046Y0397364*
X0251068Y0397337*
X0251091Y0397312*
X0251115Y0397288*
X0251142Y0397266*
X0251169Y0397246*
X0251199Y0397227*
X0251229Y0397211*
X0251260Y0397197*
X0251292Y0397186*
X0251325Y0397176*
X0251359Y0397169*
X0251393Y0397164*
X0251427Y0397162*
X0251462*
X0251496Y0397164*
X0251530Y0397169*
X0251564Y0397176*
X0251597Y0397186*
X0251629Y0397197*
X0251660Y0397211*
X0251691Y0397227*
X0251720Y0397246*
X0251747Y0397266*
X0251774Y0397288*
X0251798Y0397312*
X0251821Y0397337*
X0251843Y0397364*
X0251862Y0397393*
X0251879Y0397423*
X0251894Y0397453*
X0251907Y0397485*
X0251917Y0397518*
X0251926Y0397551*
X0251932Y0397585*
X0251935Y0397619*
X0251937Y0397654*
G54D61*
X0280953Y0402879D02*
D01*
X0280954Y0402834*
X0280959Y0402789*
X0280966Y0402745*
X0280977Y0402702*
X0280991Y0402660*
X0281008Y0402618*
X0281027Y0402578*
X0281050Y0402539*
X0281075Y0402502*
X0281102Y0402467*
X0281132Y0402434*
X0281164Y0402403*
X0281198Y0402374*
X0281235Y0402348*
X0281273Y0402324*
X0281312Y0402303*
X0281353Y0402285*
X0281395Y0402270*
X0281438Y0402258*
X0281481Y0402248*
X0281526Y0402242*
X0281570Y0402239*
X0281615*
X0281659Y0402242*
X0281704Y0402248*
X0281747Y0402258*
X0281790Y0402270*
X0281832Y0402285*
X0281873Y0402303*
X0281913Y0402324*
X0281950Y0402348*
X0281987Y0402374*
X0282021Y0402403*
X0282053Y0402434*
X0282083Y0402467*
X0282110Y0402502*
X0282135Y0402539*
X0282158Y0402578*
X0282177Y0402618*
X0282194Y0402660*
X0282208Y0402702*
X0282219Y0402745*
X0282226Y0402789*
X0282231Y0402834*
X0282233Y0402879*
X0348443Y0332057D02*
Y0354143D01*
X0341357D02*
X0348443D01*
X0341357Y0332057D02*
Y0354143D01*
Y0332057D02*
X0348443D01*
X0280589Y0397761D02*
Y0402879D01*
Y0397761D02*
X0282597D01*
Y0402879*
X0280953D02*
X0282597D01*
X0280589D02*
X0282233D01*
X0336600Y0388441D02*
Y0394700D01*
X0330300Y0395000D02*
X0336400D01*
X0330300D02*
X0336400D01*
X0292300D02*
X0298559D01*
X0292000Y0388641D02*
Y0395000D01*
X0292300D02*
X0298559D01*
X0292200Y0350300D02*
X0298400D01*
X0292200Y0350200D02*
Y0356564D01*
X0330900Y0350200D02*
X0336800Y0356400D01*
X0245900Y0370288D02*
X0249837D01*
X0245900Y0363201D02*
Y0370288D01*
X0249837Y0363201D02*
Y0370288D01*
X0245900Y0363201D02*
X0249837D01*
X0262925Y0356957D02*
X0266075D01*
Y0364043*
X0262925Y0356957D02*
Y0364043D01*
X0266075*
X0265507Y0347525D02*
Y0350675D01*
X0265506Y0347525D02*
X0272593D01*
X0265507Y0350675D02*
X0272593D01*
Y0347525D02*
Y0350675D01*
X0267374Y0396374D02*
X0268374D01*
Y0395374D02*
Y0396374D01*
X0267374Y0380626D02*
X0268374D01*
Y0381626*
X0252626Y0395350D02*
Y0396374D01*
X0253650*
X0252626Y0380626D02*
Y0381650D01*
X0252602Y0380626D02*
X0253626D01*
G54D62*
X0250650Y0375600D02*
Y0379400D01*
X0260350Y0375600D02*
Y0379400D01*
X0250650Y0375600D02*
X0260350D01*
X0250650Y0379400D02*
X0260350D01*
X0259250Y0368700D02*
X0268950D01*
X0259250Y0364900D02*
X0268950D01*
Y0368700*
X0259250Y0364900D02*
Y0368700D01*
X0251500Y0344650D02*
Y0354350D01*
X0255300Y0344650D02*
Y0354350D01*
X0251500D02*
X0255300D01*
X0251500Y0344650D02*
X0255300D01*
X0257100D02*
X0260900D01*
X0257100Y0354350D02*
X0260900D01*
Y0344650D02*
Y0354350D01*
X0257100Y0344650D02*
Y0354350D01*
X0261150Y0375600D02*
X0270850D01*
X0261150Y0379400D02*
X0270850D01*
X0261150Y0375600D02*
Y0379400D01*
X0270850Y0375600D02*
Y0379400D01*
X0270100Y0391850D02*
X0273900D01*
X0270100Y0382150D02*
X0273900D01*
X0270100D02*
Y0391850D01*
X0273900Y0382150D02*
Y0391850D01*
X0247500Y0397250D02*
X0251300D01*
X0247500Y0387550D02*
X0251300D01*
X0247500D02*
Y0397250D01*
X0251300Y0387550D02*
Y0397250D01*
X0247033Y0366433D02*
X0248366D01*
X0248699Y0366100*
Y0365433*
X0248366Y0365100*
X0247033*
X0246700Y0365433*
Y0366100*
X0247366Y0365766D02*
X0246700Y0366433D01*
Y0366100D02*
X0247033Y0366433D01*
X0246700Y0368099D02*
X0248699D01*
X0247700Y0367099*
Y0368432*
X0316100Y0368200D02*
X0318099D01*
X0317433Y0368866*
X0318099Y0369533*
X0316100*
X0317766Y0371532D02*
X0318099Y0371199D01*
Y0370533*
X0317766Y0370199*
X0316433*
X0316100Y0370533*
Y0371199*
X0316433Y0371532*
X0318099Y0372199D02*
X0316433D01*
X0316100Y0372532*
Y0373198*
X0316433Y0373532*
X0318099*
X0316100Y0374198D02*
Y0374865D01*
Y0374531*
X0318099*
X0317766Y0374198*
X0313000Y0337801D02*
Y0338134D01*
X0313666Y0338800*
X0314333Y0338134*
Y0337801*
X0313666Y0338800D02*
Y0339800D01*
X0314999D02*
X0315666D01*
X0315333*
Y0337801*
X0314999Y0338134*
X0258533Y0342234D02*
X0258200Y0341901D01*
X0257533*
X0257200Y0342234*
Y0343567*
X0257533Y0343900*
X0258200*
X0258533Y0343567*
X0259199Y0343900D02*
X0259866D01*
X0259533*
Y0341901*
X0259199Y0342234*
X0261865Y0343900D02*
Y0341901D01*
X0260865Y0342900*
X0262198*
X0270099Y0351600D02*
X0268433D01*
X0268100Y0351933*
Y0352600*
X0268433Y0352933*
X0270099*
X0269766Y0353599D02*
X0270099Y0353933D01*
Y0354599*
X0269766Y0354932*
X0269433*
X0269100Y0354599*
Y0354266*
Y0354599*
X0268766Y0354932*
X0268433*
X0268100Y0354599*
Y0353933*
X0268433Y0353599*
X0282320Y0381574D02*
Y0379908D01*
X0281987Y0379575*
X0281321*
X0280988Y0379908*
Y0381574*
X0279321Y0379575D02*
Y0381574D01*
X0280321Y0380574*
X0278988*
X0272566Y0394433D02*
X0272899Y0394100D01*
Y0393433*
X0272566Y0393100*
X0271233*
X0270900Y0393433*
Y0394100*
X0271233Y0394433*
X0270900Y0396099D02*
X0272899D01*
X0271900Y0395099*
Y0396432*
X0268567Y0374866D02*
X0268900Y0375199D01*
X0269567*
X0269900Y0374866*
Y0373533*
X0269567Y0373200*
X0268900*
X0268567Y0373533*
X0266568Y0375199D02*
X0267901D01*
Y0374200*
X0267234Y0374533*
X0266901*
X0266568Y0374200*
Y0373533*
X0266901Y0373200*
X0267567*
X0267901Y0373533*
X0258067Y0374466D02*
X0258400Y0374799D01*
X0259067*
X0259400Y0374466*
Y0373133*
X0259067Y0372800*
X0258400*
X0258067Y0373133*
X0256068Y0374799D02*
X0256734Y0374466D01*
X0257401Y0373800*
Y0373133*
X0257067Y0372800*
X0256401*
X0256068Y0373133*
Y0373466*
X0256401Y0373800*
X0257401*
X0249366Y0385033D02*
X0249699Y0384700D01*
Y0384033*
X0249366Y0383700*
X0248033*
X0247700Y0384033*
Y0384700*
X0248033Y0385033*
Y0385699D02*
X0247700Y0386033D01*
Y0386699*
X0248033Y0387032*
X0249366*
X0249699Y0386699*
Y0386033*
X0249366Y0385699*
X0249033*
X0248700Y0386033*
Y0387032*
X0251633Y0342134D02*
X0251300Y0341801D01*
X0250633*
X0250300Y0342134*
Y0343467*
X0250633Y0343800*
X0251300*
X0251633Y0343467*
X0252299Y0343800D02*
X0252966D01*
X0252633*
Y0341801*
X0252299Y0342134*
X0255298Y0343800D02*
X0253965D01*
X0255298Y0342467*
Y0342134*
X0254965Y0341801*
X0254299*
X0253965Y0342134*
X0266867Y0371066D02*
X0267200Y0371399D01*
X0267867*
X0268200Y0371066*
Y0369733*
X0267867Y0369400*
X0267200*
X0266867Y0369733*
X0266201Y0369400D02*
X0265534D01*
X0265867*
Y0371399*
X0266201Y0371066*
X0264534D02*
X0264201Y0371399D01*
X0263535*
X0263202Y0371066*
Y0370733*
X0263535Y0370400*
X0263868*
X0263535*
X0263202Y0370066*
Y0369733*
X0263535Y0369400*
X0264201*
X0264534Y0369733*
X0272699Y0357900D02*
Y0359233D01*
Y0358566*
X0270700*
Y0359899D02*
X0272699D01*
X0272033Y0360566*
X0272699Y0361232*
X0270700*
Y0361899D02*
X0272699D01*
Y0362898*
X0272366Y0363232*
X0271700*
X0271366Y0362898*
Y0361899*
X0267700Y0395599D02*
X0266367Y0393600D01*
Y0395599D02*
X0267700Y0393600D01*
X0265701Y0395599D02*
Y0393600D01*
X0264368*
X0288899Y0398800D02*
X0287233D01*
X0286900Y0399133*
Y0399800*
X0287233Y0400133*
X0288899*
Y0402132D02*
Y0400799D01*
X0287900*
X0288233Y0401466*
Y0401799*
X0287900Y0402132*
X0287233*
X0286900Y0401799*
Y0401133*
X0287233Y0400799*
X0240800Y0406700D02*
X0238801D01*
X0239467Y0406034*
X0238801Y0405367*
X0240800*
X0239467Y0404367D02*
Y0403701D01*
X0239800Y0403368*
X0240800*
Y0404367*
X0240467Y0404701*
X0240134Y0404367*
Y0403368*
X0240800Y0402701D02*
Y0401702D01*
X0240467Y0401368*
X0240134Y0401702*
Y0402368*
X0239800Y0402701*
X0239467Y0402368*
Y0401368*
X0240800Y0400702D02*
Y0399702D01*
X0240467Y0399369*
X0240134Y0399702*
Y0400369*
X0239800Y0400702*
X0239467Y0400369*
Y0399369*
Y0398369D02*
Y0397703D01*
X0239800Y0397370*
X0240800*
Y0398369*
X0240467Y0398703*
X0240134Y0398369*
Y0397370*
X0239467Y0395370D02*
Y0396370D01*
X0239800Y0396703*
X0240467*
X0240800Y0396370*
Y0395370*
X0238801Y0394704D02*
X0240800D01*
X0239800*
X0239467Y0394371*
Y0393704*
X0239800Y0393371*
X0240800*
X0239467Y0392705D02*
X0240467D01*
X0240800Y0392371*
Y0391372*
X0239467*
X0240800Y0390705D02*
Y0389705D01*
X0240467Y0389372*
X0240134Y0389705*
Y0390372*
X0239800Y0390705*
X0239467Y0390372*
Y0389372*
X0240800Y0387706D02*
Y0388373D01*
X0240467Y0388706*
X0239800*
X0239467Y0388373*
Y0387706*
X0239800Y0387373*
X0240134*
Y0388706*
X0239134Y0386373D02*
X0239467D01*
Y0386706*
Y0386040*
Y0386373*
X0240467*
X0240800Y0386040*
X0239134Y0384707D02*
X0239467D01*
Y0385040*
Y0384374*
Y0384707*
X0240467*
X0240800Y0384374*
Y0383374D02*
Y0382375D01*
X0240467Y0382041*
X0240134Y0382375*
Y0383041*
X0239800Y0383374*
X0239467Y0383041*
Y0382041*
X0235401Y0406700D02*
X0237067D01*
X0237400Y0406367*
Y0405700*
X0237067Y0405367*
X0235401*
X0237400Y0404701D02*
X0236067D01*
Y0403701*
X0236400Y0403368*
X0237400*
Y0402701D02*
Y0402035D01*
Y0402368*
X0236067*
Y0402701*
Y0401035D02*
X0237400Y0400369D01*
X0236067Y0399702*
X0237400Y0398036D02*
Y0398703D01*
X0237067Y0399036*
X0236400*
X0236067Y0398703*
Y0398036*
X0236400Y0397703*
X0236734*
Y0399036*
X0236067Y0397037D02*
X0237400D01*
X0236734*
X0236400Y0396703*
X0236067Y0396370*
Y0396037*
X0237400Y0395037D02*
Y0394037D01*
X0237067Y0393704*
X0236734Y0394037*
Y0394704*
X0236400Y0395037*
X0236067Y0394704*
Y0393704*
X0237400Y0393038D02*
Y0392371D01*
Y0392705*
X0236067*
Y0393038*
X0235734Y0391038D02*
X0236067D01*
Y0391372*
Y0390705*
Y0391038*
X0237067*
X0237400Y0390705*
X0236067Y0389705D02*
X0237067D01*
X0237400Y0389372*
Y0388373*
X0237733*
X0238066Y0388706*
Y0389039*
X0237400Y0388373D02*
X0236067D01*
X0235401Y0384707D02*
Y0385374D01*
X0235734Y0385707*
X0237067*
X0237400Y0385374*
Y0384707*
X0237067Y0384374*
X0235734*
X0235401Y0384707*
X0237400Y0383374D02*
X0235734D01*
X0236400*
Y0383707*
Y0383041*
Y0383374*
X0235734*
X0235401Y0383041*
X0244500Y0406700D02*
X0243167D01*
X0242501Y0406034*
X0243167Y0405367*
X0244500*
X0243500*
Y0406700*
X0244500Y0404701D02*
X0243167D01*
Y0404367*
X0243500Y0404034*
X0244500*
X0243500*
X0243167Y0403701*
X0243500Y0403368*
X0244500*
X0242501Y0402701D02*
X0244500D01*
X0243500*
X0243167Y0402368*
Y0401702*
X0243500Y0401368*
X0244500*
Y0399702D02*
Y0400369D01*
X0244167Y0400702*
X0243500*
X0243167Y0400369*
Y0399702*
X0243500Y0399369*
X0243834*
Y0400702*
X0243167Y0398703D02*
X0244500D01*
X0243834*
X0243500Y0398369*
X0243167Y0398036*
Y0397703*
X0244500Y0396703D02*
Y0395704D01*
X0244167Y0395370*
X0243834Y0395704*
Y0396370*
X0243500Y0396703*
X0243167Y0396370*
Y0395370*
X0242834Y0394371D02*
X0243167D01*
Y0394704*
Y0394037*
Y0394371*
X0244167*
X0244500Y0394037*
G54D63*
X0246500Y0327100D02*
Y0411400D01*
X0274000Y0326600D02*
Y0411500D01*
X0236784Y0351567D02*
X0236201Y0352151D01*
Y0353317*
X0236784Y0353900*
X0237367*
X0237951Y0353317*
Y0352151*
X0238534Y0351567*
X0239117*
X0239700Y0352151*
Y0353317*
X0239117Y0353900*
X0239700Y0350401D02*
X0236201D01*
Y0348652*
X0236784Y0348069*
X0237951*
X0238534Y0348652*
Y0350401*
X0239117Y0344570D02*
X0236784D01*
X0236201Y0345153*
Y0346319*
X0236784Y0346902*
X0239117*
X0239700Y0346319*
Y0345153*
X0238534Y0345736D02*
X0239700Y0344570D01*
Y0345153D02*
X0239117Y0344570D01*
X0239700Y0343403D02*
X0236201D01*
Y0341654*
X0236784Y0341071*
X0237951*
X0238534Y0341654*
Y0343403*
Y0342237D02*
X0239700Y0341071D01*
X0236201Y0336406D02*
X0239700D01*
Y0334073*
X0237367Y0332324D02*
Y0331157D01*
X0237951Y0330574*
X0239700*
Y0332324*
X0239117Y0332907*
X0238534Y0332324*
Y0330574*
X0236201Y0329408D02*
X0239700D01*
Y0327659*
X0239117Y0327075*
X0238534*
X0237951*
X0237367Y0327659*
Y0329408*
X0245000Y0349100D02*
X0241501D01*
X0242667Y0347934*
X0241501Y0346767*
X0245000*
Y0345018D02*
Y0343852D01*
X0244417Y0343269*
X0243251*
X0242667Y0343852*
Y0345018*
X0243251Y0345601*
X0244417*
X0245000Y0345018*
Y0341519D02*
Y0340353D01*
X0244417Y0339770*
X0243251*
X0242667Y0340353*
Y0341519*
X0243251Y0342102*
X0244417*
X0245000Y0341519*
Y0335104D02*
Y0333938D01*
Y0334521*
X0241501*
X0242084Y0335104*
X0245000Y0332189D02*
X0244417D01*
Y0331606*
X0245000*
Y0332189*
Y0329273D02*
Y0328107D01*
Y0328690*
X0241501*
X0242084Y0329273*
M02*