%FSDAX24Y24*%
%MOIN*%
%SFA1B1*%

%IPPOS*%
%ADD10C,0.020000*%
%ADD11C,0.059100*%
%ADD12R,0.059100X0.059100*%
%ADD13R,0.039400X0.039400*%
%ADD14C,0.039400*%
%ADD15R,0.059100X0.059100*%
%LNprogrammer-1*%
%LPD*%
G54D10*
X003800Y006400D02*
Y007400D01*
Y006400D02*
X004500Y005700D01*
X004800Y007400D02*
X005350Y006850D01*
Y001000D02*
Y006850D01*
X000800Y000800D02*
Y001400D01*
Y000800D02*
X000950Y000650D01*
X005000*
X005350Y001000*
X001800Y005339D02*
Y005400D01*
Y001400D02*
X002300D01*
X003550Y002650*
Y004450*
X003800Y004700*
X004500*
X001800Y004400D02*
X002450D01*
X003250Y005200*
X004500*
G54D11*
X000800Y007400D03*
X001800D03*
X000800Y006400D03*
X001800D03*
X000800Y005400D03*
X001800D03*
X000800Y004400D03*
X001800D03*
X000800Y003400D03*
X001800D03*
X000800Y002400D03*
X001800D03*
X000800Y001400D03*
X004800Y007400D03*
X003800D03*
G54D12*
X001800Y001400D03*
G54D13*
X004500Y001200D03*
G54D14*
X004500Y001700D03*
Y002200D03*
Y002700D03*
Y003200D03*
Y003700D03*
Y004200D03*
Y004700D03*
Y005200D03*
Y005700D03*
G54D15*
X005800Y007400D03*
M02*