%FSDAX24Y24*%
%MOIN*%
%SFA1B1*%

%IPPOS*%
%ADD10C,0.020000*%
%ADD11C,0.059100*%
%ADD12R,0.059100X0.059100*%
%ADD13R,0.039400X0.039400*%
%ADD14C,0.039400*%
%ADD15R,0.059100X0.059100*%
%LNprogrammer-1*%
%LPD*%
G54D10*
X001800Y002400D02*
X002350D01*
X003150Y003200*
X004500*
X001800Y003400D02*
X002400D01*
X002700Y003700*
X004500*
X004439Y004200D02*
X004500D01*
X001800Y005400D02*
X001850D01*
X003050Y004200*
X004500*
X005200Y002700D02*
X005350Y002850D01*
Y006150*
X005100Y006400D02*
X005350Y006150D01*
X001800Y006400D02*
X005100D01*
X004500Y002700D02*
X005200D01*
G54D11*
X000800Y007400D03*
X001800D03*
X000800Y006400D03*
X001800D03*
X000800Y005400D03*
X001800D03*
X000800Y004400D03*
X001800D03*
X000800Y003400D03*
X001800D03*
X000800Y002400D03*
X001800D03*
X000800Y001400D03*
X004800Y007400D03*
X003800D03*
G54D12*
X001800Y001400D03*
G54D13*
X004500Y001200D03*
G54D14*
X004500Y001700D03*
Y002200D03*
Y002700D03*
Y003200D03*
Y003700D03*
Y004200D03*
Y004700D03*
Y005200D03*
Y005700D03*
G54D15*
X005800Y007400D03*
M02*