%FSDAX24Y24*%
%MOIN*%
%SFA1B1*%

%IPPOS*%
%ADD24C,0.006700*%
%LNprogrammer-1*%
%LPD*%
G54D24*
X000623Y007400D02*
X000977D01*
X000800Y007223D02*
Y007577D01*
X001623Y007400D02*
X001977D01*
X001800Y007223D02*
Y007577D01*
X000623Y006400D02*
X000977D01*
X000800Y006223D02*
Y006577D01*
X001623Y006400D02*
X001977D01*
X001800Y006223D02*
Y006577D01*
X000623Y005400D02*
X000977D01*
X000800Y005223D02*
Y005577D01*
X001623Y005400D02*
X001977D01*
X001800Y005223D02*
Y005577D01*
X000623Y004400D02*
X000977D01*
X000800Y004223D02*
Y004577D01*
X001623Y004400D02*
X001977D01*
X001800Y004223D02*
Y004577D01*
X000623Y003400D02*
X000977D01*
X000800Y003223D02*
Y003577D01*
X001623Y003400D02*
X001977D01*
X001800Y003223D02*
Y003577D01*
X000623Y002400D02*
X000977D01*
X000800Y002223D02*
Y002577D01*
X001623Y002400D02*
X001977D01*
X001800Y002223D02*
Y002577D01*
X000623Y001400D02*
X000977D01*
X000800Y001223D02*
Y001577D01*
X001623Y001400D02*
X001977D01*
X001800Y001223D02*
Y001577D01*
X004382Y001200D02*
X004618D01*
X004500Y001082D02*
Y001318D01*
X004382Y001700D02*
X004618D01*
X004500Y001582D02*
Y001818D01*
X004382Y002200D02*
X004618D01*
X004500Y002082D02*
Y002318D01*
X004382Y002700D02*
X004618D01*
X004500Y002582D02*
Y002818D01*
X004382Y003200D02*
X004618D01*
X004500Y003082D02*
Y003318D01*
X004382Y003700D02*
X004618D01*
X004500Y003582D02*
Y003818D01*
X004382Y004200D02*
X004618D01*
X004500Y004082D02*
Y004318D01*
X004382Y004700D02*
X004618D01*
X004500Y004582D02*
Y004818D01*
X004382Y005200D02*
X004618D01*
X004500Y005082D02*
Y005318D01*
X004382Y005700D02*
X004618D01*
X004500Y005582D02*
Y005818D01*
X005623Y007400D02*
X005977D01*
X005800Y007223D02*
Y007577D01*
X004623Y007400D02*
X004977D01*
X004800Y007223D02*
Y007577D01*
X003623Y007400D02*
X003977D01*
X003800Y007223D02*
Y007577D01*
M02*