%FSDAX24Y24*%
%MOIN*%
%SFA1B1*%

%IPPOS*%
%ADD10C,0.020000*%
%ADD16C,0.007900*%
%ADD17C,0.010000*%
%ADD18C,0.008000*%
%ADD25C,0.005000*%
%LNprogrammer-1*%
%LPD*%
G54D25*
X003353Y002360D02*
X003279D01*
X003323Y002316*
X003326Y002313*
X003329Y002311*
X003329Y002310*
X003330Y002309*
X003336Y002303*
X003339Y002300*
X003342Y002295*
X003345Y002292*
X003347Y002288*
X003353Y002273*
X003356Y002266*
X003358Y002261*
X003359Y002256*
Y002248*
Y002247*
Y002244*
X003358Y002237*
X003356Y002229*
X003355Y002223*
X003354Y002220*
X003349Y002207*
X003350Y002213*
X003350Y002213*
X003348Y002209*
X003346Y002207*
X003342Y002202*
X003338Y002199*
X003331Y002194*
X003331Y002165*
X003348Y002126*
X003324Y002150*
X003329Y002144*
X003335Y002139*
X003338Y002135*
X003343Y002129*
X003348Y002124*
X003352Y002115*
X003352Y002116*
X003353Y002113*
X003355Y002108*
X003356Y002103*
X003358Y002097*
X003359Y002091*
Y002085*
Y002084*
Y002083*
Y002082*
Y002079*
Y002075*
X003358Y002071*
X003356Y002065*
X003354Y002056*
X003353Y002051*
X003347Y002039*
X003349Y002045*
X003346Y002041*
X003343Y002037*
X003339Y002033*
X003335Y002029*
X003330Y002026*
X003316Y002012*
X003324Y002025*
X003328*
X003321Y002023*
X003315Y002021*
X003309Y002020*
X003300Y002019*
X003288Y002018*
X003276Y002018*
X003125*
Y002042*
X003266*
X003274Y002043*
X003282*
X003292Y002044*
X003303Y002045*
X003317Y002048*
X003323Y002053*
X003318Y002051*
X003327Y002054*
X003329Y002055*
X003335Y002061*
X003342Y002067*
X003345Y002075*
X003349Y002081*
X003353Y002095*
Y002106*
Y002107*
Y002109*
Y002115*
X003351Y002122*
X003349Y002127*
X003347Y002134*
X003344Y002141*
X003337Y002151*
X003333Y002155*
X003331Y002157*
X003328Y002160*
X003323Y002165*
X003313Y002172*
X003307Y002174*
X003296Y002178*
X003300Y002177*
X003293Y002180*
X003288Y002181*
X003280Y002182*
X003270Y002183*
X003261Y002184*
X003248Y002186*
X003125*
Y002209*
X003267*
X003277Y002210*
X003284Y002211*
X003293*
X003304Y002212*
X003310Y002214*
X003318Y002216*
X003320Y002217*
X003323Y002219*
X003333Y002226*
X003343Y002237*
X003343Y002238*
X003345Y002240*
X003348Y002249*
X003350Y002253*
X003351Y002257*
X003353Y002264*
Y002273*
Y002274*
Y002276*
Y002281*
X003351Y002289*
X003349Y002295*
X003347Y002301*
X003344Y002309*
X003338Y002319*
X003335Y002322*
X003334Y002324*
X003328Y002330*
X003323Y002335*
X003317Y002339*
X003307Y002344*
X003295Y002347*
X003295Y002347*
X003289Y002349*
X003282Y002350*
X003274Y002351*
X003263Y002352*
X003250Y002354*
X003125*
Y002378*
X003353*
Y002360*
X003140Y002030D02*
D01*
Y002200D02*
D01*
Y002360D02*
Y002380D01*
X003190Y002030D02*
D01*
Y002200D02*
D01*
Y002360D02*
Y002380D01*
X003240Y002030D02*
D01*
Y002200D02*
D01*
Y002360D02*
Y002380D01*
X003290Y002030D02*
Y002040D01*
Y002190D02*
Y002200D01*
Y002370D02*
Y002380D01*
X003340Y002050D02*
Y002070D01*
Y002140D02*
D01*
Y002220D02*
Y002230D01*
Y002310D02*
Y002300D01*
Y002370D02*
Y002380D01*
X003459Y004478D02*
Y004476D01*
Y004472*
Y004467*
Y004461*
Y004455*
Y004448*
Y004440*
X003458Y004426*
X003457Y004411*
X003456Y004405*
X003455Y004398*
Y004395*
X003454Y004390*
X003453Y004385*
X003456Y004392*
X003452Y004382*
Y004386*
X003447Y004378*
X003444Y004370*
X003440Y004365*
X003432Y004358*
X003422Y004349*
X003421Y004347*
X003424Y004350*
X003423Y004350*
X003418Y004346*
X003415Y004344*
X003410Y004341*
X003402Y004339*
X003391Y004336*
X003378Y004333*
X003365Y004333*
X003361*
X003356Y004333*
X003348Y004334*
X003339Y004335*
X003333Y004337*
X003325Y004340*
X003317Y004343*
X003314Y004345*
X003313Y004345*
X003313Y004346*
X003308Y004349*
X003302Y004354*
X003297Y004358*
X003292Y004363*
X003286Y004370*
X003286Y004371*
X003286Y004372*
X003283Y004377*
X003280Y004383*
X003278Y004387*
X003276Y004395*
X003275Y004394*
X003275Y004395*
Y004397*
Y004403*
X003274Y004406*
X003273Y004409*
X003273Y004412*
Y004417*
X003272Y004422*
Y004428*
X003271Y004434*
Y004440*
Y004448*
X003270Y004457*
Y004465*
Y004474*
Y004550*
X003125*
Y004577*
X003459*
Y004478*
X003310Y004350D02*
X003410D01*
X003280Y004400D02*
X003440D01*
X003280Y004450D02*
X003460D01*
X003280Y004500D02*
X003460D01*
X003130Y004550D02*
X003460D01*
X003353Y002837D02*
X003279D01*
X003323Y002793*
X003326Y002790*
X003327Y002788*
X003332Y002784*
X003336Y002780*
X003339Y002777*
X003342Y002773*
X003345Y002768*
X003347Y002763*
X003353Y002750*
X003356Y002743*
X003358Y002737*
X003359Y002733*
Y002725*
Y002724*
Y002721*
Y002717*
X003358Y002714*
X003356Y002707*
X003355Y002700*
X003354Y002697*
X003349Y002684*
X003350Y002688*
X003350Y002688*
X003348Y002686*
X003346Y002683*
X003343Y002680*
X003337Y002676*
X003331Y002670*
X003332Y002643*
X003357Y002576*
X003323Y002627*
X003330Y002620*
X003335Y002616*
X003338Y002612*
X003343Y002606*
X003348Y002601*
X003352Y002592*
X003352Y002593*
X003353Y002590*
X003355Y002585*
X003356Y002580*
X003358Y002573*
X003359Y002568*
Y002561*
Y002560*
Y002558*
Y002556*
Y002552*
X003358Y002548*
X003356Y002542*
X003354Y002533*
X003353Y002528*
X003347Y002516*
X003349Y002521*
X003346Y002518*
X003343Y002514*
X003339Y002509*
X003336Y002507*
X003330Y002503*
X003316Y002489*
X003324Y002502*
X003326*
X003320Y002499*
X003316Y002498*
X003308Y002496*
X003301Y002496*
X003290*
X003276Y002495*
X003125*
Y002519*
X003265*
X003274*
X003284Y002520*
X003292Y002521*
X003303Y002522*
X003313Y002524*
X003319Y002526*
X003326Y002530*
X003329Y002532*
X003335Y002538*
X003342Y002544*
X003345Y002552*
X003348Y002558*
X003353Y002570*
Y002583*
Y002584*
Y002585*
Y002591*
X003351Y002597*
X003350Y002604*
X003347Y002611*
X003343Y002619*
X003343Y002615*
X003344Y002622*
X003333Y002632*
X003331Y002634*
X003328Y002637*
X003322Y002643*
X003314Y002647*
X003309Y002650*
X003296Y002655*
X003300Y002654*
X003291Y002658*
X003287*
X003282Y002659*
X003269Y002661*
X003260*
X003248Y002662*
X003125*
Y002686*
X003267*
X003275Y002687*
X003284*
X003294Y002688*
X003304Y002689*
X003310Y002691*
X003318Y002693*
X003320Y002694*
X003323Y002696*
X003333Y002703*
X003341Y002711*
X003343Y002714*
X003346Y002719*
X003348Y002723*
X003350Y002729*
X003351Y002734*
X003353Y002742*
Y002750*
Y002753*
Y002759*
X003351Y002765*
X003350Y002772*
X003347Y002778*
X003344Y002786*
X003329Y002799*
X003338Y002795*
X003337Y002797*
X003332Y002802*
X003328Y002806*
X003324Y002809*
X003318Y002815*
X003307Y002821*
X003295Y002824*
X003295Y002824*
X003289Y002826*
X003282Y002827*
X003274Y002828*
X003263Y002829*
X003250Y002831*
X003125*
Y002855*
X003353*
Y002837*
X003140Y002500D02*
Y002510D01*
Y002670D02*
Y002680D01*
Y002840D02*
Y002850D01*
X003190Y002500D02*
Y002510D01*
Y002670D02*
Y002680D01*
Y002840D02*
Y002850D01*
X003240Y002500D02*
Y002510D01*
Y002670D02*
Y002680D01*
Y002840D02*
Y002850D01*
X003290Y002510D02*
D01*
Y002670D02*
Y002680D01*
Y002830D02*
Y002820D01*
Y002850D02*
D01*
X003340Y002530D02*
Y002540D01*
Y002690D02*
Y002710D01*
Y002780D02*
D01*
Y002850D02*
D01*
X003249Y004028D02*
D01*
X003251Y004027*
X003261Y004026*
X003270Y004024*
X003280Y004022*
X003292Y004017*
X003300Y004014*
X003300Y004014*
X003302Y004013*
X003303Y004012*
X003310Y004007*
X003318Y004002*
X003324Y003996*
X003331Y003989*
X003339Y003980*
X003340Y003982*
X003336Y003978*
X003346Y003968*
X003345Y003969*
X003346Y003967*
X003347Y003966*
X003348Y003963*
X003351Y003955*
X003353Y003946*
X003356Y003933*
X003359Y003923*
Y003910*
Y003907*
Y003905*
X003358Y003900*
X003357Y003891*
X003356Y003887*
X003354Y003880*
X003353Y003873*
X003350Y003866*
X003347Y003858*
X003344Y003852*
X003340Y003845*
X003335Y003837*
X003330Y003830*
X003336Y003831*
X003330Y003830*
X003323Y003823*
X003318Y003819*
X003317Y003818*
X003312Y003816*
X003306Y003811*
X003302Y003808*
X003296Y003805*
X003288Y003802*
X003282Y003799*
X003275Y003798*
X003266Y003795*
X003257Y003793*
X003248Y003792*
X003237Y003792*
X003236*
X003232Y003793*
X003225*
X003222Y003793*
X003215Y003795*
X003206Y003796*
X003201Y003797*
X003195Y003800*
X003186Y003804*
X003178Y003806*
X003173Y003810*
X003165Y003815*
X003158Y003820*
X003151Y003826*
X003151Y003826*
X003148Y003829*
X003148Y003829*
X003145Y003833*
X003143Y003837*
X003138Y003843*
X003135Y003849*
X003132Y003854*
X003128Y003862*
X003125Y003868*
X003123Y003874*
X003121Y003882*
X003119Y003891*
X003118Y003901*
X003117Y003911*
X003118Y003911*
Y003912*
Y003914*
Y003912*
X003118Y003916*
X003118Y003920*
X003119Y003930*
X003121Y003939*
X003124Y003950*
X003127Y003961*
X003133Y003977*
X003132Y003971*
X003128Y003967*
X003133Y003972*
X003135Y003976*
X003137Y003979*
X003143Y003987*
X003148Y003994*
X003155Y004001*
X003163Y004007*
X003168Y004011*
X003173*
X003179Y004017*
X003178Y004016*
X003179Y004016*
X003182Y004017*
X003185Y004018*
X003189Y004019*
X003200Y004022*
X003214Y004025*
X003227Y004028*
X003242*
X003246*
X003249*
X003140Y003850D02*
Y003980D01*
X003190Y003810D02*
Y004010D01*
X003240Y003800D02*
Y004030D01*
X003290Y003820D02*
Y004010D01*
X003340Y003870D02*
Y003970D01*
X003252Y003699D02*
X003255D01*
X003260Y003698*
X003268Y003697*
X003275Y003696*
X003290Y003692*
X003298Y003690*
X003305Y003687*
X003312Y003684*
X003319Y003681*
X003325Y003677*
X003323Y003684*
X003326Y003673*
X003330Y003671*
X003330Y003670*
X003335Y003667*
X003336Y003667*
X003339Y003663*
X003342Y003659*
X003344Y003655*
X003347Y003650*
X003350Y003645*
X003354Y003634*
X003357Y003626*
X003358Y003621*
X003359Y003615*
Y003608*
Y003607*
Y003606*
Y003603*
Y003602*
X003358Y003600*
X003357Y003596*
X003356Y003591*
X003354Y003585*
X003352Y003580*
X003350Y003574*
X003348Y003570*
X003344Y003565*
X003340Y003559*
X003335Y003553*
X003329Y003548*
X003272Y003498*
X003353*
Y003479*
X003116*
X003113Y003479*
X003102Y003479*
X003092Y003480*
X003080Y003482*
X003070Y003483*
X003067Y003485*
X003067Y003485*
X003067Y003484*
X003059Y003487*
X003055Y003489*
X003051Y003490*
X003045Y003494*
X003041Y003496*
X003038Y003499*
X003039Y003492*
X003037Y003499*
X003033Y003503*
X003032Y003505*
X003028Y003510*
X003026Y003513*
X003023Y003518*
X003021Y003524*
X003016Y003537*
X003019Y003535*
Y003533*
X003016Y003540*
X003015Y003545*
X003013Y003553*
X003012Y003563*
X003012Y003574*
Y003586*
Y003587*
Y003589*
Y003593*
Y003598*
Y003601*
X003012Y003605*
X003014Y003615*
Y003623*
X003016Y003636*
X003020Y003650*
X003023Y003656*
X003025Y003663*
X003028Y003667*
X003030Y003671*
X003029Y003670*
X003032Y003673*
X003036Y003676*
X003042Y003681*
X003048Y003684*
X003055Y003688*
X003064Y003690*
X003067Y003691*
X003072*
X003078*
X003052*
X003048Y003656*
X003063*
X003061Y003655*
X003057*
X003043Y003648*
X003036Y003642*
X003033Y003639*
X003028Y003629*
X003012Y003585*
X003026Y003628*
X003025Y003625*
X003021Y003616*
X003019Y003608*
X003018Y003598*
Y003589*
Y003588*
Y003585*
Y003576*
X003019Y003568*
X003020Y003562*
X003021Y003552*
X003025Y003543*
X003029Y003532*
X003034Y003527*
X003032Y003529*
X003035Y003523*
X003038Y003521*
X003040Y003518*
X003050Y003513*
X003053Y003512*
X003064Y003507*
X003069Y003505*
X003078*
X003078Y003504*
X003086Y003503*
X003096*
X003146Y003528*
X003143Y003586*
X003162Y003548*
X003156Y003551*
X003155Y003552*
X003151Y003555*
X003148Y003558*
X003143Y003564*
X003136Y003576*
X003129Y003587*
X003127Y003592*
X003126Y003597*
X003125Y003604*
X003124Y003613*
X003124Y003610*
X003126Y003664*
Y003620*
X003126Y003622*
X003128Y003629*
X003129Y003635*
X003131Y003640*
X003134Y003646*
X003137Y003653*
X003140Y003657*
X003144Y003662*
X003149Y003668*
X003156Y003674*
X003151Y003674*
X003157Y003674*
X003163Y003680*
X003163Y003680*
X003166Y003682*
X003169Y003683*
X003172Y003685*
X003175Y003686*
X003180Y003688*
X003188Y003690*
X003195Y003693*
X003200Y003694*
X003206Y003696*
X003222Y003699*
X003231*
X003241Y003700*
X003252Y003699*
X003040Y003500D02*
X003060D01*
X003110D02*
X003260D01*
X003020Y003550D02*
X003010D01*
X003160D02*
X003330D01*
X003020Y003600D02*
X003010D01*
X003140D02*
X003360D01*
X003030Y003650D02*
X003050D01*
X003150D02*
X003340D01*
X003249Y006294D02*
D01*
X003251Y006293*
X003261Y006292*
X003270Y006290*
X003281Y006287*
X003292Y006284*
X003299Y006281*
X003300Y006280*
X003302Y006279*
X003303Y006278*
X003310Y006273*
X003318Y006268*
X003325Y006262*
X003331Y006255*
X003338Y006248*
X003339Y006249*
X003333Y006247*
X003346Y006234*
X003345Y006235*
X003346Y006233*
X003347Y006232*
X003348Y006229*
X003351Y006221*
X003353Y006212*
X003356Y006199*
X003359Y006189*
Y006177*
Y006176*
Y006174*
Y006171*
X003358Y006166*
X003357Y006157*
X003356Y006153*
X003354Y006146*
X003353Y006139*
X003350Y006132*
X003347Y006124*
X003344Y006118*
X003340Y006111*
X003335Y006104*
X003330Y006096*
X003325Y006091*
X003324Y006090*
X003323Y006089*
X003318Y006085*
X003317Y006084*
X003312Y006082*
X003306Y006077*
X003292Y006070*
X003288Y006068*
X003282Y006066*
X003274Y006063*
X003266Y006061*
X003257Y006059*
X003248Y006058*
X003237Y006058*
X003236*
X003234Y006058*
X003227Y006059*
X003221Y006060*
X003214Y006061*
X003206Y006063*
X003200Y006064*
X003195Y006066*
X003186Y006070*
X003179Y006072*
X003173Y006077*
X003164Y006082*
X003158Y006086*
X003151Y006092*
X003151Y006092*
X003148Y006095*
X003148Y006095*
X003145Y006099*
X003143Y006103*
X003138Y006109*
X003135Y006115*
X003132Y006120*
X003128Y006128*
X003125Y006134*
X003123Y006141*
X003121Y006149*
X003119Y006157*
X003118Y006168*
X003117Y006178*
X003118Y006178*
Y006180*
X003118Y006183*
X003118Y006187*
X003119Y006196*
X003121Y006205*
X003124Y006216*
X003127Y006227*
X003133Y006243*
X003132Y006237*
X003131Y006236*
X003134Y006241*
X003134Y006241*
X003138Y006246*
X003143Y006254*
X003148Y006259*
X003155Y006267*
X003163Y006273*
X003168Y006277*
X003178*
X003181Y006283*
X003174Y006281*
X003176Y006281*
X003182Y006283*
X003187Y006285*
X003191Y006287*
X003200Y006289*
X003213Y006292*
X003226Y006294*
X003242*
X003246*
X003249*
X003170Y006080D02*
X003310D01*
X003140Y006130D02*
X003340D01*
X003130Y006180D02*
X003360D01*
X003140Y006230D02*
X003340D01*
X003190Y006280D02*
X003280D01*
X003248Y001916D02*
X003251D01*
X003256Y001915*
X003262Y001914*
X003268Y001912*
X003286Y001908*
X003294Y001906*
X003301Y001903*
X003308Y001900*
X003316Y001896*
X003322Y001892*
X003324Y001890*
X003327Y001885*
X003333Y001882*
X003333Y001881*
X003334Y001881*
X003337Y001877*
X003339Y001873*
X003342Y001868*
X003346Y001861*
X003349Y001856*
X003351Y001852*
X003354Y001844*
X003356Y001836*
X003358Y001831*
X003359Y001823*
Y001815*
Y001814*
Y001812*
Y001809*
X003358Y001803*
X003357Y001797*
X003356Y001791*
X003354Y001785*
X003353Y001779*
X003350Y001770*
X003348Y001765*
X003345Y001759*
X003341Y001753*
X003336Y001746*
X003331Y001740*
X003325Y001734*
X003324Y001733*
X003323Y001732*
X003322Y001732*
X003319Y001730*
X003313Y001728*
X003307Y001724*
X003302Y001722*
X003296Y001719*
X003286Y001716*
X003276Y001713*
X003267Y001711*
X003256Y001709*
X003244Y001707*
X003232Y001707*
X003243*
Y001891*
X003215*
X003209*
X003201Y001889*
X003194Y001888*
X003182Y001886*
X003171Y001881*
X003160Y001876*
X003146Y001859*
X003149Y001867*
X003146Y001864*
X003139Y001856*
X003135Y001849*
X003131Y001841*
X003127Y001832*
X003124Y001820*
X003123Y001808*
X003123Y001806*
Y001800*
X003124Y001796*
X003124Y001793*
X003125Y001784*
X003128Y001777*
X003132Y001769*
X003138Y001761*
X003140Y001759*
X003145Y001754*
X003153Y001748*
X003154Y001747*
X003161Y001743*
X003169Y001739*
X003159Y001742*
X003158Y001737*
X003187Y001708*
X003180Y001711*
X003178Y001711*
X003166Y001717*
X003157Y001724*
X003149Y001730*
X003141Y001738*
X003140Y001734*
X003127Y001745*
X003138Y001736*
X003134Y001745*
X003131Y001749*
X003132Y001748*
X003131Y001751*
X003126Y001763*
X003122Y001771*
X003120Y001780*
X003118Y001793*
X003117Y001808*
X003118Y001808*
X003118Y001811*
X003118Y001815*
X003120Y001822*
Y001828*
X003121Y001833*
X003123Y001841*
X003124Y001847*
X003128Y001856*
X003130Y001864*
X003134Y001870*
X003138Y001877*
X003143Y001883*
X003149Y001890*
X003144Y001890*
X003151Y001890*
X003156Y001895*
X003156Y001895*
X003159Y001897*
X003163Y001899*
X003167Y001901*
X003169Y001902*
X003176Y001904*
X003181Y001907*
X003187Y001908*
X003195Y001911*
X003202Y001913*
X003217Y001916*
X003227*
X003237Y001917*
X003248Y001916*
X003160Y001730D02*
D01*
X003250D02*
X003320D01*
X003130Y001780D02*
X003120D01*
X003250D02*
X003340D01*
X003130Y001830D02*
X003120D01*
X003250D02*
X003360D01*
X003150Y001880D02*
X003160D01*
X003250D02*
X003320D01*
X003149Y005152D02*
X003125D01*
Y005175*
X003149*
Y005152*
X003245Y005966D02*
X003252Y005966D01*
X003254*
X003261Y005965*
X003269Y005963*
X003280Y005960*
X003292Y005956*
X003308Y005950*
X003305Y005950*
X003303Y005952*
X003292Y005958*
X003310Y005946*
X003318Y005941*
X003324Y005935*
X003331Y005928*
X003338Y005920*
X003346Y005907*
X003346Y005907*
X003345Y005908*
X003346Y005906*
X003347Y005905*
X003348Y005902*
X003351Y005894*
X003353Y005885*
X003356Y005872*
X003359Y005861*
Y005849*
Y005846*
Y005843*
X003358Y005837*
X003357Y005831*
X003356Y005825*
X003354Y005819*
X003352Y005811*
X003350Y005803*
X003347Y005797*
X003344Y005790*
X003340Y005784*
X003335Y005776*
X003330Y005769*
X003336Y005770*
X003325Y005769*
X003322Y005762*
X003325Y005764*
X003318Y005758*
X003316Y005756*
X003312Y005754*
X003307Y005751*
X003302Y005747*
X003296Y005744*
X003288Y005741*
X003281Y005738*
X003274Y005735*
X003267Y005733*
X003257Y005732*
X003248Y005731*
X003239*
X003233*
X003227Y005731*
X003221Y005732*
X003214Y005733*
X003208Y005735*
X003201Y005736*
X003194Y005739*
X003186Y005742*
X003179Y005745*
X003172Y005749*
X003165Y005753*
X003159Y005758*
X003143Y005768*
X003149Y005766*
X003150Y005765*
X003149Y005767*
X003145Y005771*
X003142Y005777*
X003138Y005782*
X003135Y005787*
X003131Y005794*
X003128Y005800*
X003125Y005807*
X003123Y005813*
X003121Y005821*
X003119Y005830*
X003118Y005840*
X003117Y005850*
X003118Y005850*
Y005851*
Y005853*
Y005851*
X003118Y005855*
X003118Y005859*
X003119Y005868*
X003121Y005878*
X003124Y005889*
X003127Y005900*
X003130Y005907*
X003131Y005908*
X003134Y005913*
X003134Y005913*
X003138Y005918*
X003143Y005926*
X003148Y005932*
X003155Y005939*
X003163Y005946*
X003173Y005952*
X003177Y005954*
X003175Y005953*
X003174Y005953*
X003179Y005954*
X003182Y005956*
X003184Y005956*
X003191Y005959*
X003200Y005961*
X003213Y005964*
X003227Y005966*
X003242Y005967*
X003241*
X003245Y005966*
X003140Y005790D02*
Y005920D01*
X003190Y005750D02*
Y005950D01*
X003240Y005740D02*
Y005970D01*
X003290Y005750D02*
Y005950D01*
X003340Y005810D02*
Y005910D01*
%LNprogrammer-2*%
%LPC*%
G36*
X003263Y001865D02*
Y001755D01*
X003266*
X003268Y001756*
X003274*
X003281Y001758*
X003288Y001760*
X003297Y001763*
X003304Y001767*
X003311Y001772*
X003312Y001773*
X003314Y001775*
X003316Y001778*
X003320Y001783*
X003323Y001788*
X003326Y001794*
X003328Y001802*
Y001810*
Y001811*
Y001814*
X003327Y001818*
X003326Y001824*
X003323Y001831*
X003321Y001837*
X003316Y001844*
X003310Y001850*
X003309Y001851*
X003307Y001852*
X003303Y001855*
X003298Y001858*
X003291Y001861*
X003283Y001863*
X003273Y001865*
X003263*
G37*
G36*
X003419Y004525D02*
X003310D01*
Y004483*
Y004482*
Y004481*
Y004478*
Y004475*
Y004471*
X003311Y004467*
Y004458*
Y004447*
X003312Y004437*
X003314Y004429*
X003315Y004425*
X003316Y004422*
Y004421*
X003317Y004419*
X003318Y004416*
X003321Y004413*
X003323Y004409*
X003326Y004405*
X003330Y004401*
X003335Y004397*
X003337Y004396*
X003340Y004394*
X003343Y004392*
X003347Y004391*
X003353Y004390*
X003359Y004389*
X003364Y004388*
X003368*
X003372Y004389*
X003377Y004390*
X003382Y004391*
X003388Y004394*
X003394Y004397*
X003399Y004401*
X003400*
X003401Y004403*
X003404Y004405*
X003407Y004409*
X003409Y004414*
X003412Y004419*
X003415Y004425*
X003416Y004432*
Y004433*
X003417Y004435*
X003418Y004439*
Y004444*
Y004452*
X003419Y004461*
Y004467*
Y004473*
Y004480*
Y004488*
Y004525*
G37*
G36*
X003239Y005916D02*
X003235D01*
X003232*
X003228*
X003225Y005915*
X003215Y005914*
X003205Y005912*
X003194Y005908*
X003184Y005904*
X003175Y005897*
X003174Y005896*
X003171Y005894*
X003168Y005889*
X003164Y005884*
X003160Y005877*
X003157Y005868*
X003154Y005860*
X003153Y005849*
Y005848*
X003154Y005844*
Y005839*
X003156Y005832*
X003158Y005825*
X003163Y005817*
X003168Y005809*
X003175Y005801*
X003176*
X003179Y005798*
X003184Y005795*
X003191Y005791*
X003200Y005788*
X003211Y005784*
X003224Y005782*
X003239Y005781*
X003246*
X003249Y005782*
X003253*
X003262Y005784*
X003272Y005786*
X003283Y005789*
X003292Y005795*
X003302Y005801*
X003303Y005802*
X003305Y005805*
X003309Y005809*
X003313Y005815*
X003317Y005821*
X003321Y005829*
X003323Y005839*
X003324Y005849*
Y005850*
X003323Y005854*
Y005859*
X003321Y005866*
X003319Y005874*
X003315Y005881*
X003309Y005889*
X003302Y005897*
X003301Y005898*
X003298Y005900*
X003292Y005903*
X003285Y005906*
X003277Y005911*
X003266Y005913*
X003253Y005916*
X003239*
G37*
G36*
Y006244D02*
X003235D01*
X003232Y006243*
X003228*
X003225*
X003215Y006242*
X003205Y006239*
X003194Y006236*
X003184Y006231*
X003175Y006225*
X003174Y006223*
X003171Y006221*
X003168Y006217*
X003164Y006211*
X003160Y006204*
X003157Y006196*
X003154Y006187*
X003153Y006177*
Y006176*
X003154Y006172*
Y006167*
X003156Y006160*
X003158Y006152*
X003163Y006145*
X003168Y006136*
X003175Y006129*
X003176Y006128*
X003179Y006126*
X003184Y006122*
X003191Y006119*
X003200Y006115*
X003211Y006112*
X003224Y006109*
X003239*
X003246*
X003249*
X003253Y006110*
X003262Y006111*
X003272Y006114*
X003283Y006117*
X003292Y006122*
X003302Y006129*
X003303*
X003305Y006132*
X003309Y006136*
X003313Y006142*
X003317Y006149*
X003321Y006157*
X003323Y006166*
X003324Y006177*
Y006178*
X003323Y006181*
Y006187*
X003321Y006194*
X003319Y006201*
X003315Y006209*
X003309Y006217*
X003302Y006225*
X003301*
X003298Y006228*
X003292Y006231*
X003285Y006234*
X003277Y006238*
X003266Y006241*
X003253Y006243*
X003239Y006244*
G37*
G36*
X003183Y003118D02*
X003181D01*
X003177Y003117*
X003174*
X003170Y003115*
X003165Y003113*
X003160Y003110*
X003156Y003107*
Y003106*
X003154Y003104*
X003153Y003102*
X003151Y003098*
X003149Y003094*
X003147Y003089*
X003146Y003084*
X003145Y003077*
Y003076*
Y003074*
X003146Y003070*
X003147Y003065*
X003148Y003059*
X003150Y003053*
X003154Y003046*
X003158Y003039*
X003160Y003037*
X003162Y003035*
X003165Y003032*
X003168Y003029*
X003173Y003026*
X003177Y003024*
X003182Y003022*
X003183*
X003184Y003021*
X003187*
X003191Y003020*
X003195*
X003202Y003019*
X003209*
X003233*
X003232Y003022*
Y003025*
X003230Y003030*
X003228Y003036*
X003226Y003044*
X003224Y003053*
X003222Y003064*
Y003065*
X003221Y003069*
X003219Y003074*
X003218Y003080*
X003216Y003087*
X003213Y003094*
X003211Y003099*
X003209Y003104*
X003208*
X003207Y003106*
X003205Y003108*
X003202Y003111*
X003198Y003113*
X003194Y003115*
X003189Y003117*
X003183Y003118*
G37*
G36*
X003244Y003650D02*
X003237D01*
X003234Y003649*
X003229Y003648*
X003220Y003647*
X003209Y003645*
X003199Y003642*
X003189Y003638*
X003180Y003633*
Y003632*
X003177Y003630*
X003174Y003626*
X003170Y003621*
X003166Y003615*
X003163Y003607*
X003161Y003599*
X003160Y003590*
Y003589*
Y003586*
X003161Y003581*
X003163Y003575*
X003165Y003568*
X003168Y003560*
X003174Y003552*
X003181Y003545*
X003182*
X003185Y003542*
X003189Y003540*
X003197Y003536*
X003205Y003532*
X003216Y003530*
X003228Y003527*
X003243*
X003250*
X003253*
X003257Y003528*
X003267Y003529*
X003277Y003531*
X003288Y003534*
X003298Y003539*
X003307Y003545*
X003308*
X003311Y003548*
X003314Y003552*
X003318Y003557*
X003322Y003564*
X003325Y003571*
X003327Y003579*
X003328Y003589*
Y003590*
Y003593*
X003327Y003599*
X003326Y003604*
X003323Y003611*
X003319Y003618*
X003314Y003626*
X003307Y003633*
X003306*
X003303Y003635*
X003298Y003638*
X003292Y003641*
X003283Y003644*
X003272Y003647*
X003259Y003649*
X003244Y003650*
G37*
G36*
X003239Y003978D02*
X003235D01*
X003232Y003977*
X003228*
X003225*
X003215Y003975*
X003205Y003973*
X003194Y003970*
X003184Y003965*
X003175Y003958*
X003174Y003957*
X003171Y003955*
X003168Y003951*
X003164Y003945*
X003160Y003938*
X003157Y003930*
X003154Y003921*
X003153Y003910*
Y003909*
X003154Y003906*
Y003900*
X003156Y003893*
X003158Y003886*
X003163Y003878*
X003168Y003870*
X003175Y003862*
X003176*
X003179Y003860*
X003184Y003856*
X003191Y003853*
X003200Y003849*
X003211Y003845*
X003224Y003843*
X003239*
X003246*
X003249*
X003253Y003844*
X003262Y003845*
X003272Y003847*
X003283Y003851*
X003292Y003856*
X003302Y003862*
X003303Y003863*
X003305Y003866*
X003309Y003870*
X003313Y003876*
X003317Y003882*
X003321Y003891*
X003323Y003900*
X003324Y003910*
Y003911*
Y003912*
X003323Y003915*
Y003920*
X003321Y003927*
X003319Y003935*
X003315Y003943*
X003309Y003951*
X003302Y003958*
X003301Y003959*
X003298Y003961*
X003292Y003964*
X003285Y003968*
X003277Y003972*
X003266Y003975*
X003253Y003977*
X003239Y003978*
G37*
%LNprogrammer-3*%
%LPD*%
G54D10*
X002750Y001350D02*
D01*
X002749Y001356*
X002749Y001363*
X002747Y001370*
X002746Y001377*
X002743Y001384*
X002741Y001390*
X002738Y001396*
X002734Y001402*
X002730Y001408*
X002726Y001414*
X002721Y001419*
X002716Y001424*
X002711Y001428*
X002705Y001432*
X002700Y001436*
X002693Y001439*
X002687Y001442*
X002680Y001445*
X002674Y001447*
X002667Y001448*
X002660Y001449*
X002653Y001449*
X002646*
X002639Y001449*
X002632Y001448*
X002625Y001447*
X002619Y001445*
X002612Y001442*
X002606Y001439*
X002600Y001436*
X002594Y001432*
X002588Y001428*
X002583Y001424*
X002578Y001419*
X002573Y001414*
X002569Y001408*
X002565Y001402*
X002561Y001396*
X002558Y001390*
X002556Y001384*
X002553Y001377*
X002552Y001370*
X002550Y001363*
X002550Y001356*
X002550Y001350*
X002550Y001343*
X002550Y001336*
X002552Y001329*
X002553Y001322*
X002556Y001315*
X002558Y001309*
X002561Y001303*
X002565Y001297*
X002569Y001291*
X002573Y001285*
X002578Y001280*
X002583Y001275*
X002588Y001271*
X002594Y001267*
X002600Y001263*
X002606Y001260*
X002612Y001257*
X002619Y001254*
X002625Y001252*
X002632Y001251*
X002639Y001250*
X002646Y001250*
X002653*
X002660Y001250*
X002667Y001251*
X002674Y001252*
X002680Y001254*
X002687Y001257*
X002693Y001260*
X002700Y001263*
X002705Y001267*
X002711Y001271*
X002716Y001275*
X002721Y001280*
X002726Y001285*
X002730Y001291*
X002734Y001297*
X002738Y001303*
X002741Y001309*
X002743Y001315*
X002746Y001322*
X002747Y001329*
X002749Y001336*
X002749Y001343*
X002750Y001350*
G54D16*
X002300Y000900D02*
Y007900D01*
X000300Y000900D02*
Y007900D01*
Y000900D02*
X002300D01*
X000300Y007900D02*
X002300D01*
X004146Y000846D02*
X004854D01*
X004146D02*
Y006054D01*
X004854*
Y000846D02*
Y006054D01*
X003300Y007900D02*
X006300D01*
X003300Y006900D02*
Y007900D01*
Y006900D02*
X006300D01*
Y007900*
G54D17*
X000000Y000000D02*
Y008900D01*
Y000000D02*
X007000D01*
Y008900*
X000000D02*
X007000D01*
X003650Y008000D02*
Y008600D01*
X004900*
Y008000D02*
Y008600D01*
X005850Y008000D02*
Y008600D01*
G54D18*
X002000Y000300D02*
Y000467D01*
Y000383*
X001500*
X001583Y000300*
X001000Y000533D02*
Y000200D01*
X000667Y000533*
X000583*
X000500Y000450*
Y000283*
X000583Y000200*
X006750Y005850D02*
X006450D01*
X006550Y005750*
X006450Y005650*
X006750*
Y005550D02*
Y005450D01*
Y005500*
X006450*
Y005550*
Y005450*
X006700Y005100D02*
X006750Y005150D01*
Y005250*
X006700Y005300*
X006650*
X006600Y005250*
Y005150*
X006550Y005100*
X006500*
X006450Y005150*
Y005250*
X006500Y005300*
X006450Y005000D02*
X006750D01*
Y004850*
X006700Y004800*
X006600*
X006550Y004850*
Y005000*
X006450Y004550D02*
X006750D01*
X006600Y004700*
Y004500*
X006450Y004400D02*
X006500D01*
Y004350*
X006450*
Y004400*
Y004151D02*
Y004051D01*
Y004101*
X006750*
X006700Y004151*
X005050Y005850D02*
Y005650D01*
X005150Y005550*
X005250Y005650*
Y005850*
X005350Y005750D02*
Y005550D01*
Y005650*
X005400Y005700*
X005450Y005750*
X005500*
X005800Y005550D02*
X005700D01*
X005650Y005600*
Y005700*
X005700Y005750*
X005800*
X005850Y005700*
Y005650*
X005650*
X006050Y005450D02*
X006100D01*
X006150Y005500*
Y005750*
X006000*
X005950Y005700*
Y005600*
X006000Y005550*
X006150*
X005050Y005050D02*
Y005350D01*
X005200*
X005250Y005300*
Y005200*
X005200Y005150*
X005050*
X005150D02*
X005250Y005050D01*
X005350D02*
X005500D01*
X005550Y005100*
X005500Y005150*
X005400*
X005350Y005200*
X005400Y005250*
X005550*
X005700Y005300D02*
Y005250D01*
X005650*
X005750*
X005700*
Y005100*
X005750Y005050*
X005050Y004850D02*
X005250D01*
X005150*
Y004550*
X005500D02*
X005400D01*
X005350Y004600*
Y004700*
X005400Y004750*
X005500*
X005550Y004700*
Y004650*
X005350*
X005650Y004550D02*
X005800D01*
X005850Y004600*
X005800Y004650*
X005700*
X005650Y004700*
X005700Y004750*
X005850*
X006000Y004800D02*
Y004750D01*
X005950*
X006050*
X006000*
Y004600*
X006050Y004550*
X005250Y004300D02*
X005200Y004350D01*
X005100*
X005050Y004300*
Y004100*
X005100Y004050*
X005200*
X005250Y004100*
Y004200*
X005150*
X005350Y004050D02*
Y004250D01*
X005500*
X005550Y004200*
Y004050*
X005850Y004350D02*
Y004050D01*
X005700*
X005650Y004100*
Y004200*
X005700Y004250*
X005850*
X003900Y008400D02*
Y008200D01*
X004000Y008100*
X004100Y008200*
Y008400*
X004400Y008300D02*
X004250D01*
X004200Y008250*
Y008150*
X004250Y008100*
X004400*
X004700Y008300D02*
X004550D01*
X004500Y008250*
Y008150*
X004550Y008100*
X004700*
M02*