%FSAX25Y25*%
%MOIN*%
G70*
G01*
G75*
G04 Layer_Color=32896*
%ADD10R,0.02362X0.08661*%
%ADD11R,0.03543X0.02756*%
%ADD12R,0.02756X0.03543*%
%ADD13R,0.03622X0.01575*%
%ADD14R,0.01575X0.01575*%
%ADD15R,0.05118X0.05906*%
%ADD16R,0.01575X0.01575*%
%ADD17R,0.03937X0.02756*%
%ADD18R,0.04331X0.03937*%
%ADD19R,0.03347X0.03937*%
%ADD20R,0.03347X0.03937*%
%ADD21R,0.00866X0.02756*%
%ADD22R,0.03937X0.04331*%
%ADD23R,0.03937X0.09055*%
%ADD24C,0.01000*%
%ADD25C,0.00800*%
%ADD26C,0.01200*%
%ADD27C,0.01500*%
%ADD28C,0.02400*%
%ADD29C,0.04000*%
%ADD30C,0.02000*%
%ADD31C,0.02500*%
%ADD32C,0.03543*%
%ADD33C,0.03000*%
%ADD34C,0.01400*%
%ADD35C,0.03000*%
%ADD36C,0.05500*%
%ADD37C,0.06299*%
%ADD38C,0.03937*%
%ADD39R,0.03937X0.03937*%
%ADD40R,0.03937X0.03937*%
%ADD41C,0.01500*%
%ADD42C,0.01300*%
%ADD43C,0.02000*%
%ADD44C,0.02400*%
%ADD45C,0.01400*%
%ADD46C,0.01800*%
G04:AMPARAMS|DCode=47|XSize=193.75mil|YSize=195.16mil|CornerRadius=0mil|HoleSize=0mil|Usage=FLASHONLY|Rotation=45.000|XOffset=0mil|YOffset=0mil|HoleType=Round|Shape=Rectangle|*
%AMROTATEDRECTD47*
4,1,4,0.00050,-0.13750,-0.13750,0.00050,-0.00050,0.13750,0.13750,-0.00050,0.00050,-0.13750,0.0*
%
%ADD47ROTATEDRECTD47*%

%ADD48R,0.05309X0.05255*%
%ADD49R,0.01575X0.03622*%
%ADD50R,0.03937X0.07087*%
%ADD51R,0.03622X0.02362*%
%ADD52R,0.02756X0.00866*%
%ADD53O,0.06102X0.00984*%
%ADD54O,0.00984X0.06102*%
%ADD55R,0.00984X0.06102*%
%ADD56R,0.34252X0.34252*%
%ADD57R,0.02362X0.04331*%
%ADD58R,0.03150X0.01181*%
%ADD59R,0.01181X0.03642*%
%ADD60C,0.00787*%
%ADD61C,0.00984*%
%ADD62C,0.00394*%
%ADD63C,0.00300*%
%ADD64C,0.00500*%
%ADD65C,0.00299*%
%ADD66R,0.03162X0.09461*%
%ADD67R,0.04343X0.03556*%
%ADD68R,0.03556X0.04343*%
%ADD69R,0.04422X0.02375*%
%ADD70R,0.02375X0.02375*%
%ADD71R,0.05918X0.06706*%
%ADD72R,0.02375X0.02375*%
%ADD73R,0.04737X0.03556*%
%ADD74R,0.05131X0.04737*%
%ADD75R,0.04147X0.04737*%
%ADD76R,0.04147X0.04737*%
%ADD77R,0.01666X0.03556*%
%ADD78R,0.04737X0.05131*%
%ADD79R,0.04737X0.09855*%
%ADD80C,0.03800*%
%ADD81C,0.06300*%
%ADD82C,0.07099*%
%ADD83C,0.04737*%
%ADD84R,0.04737X0.04737*%
%ADD85R,0.04737X0.04737*%
%ADD86C,0.02200*%
%ADD87R,0.02375X0.04422*%
%ADD88R,0.04737X0.07887*%
%ADD89R,0.04422X0.03162*%
%ADD90R,0.03556X0.01666*%
%ADD91O,0.06902X0.01784*%
%ADD92O,0.01784X0.06902*%
%ADD93R,0.01784X0.06902*%
%ADD94R,0.35052X0.35052*%
%ADD95R,0.03162X0.05131*%
%ADD96R,0.03950X0.01981*%
%ADD97R,0.01981X0.04442*%
%ADD98C,0.01575*%
D24*
X0273711Y0345000D02*
G03*
X0273711Y0345000I-0000031J0000000D01*
G01*
X0242631Y0371769D02*
G03*
X0242631Y0371769I-0000031J0000000D01*
G01*
X0311300Y0342100D02*
X0317300D01*
X0311300Y0336100D02*
X0317300D01*
D60*
X0245025Y0400793D02*
X0248175D01*
X0272593Y0347525D02*
Y0350675D01*
X0265507D02*
X0272593D01*
X0265506Y0347525D02*
X0272593D01*
X0265507D02*
Y0350675D01*
X0262925Y0364043D02*
X0266075D01*
X0262925Y0356957D02*
Y0364043D01*
X0266075Y0356957D02*
Y0364043D01*
X0262925Y0356957D02*
X0266075D01*
X0245900Y0363201D02*
X0249837D01*
Y0370288D01*
X0245900Y0363201D02*
Y0370288D01*
X0249837D01*
X0330900Y0350200D02*
X0336800Y0356400D01*
X0292200Y0350200D02*
Y0356564D01*
Y0350300D02*
X0298400D01*
X0292300Y0395000D02*
X0298559D01*
X0292000Y0388641D02*
Y0395000D01*
X0292300D02*
X0298559D01*
X0330300D02*
X0336400D01*
X0330300D02*
X0336400D01*
X0336600Y0388441D02*
Y0394700D01*
X0341357Y0332057D02*
X0348443D01*
X0341357D02*
Y0354143D01*
X0348443D01*
Y0332057D02*
Y0354143D01*
X0269228Y0376894D02*
Y0377878D01*
X0268146Y0376894D02*
X0269228D01*
X0255547Y0376894D02*
X0256532D01*
X0255547D02*
Y0377976D01*
X0269228Y0389787D02*
Y0390870D01*
X0268342D02*
X0269228D01*
X0255547Y0389886D02*
Y0390870D01*
X0256630D01*
D61*
X0332592Y0347808D02*
G03*
X0332592Y0347808I-0000492J0000000D01*
G01*
D62*
X0260169Y0355972D02*
G03*
X0260169Y0355972I-0000394J0000000D01*
G01*
X0282297Y0379097D02*
G03*
X0282297Y0379097I-0000197J0000000D01*
G01*
X0277432Y0373938D02*
X0281368D01*
X0277432Y0378662D02*
X0281368D01*
X0274594Y0401945D02*
X0286405D01*
Y0395055D02*
Y0401945D01*
X0274594Y0395055D02*
X0286405D01*
X0274594D02*
Y0401945D01*
D63*
X0254000Y0389250D02*
Y0398950D01*
X0250200Y0389250D02*
Y0398950D01*
Y0389250D02*
X0254000D01*
X0250200Y0398950D02*
X0254000D01*
X0257100Y0344650D02*
Y0354350D01*
X0260900Y0344650D02*
Y0354350D01*
X0257100D02*
X0260900D01*
X0257100Y0344650D02*
X0260900D01*
X0251500D02*
X0255300D01*
X0251500Y0354350D02*
X0255300D01*
Y0344650D02*
Y0354350D01*
X0251500Y0344650D02*
Y0354350D01*
X0259250Y0364900D02*
Y0368700D01*
X0268950Y0364900D02*
Y0368700D01*
X0259250Y0364900D02*
X0268950D01*
X0259250Y0368700D02*
X0268950D01*
X0248966Y0403233D02*
X0249299Y0402900D01*
Y0402233D01*
X0248966Y0401900D01*
X0247633D01*
X0247300Y0402233D01*
Y0402900D01*
X0247633Y0403233D01*
X0248966Y0403899D02*
X0249299Y0404233D01*
Y0404899D01*
X0248966Y0405232D01*
X0248633D01*
X0248300Y0404899D01*
Y0404566D01*
Y0404899D01*
X0247966Y0405232D01*
X0247633D01*
X0247300Y0404899D01*
Y0404233D01*
X0247633Y0403899D01*
X0289299Y0396900D02*
X0287633D01*
X0287300Y0397233D01*
Y0397900D01*
X0287633Y0398233D01*
X0289299D01*
Y0400232D02*
Y0398899D01*
X0288300D01*
X0288633Y0399566D01*
Y0399899D01*
X0288300Y0400232D01*
X0287633D01*
X0287300Y0399899D01*
Y0399233D01*
X0287633Y0398899D01*
X0272699Y0357900D02*
Y0359233D01*
Y0358566D01*
X0270700D01*
Y0359899D02*
X0272699D01*
X0272033Y0360566D01*
X0272699Y0361232D01*
X0270700D01*
Y0361899D02*
X0272699D01*
Y0362898D01*
X0272366Y0363232D01*
X0271700D01*
X0271366Y0362898D01*
Y0361899D01*
X0266867Y0371066D02*
X0267200Y0371399D01*
X0267867D01*
X0268200Y0371066D01*
Y0369733D01*
X0267867Y0369400D01*
X0267200D01*
X0266867Y0369733D01*
X0266201Y0369400D02*
X0265534D01*
X0265867D01*
Y0371399D01*
X0266201Y0371066D01*
X0264534D02*
X0264201Y0371399D01*
X0263535D01*
X0263202Y0371066D01*
Y0370733D01*
X0263535Y0370400D01*
X0263868D01*
X0263535D01*
X0263202Y0370066D01*
Y0369733D01*
X0263535Y0369400D01*
X0264201D01*
X0264534Y0369733D01*
X0251633Y0342134D02*
X0251300Y0341801D01*
X0250633D01*
X0250300Y0342134D01*
Y0343467D01*
X0250633Y0343800D01*
X0251300D01*
X0251633Y0343467D01*
X0252299Y0343800D02*
X0252966D01*
X0252633D01*
Y0341801D01*
X0252299Y0342134D01*
X0255298Y0343800D02*
X0253965D01*
X0255298Y0342467D01*
Y0342134D01*
X0254965Y0341801D01*
X0254299D01*
X0253965Y0342134D01*
X0253266Y0400933D02*
X0253599Y0400600D01*
Y0399933D01*
X0253266Y0399600D01*
X0251933D01*
X0251600Y0399933D01*
Y0400600D01*
X0251933Y0400933D01*
X0251600Y0402599D02*
X0253599D01*
X0252600Y0401599D01*
Y0402932D01*
X0282320Y0381574D02*
Y0379908D01*
X0281987Y0379575D01*
X0281321D01*
X0280988Y0379908D01*
Y0381574D01*
X0279321Y0379575D02*
Y0381574D01*
X0280321Y0380574D01*
X0278988D01*
X0270099Y0351600D02*
X0268433D01*
X0268100Y0351933D01*
Y0352600D01*
X0268433Y0352933D01*
X0270099D01*
X0269766Y0353599D02*
X0270099Y0353933D01*
Y0354599D01*
X0269766Y0354932D01*
X0269433D01*
X0269100Y0354599D01*
Y0354266D01*
Y0354599D01*
X0268766Y0354932D01*
X0268433D01*
X0268100Y0354599D01*
Y0353933D01*
X0268433Y0353599D01*
X0258533Y0342234D02*
X0258200Y0341901D01*
X0257533D01*
X0257200Y0342234D01*
Y0343567D01*
X0257533Y0343900D01*
X0258200D01*
X0258533Y0343567D01*
X0259199Y0343900D02*
X0259866D01*
X0259533D01*
Y0341901D01*
X0259199Y0342234D01*
X0261865Y0343900D02*
Y0341901D01*
X0260865Y0342900D01*
X0262198D01*
X0312900Y0337801D02*
Y0338134D01*
X0313566Y0338800D01*
X0314233Y0338134D01*
Y0337801D01*
X0313566Y0338800D02*
Y0339800D01*
X0314899D02*
X0315566D01*
X0315233D01*
Y0337801D01*
X0314899Y0338134D01*
X0316100Y0368200D02*
X0318099D01*
X0317433Y0368866D01*
X0318099Y0369533D01*
X0316100D01*
X0317766Y0371532D02*
X0318099Y0371199D01*
Y0370533D01*
X0317766Y0370199D01*
X0316433D01*
X0316100Y0370533D01*
Y0371199D01*
X0316433Y0371532D01*
X0318099Y0372199D02*
X0316433D01*
X0316100Y0372532D01*
Y0373198D01*
X0316433Y0373532D01*
X0318099D01*
X0316100Y0374198D02*
Y0374865D01*
Y0374531D01*
X0318099D01*
X0317766Y0374198D01*
X0247033Y0366433D02*
X0248366D01*
X0248699Y0366100D01*
Y0365433D01*
X0248366Y0365100D01*
X0247033D01*
X0246700Y0365433D01*
Y0366100D01*
X0247366Y0365766D02*
X0246700Y0366433D01*
Y0366100D02*
X0247033Y0366433D01*
X0246700Y0368099D02*
X0248699D01*
X0247700Y0367099D01*
Y0368432D01*
X0235401Y0406700D02*
X0237067D01*
X0237400Y0406367D01*
Y0405700D01*
X0237067Y0405367D01*
X0235401D01*
X0237400Y0404701D02*
X0236067D01*
Y0403701D01*
X0236400Y0403368D01*
X0237400D01*
Y0402701D02*
Y0402035D01*
Y0402368D01*
X0236067D01*
Y0402701D01*
Y0401035D02*
X0237400Y0400369D01*
X0236067Y0399702D01*
X0237400Y0398036D02*
Y0398703D01*
X0237067Y0399036D01*
X0236400D01*
X0236067Y0398703D01*
Y0398036D01*
X0236400Y0397703D01*
X0236734D01*
Y0399036D01*
X0236067Y0397037D02*
X0237400D01*
X0236734D01*
X0236400Y0396703D01*
X0236067Y0396370D01*
Y0396037D01*
X0237400Y0395037D02*
Y0394037D01*
X0237067Y0393704D01*
X0236734Y0394037D01*
Y0394704D01*
X0236400Y0395037D01*
X0236067Y0394704D01*
Y0393704D01*
X0237400Y0393038D02*
Y0392371D01*
Y0392705D01*
X0236067D01*
Y0393038D01*
X0235734Y0391038D02*
X0236067D01*
Y0391372D01*
Y0390705D01*
Y0391038D01*
X0237067D01*
X0237400Y0390705D01*
X0236067Y0389705D02*
X0237067D01*
X0237400Y0389372D01*
Y0388373D01*
X0237733D01*
X0238066Y0388706D01*
Y0389039D01*
X0237400Y0388373D02*
X0236067D01*
X0235401Y0384707D02*
Y0385374D01*
X0235734Y0385707D01*
X0237067D01*
X0237400Y0385374D01*
Y0384707D01*
X0237067Y0384374D01*
X0235734D01*
X0235401Y0384707D01*
X0237400Y0383374D02*
X0235734D01*
X0236400D01*
Y0383707D01*
Y0383041D01*
Y0383374D01*
X0235734D01*
X0235401Y0383041D01*
X0240800Y0406700D02*
X0238801D01*
X0239467Y0406034D01*
X0238801Y0405367D01*
X0240800D01*
Y0404701D02*
Y0404034D01*
Y0404367D01*
X0239467D01*
Y0404701D01*
Y0401702D02*
Y0402701D01*
X0239800Y0403034D01*
X0240467D01*
X0240800Y0402701D01*
Y0401702D01*
X0238801Y0401035D02*
X0240800D01*
X0239800D01*
X0239467Y0400702D01*
Y0400035D01*
X0239800Y0399702D01*
X0240800D01*
Y0399036D02*
Y0398369D01*
Y0398703D01*
X0239467D01*
Y0399036D01*
X0241466Y0396703D02*
Y0396370D01*
X0241133Y0396037D01*
X0239467D01*
Y0397037D01*
X0239800Y0397370D01*
X0240467D01*
X0240800Y0397037D01*
Y0396037D01*
X0239467Y0395037D02*
Y0394371D01*
X0239800Y0394037D01*
X0240800D01*
Y0395037D01*
X0240467Y0395370D01*
X0240134Y0395037D01*
Y0394037D01*
X0240800Y0393371D02*
X0239467D01*
Y0392371D01*
X0239800Y0392038D01*
X0240800D01*
D64*
X0274000Y0326600D02*
Y0411500D01*
X0246500Y0327100D02*
Y0411400D01*
X0266900Y0396099D02*
X0264901Y0393100D01*
Y0396099D02*
X0266900Y0393100D01*
X0263901Y0396099D02*
Y0393100D01*
X0261902D01*
X0260902D02*
X0259902D01*
X0260402D01*
Y0396099D01*
X0260902Y0395599D01*
X0245000Y0349100D02*
X0241501D01*
X0242667Y0347934D01*
X0241501Y0346767D01*
X0245000D01*
Y0345018D02*
Y0343852D01*
X0244417Y0343269D01*
X0243251D01*
X0242667Y0343852D01*
Y0345018D01*
X0243251Y0345601D01*
X0244417D01*
X0245000Y0345018D01*
Y0341519D02*
Y0340353D01*
X0244417Y0339770D01*
X0243251D01*
X0242667Y0340353D01*
Y0341519D01*
X0243251Y0342102D01*
X0244417D01*
X0245000Y0341519D01*
Y0335104D02*
Y0333938D01*
Y0334521D01*
X0241501D01*
X0242084Y0335104D01*
X0245000Y0332189D02*
X0244417D01*
Y0331606D01*
X0245000D01*
Y0332189D01*
Y0326940D02*
Y0329273D01*
X0242667Y0326940D01*
X0242084D01*
X0241501Y0327524D01*
Y0328690D01*
X0242084Y0329273D01*
X0236784Y0351567D02*
X0236201Y0352151D01*
Y0353317D01*
X0236784Y0353900D01*
X0237367D01*
X0237951Y0353317D01*
Y0352151D01*
X0238534Y0351567D01*
X0239117D01*
X0239700Y0352151D01*
Y0353317D01*
X0239117Y0353900D01*
X0239700Y0350401D02*
X0236201D01*
Y0348652D01*
X0236784Y0348069D01*
X0237951D01*
X0238534Y0348652D01*
Y0350401D01*
X0239117Y0344570D02*
X0236784D01*
X0236201Y0345153D01*
Y0346319D01*
X0236784Y0346902D01*
X0239117D01*
X0239700Y0346319D01*
Y0345153D01*
X0238534Y0345736D02*
X0239700Y0344570D01*
Y0345153D02*
X0239117Y0344570D01*
X0239700Y0343403D02*
X0236201D01*
Y0341654D01*
X0236784Y0341071D01*
X0237951D01*
X0238534Y0341654D01*
Y0343403D01*
Y0342237D02*
X0239700Y0341071D01*
X0236201Y0336406D02*
X0239700D01*
Y0334073D01*
X0237367Y0332324D02*
Y0331157D01*
X0237951Y0330574D01*
X0239700D01*
Y0332324D01*
X0239117Y0332907D01*
X0238534Y0332324D01*
Y0330574D01*
X0236201Y0329408D02*
X0239700D01*
Y0327659D01*
X0239117Y0327075D01*
X0238534D01*
X0237951D01*
X0237367Y0327659D01*
Y0329408D01*
D98*
X0258500Y0392642D02*
X0258500D01*
M02*
