%FSAX25Y25*%
%MOIN*%
G70*
G01*
G75*
G04 Layer_Color=2752767*
%ADD10R,0.02362X0.08661*%
%ADD11R,0.03543X0.02756*%
%ADD12R,0.02756X0.03543*%
%ADD13R,0.03622X0.01575*%
%ADD14R,0.01575X0.01575*%
%ADD15R,0.05118X0.05906*%
%ADD16R,0.01575X0.01575*%
%ADD17R,0.03937X0.02756*%
%ADD18R,0.04331X0.03937*%
%ADD19R,0.03347X0.03937*%
%ADD20R,0.03347X0.03937*%
%ADD21R,0.00866X0.02756*%
%ADD22R,0.03937X0.04331*%
%ADD23R,0.03937X0.09055*%
%ADD24C,0.01000*%
%ADD25C,0.00800*%
%ADD26C,0.01200*%
%ADD27C,0.01500*%
%ADD28C,0.02400*%
%ADD29C,0.04000*%
%ADD30C,0.02000*%
%ADD31C,0.02500*%
%ADD32C,0.03543*%
%ADD33C,0.03000*%
%ADD34C,0.01400*%
%ADD35C,0.03000*%
%ADD36C,0.05500*%
%ADD37C,0.06299*%
%ADD38C,0.03937*%
%ADD39R,0.03937X0.03937*%
%ADD40R,0.03937X0.03937*%
%ADD41C,0.01500*%
%ADD42C,0.01300*%
%ADD43C,0.02000*%
%ADD44C,0.02400*%
%ADD45C,0.01400*%
%ADD46C,0.01800*%
G04:AMPARAMS|DCode=47|XSize=193.75mil|YSize=195.16mil|CornerRadius=0mil|HoleSize=0mil|Usage=FLASHONLY|Rotation=45.000|XOffset=0mil|YOffset=0mil|HoleType=Round|Shape=Rectangle|*
%AMROTATEDRECTD47*
4,1,4,0.00050,-0.13750,-0.13750,0.00050,-0.00050,0.13750,0.13750,-0.00050,0.00050,-0.13750,0.0*
%
%ADD47ROTATEDRECTD47*%

%ADD48R,0.05309X0.05255*%
%ADD49R,0.01575X0.03622*%
%ADD50R,0.03937X0.07087*%
%ADD51R,0.03622X0.02362*%
%ADD52R,0.02756X0.00866*%
%ADD53O,0.06102X0.00984*%
%ADD54O,0.00984X0.06102*%
%ADD55R,0.00984X0.06102*%
%ADD56R,0.34252X0.34252*%
%ADD57R,0.02362X0.04331*%
%ADD58R,0.03150X0.01181*%
%ADD59R,0.01181X0.03642*%
%ADD60C,0.00787*%
%ADD61C,0.00984*%
%ADD62C,0.00394*%
%ADD63C,0.00300*%
%ADD64C,0.00500*%
%ADD65C,0.00299*%
%ADD66R,0.03162X0.09461*%
%ADD67R,0.04343X0.03556*%
%ADD68R,0.03556X0.04343*%
%ADD69R,0.04422X0.02375*%
%ADD70R,0.02375X0.02375*%
%ADD71R,0.05918X0.06706*%
%ADD72R,0.02375X0.02375*%
%ADD73R,0.04737X0.03556*%
%ADD74R,0.05131X0.04737*%
%ADD75R,0.04147X0.04737*%
%ADD76R,0.04147X0.04737*%
%ADD77R,0.01666X0.03556*%
%ADD78R,0.04737X0.05131*%
%ADD79R,0.04737X0.09855*%
%ADD80C,0.03800*%
%ADD81C,0.06300*%
%ADD82C,0.07099*%
%ADD83C,0.04737*%
%ADD84R,0.04737X0.04737*%
%ADD85R,0.04737X0.04737*%
%ADD86C,0.02200*%
%ADD87R,0.02375X0.04422*%
%ADD88R,0.04737X0.07887*%
%ADD89R,0.04422X0.03162*%
%ADD90R,0.03556X0.01666*%
%ADD91O,0.06902X0.01784*%
%ADD92O,0.01784X0.06902*%
%ADD93R,0.01784X0.06902*%
%ADD94R,0.35052X0.35052*%
%ADD95R,0.03162X0.05131*%
%ADD96R,0.03950X0.01981*%
%ADD97R,0.01981X0.04442*%
%ADD98C,0.01575*%
%ADD99C,0.00200*%
%ADD100C,0.00667*%
D64*
X0245000Y0341600D02*
Y0345600D01*
X0249000D01*
Y0341600D01*
X0245000D01*
X0277800Y0382139D02*
X0275800Y0386139D01*
X0279800D01*
X0277800Y0382139D01*
Y0362061D02*
X0275800Y0366061D01*
X0279800D01*
X0277800Y0362061D01*
X0242500Y0349200D02*
Y0353200D01*
X0246500D01*
Y0349200D01*
X0242500D01*
X0344900Y0408500D02*
X0345900Y0409500D01*
X0346900D01*
X0345900Y0410500D01*
X0346900Y0411500D01*
X0345900D01*
X0344900Y0412500D01*
X0343900Y0411500D01*
X0342900D01*
X0343900Y0410500D01*
X0342900Y0409500D01*
X0343900D01*
X0344900Y0408500D01*
X0339900D02*
X0340900Y0409500D01*
X0341900D01*
X0340900Y0410500D01*
X0341900Y0411500D01*
X0340900D01*
X0339900Y0412500D01*
X0338900Y0411500D01*
X0337900D01*
X0338900Y0410500D01*
X0337900Y0409500D01*
X0338900D01*
X0339900Y0408500D01*
X0334900D02*
X0335900Y0409500D01*
X0336900D01*
X0335900Y0410500D01*
X0336900Y0411500D01*
X0335900D01*
X0334900Y0412500D01*
X0333900Y0411500D01*
X0332900D01*
X0333900Y0410500D01*
X0332900Y0409500D01*
X0333900D01*
X0334900Y0408500D01*
X0329900D02*
X0330900Y0409500D01*
X0331900D01*
X0330900Y0410500D01*
X0331900Y0411500D01*
X0330900D01*
X0329900Y0412500D01*
X0328900Y0411500D01*
X0327900D01*
X0328900Y0410500D01*
X0327900Y0409500D01*
X0328900D01*
X0329900Y0408500D01*
X0324900D02*
X0325900Y0409500D01*
X0326900D01*
X0325900Y0410500D01*
X0326900Y0411500D01*
X0325900D01*
X0324900Y0412500D01*
X0323900Y0411500D01*
X0322900D01*
X0323900Y0410500D01*
X0322900Y0409500D01*
X0323900D01*
X0324900Y0408500D01*
X0319900D02*
X0320900Y0409500D01*
X0321900D01*
X0320900Y0410500D01*
X0321900Y0411500D01*
X0320900D01*
X0319900Y0412500D01*
X0318900Y0411500D01*
X0317900D01*
X0318900Y0410500D01*
X0317900Y0409500D01*
X0318900D01*
X0319900Y0408500D01*
X0314900D02*
X0315900Y0409500D01*
X0316900D01*
X0315900Y0410500D01*
X0316900Y0411500D01*
X0315900D01*
X0314900Y0412500D01*
X0313900Y0411500D01*
X0312900D01*
X0313900Y0410500D01*
X0312900Y0409500D01*
X0313900D01*
X0314900Y0408500D01*
X0309900D02*
X0310900Y0409500D01*
X0311900D01*
X0310900Y0410500D01*
X0311900Y0411500D01*
X0310900D01*
X0309900Y0412500D01*
X0308900Y0411500D01*
X0307900D01*
X0308900Y0410500D01*
X0307900Y0409500D01*
X0308900D01*
X0309900Y0408500D01*
X0304900D02*
X0305900Y0409500D01*
X0306900D01*
X0305900Y0410500D01*
X0306900Y0411500D01*
X0305900D01*
X0304900Y0412500D01*
X0303900Y0411500D01*
X0302900D01*
X0303900Y0410500D01*
X0302900Y0409500D01*
X0303900D01*
X0304900Y0408500D01*
X0299900D02*
X0300900Y0409500D01*
X0301900D01*
X0300900Y0410500D01*
X0301900Y0411500D01*
X0300900D01*
X0299900Y0412500D01*
X0298900Y0411500D01*
X0297900D01*
X0298900Y0410500D01*
X0297900Y0409500D01*
X0298900D01*
X0299900Y0408500D01*
X0294900D02*
X0295900Y0409500D01*
X0296900D01*
X0295900Y0410500D01*
X0296900Y0411500D01*
X0295900D01*
X0294900Y0412500D01*
X0293900Y0411500D01*
X0292900D01*
X0293900Y0410500D01*
X0292900Y0409500D01*
X0293900D01*
X0294900Y0408500D01*
X0289900D02*
X0290900Y0409500D01*
X0291900D01*
X0290900Y0410500D01*
X0291900Y0411500D01*
X0290900D01*
X0289900Y0412500D01*
X0288900Y0411500D01*
X0287900D01*
X0288900Y0410500D01*
X0287900Y0409500D01*
X0288900D01*
X0289900Y0408500D01*
X0284900D02*
X0285900Y0409500D01*
X0286900D01*
X0285900Y0410500D01*
X0286900Y0411500D01*
X0285900D01*
X0284900Y0412500D01*
X0283900Y0411500D01*
X0282900D01*
X0283900Y0410500D01*
X0282900Y0409500D01*
X0283900D01*
X0284900Y0408500D01*
X0279900D02*
X0280900Y0409500D01*
X0281900D01*
X0280900Y0410500D01*
X0281900Y0411500D01*
X0280900D01*
X0279900Y0412500D01*
X0278900Y0411500D01*
X0277900D01*
X0278900Y0410500D01*
X0277900Y0409500D01*
X0278900D01*
X0279900Y0408500D01*
X0344900Y0326600D02*
X0345900Y0327600D01*
X0346900D01*
X0345900Y0328600D01*
X0346900Y0329600D01*
X0345900D01*
X0344900Y0330600D01*
X0343900Y0329600D01*
X0342900D01*
X0343900Y0328600D01*
X0342900Y0327600D01*
X0343900D01*
X0344900Y0326600D01*
X0339900D02*
X0340900Y0327600D01*
X0341900D01*
X0340900Y0328600D01*
X0341900Y0329600D01*
X0340900D01*
X0339900Y0330600D01*
X0338900Y0329600D01*
X0337900D01*
X0338900Y0328600D01*
X0337900Y0327600D01*
X0338900D01*
X0339900Y0326600D01*
X0334900D02*
X0335900Y0327600D01*
X0336900D01*
X0335900Y0328600D01*
X0336900Y0329600D01*
X0335900D01*
X0334900Y0330600D01*
X0333900Y0329600D01*
X0332900D01*
X0333900Y0328600D01*
X0332900Y0327600D01*
X0333900D01*
X0334900Y0326600D01*
X0329900D02*
X0330900Y0327600D01*
X0331900D01*
X0330900Y0328600D01*
X0331900Y0329600D01*
X0330900D01*
X0329900Y0330600D01*
X0328900Y0329600D01*
X0327900D01*
X0328900Y0328600D01*
X0327900Y0327600D01*
X0328900D01*
X0329900Y0326600D01*
X0324900D02*
X0325900Y0327600D01*
X0326900D01*
X0325900Y0328600D01*
X0326900Y0329600D01*
X0325900D01*
X0324900Y0330600D01*
X0323900Y0329600D01*
X0322900D01*
X0323900Y0328600D01*
X0322900Y0327600D01*
X0323900D01*
X0324900Y0326600D01*
X0319900D02*
X0320900Y0327600D01*
X0321900D01*
X0320900Y0328600D01*
X0321900Y0329600D01*
X0320900D01*
X0319900Y0330600D01*
X0318900Y0329600D01*
X0317900D01*
X0318900Y0328600D01*
X0317900Y0327600D01*
X0318900D01*
X0319900Y0326600D01*
X0314900D02*
X0315900Y0327600D01*
X0316900D01*
X0315900Y0328600D01*
X0316900Y0329600D01*
X0315900D01*
X0314900Y0330600D01*
X0313900Y0329600D01*
X0312900D01*
X0313900Y0328600D01*
X0312900Y0327600D01*
X0313900D01*
X0314900Y0326600D01*
X0309900D02*
X0310900Y0327600D01*
X0311900D01*
X0310900Y0328600D01*
X0311900Y0329600D01*
X0310900D01*
X0309900Y0330600D01*
X0308900Y0329600D01*
X0307900D01*
X0308900Y0328600D01*
X0307900Y0327600D01*
X0308900D01*
X0309900Y0326600D01*
X0304900D02*
X0305900Y0327600D01*
X0306900D01*
X0305900Y0328600D01*
X0306900Y0329600D01*
X0305900D01*
X0304900Y0330600D01*
X0303900Y0329600D01*
X0302900D01*
X0303900Y0328600D01*
X0302900Y0327600D01*
X0303900D01*
X0304900Y0326600D01*
X0299900D02*
X0300900Y0327600D01*
X0301900D01*
X0300900Y0328600D01*
X0301900Y0329600D01*
X0300900D01*
X0299900Y0330600D01*
X0298900Y0329600D01*
X0297900D01*
X0298900Y0328600D01*
X0297900Y0327600D01*
X0298900D01*
X0299900Y0326600D01*
X0294900D02*
X0295900Y0327600D01*
X0296900D01*
X0295900Y0328600D01*
X0296900Y0329600D01*
X0295900D01*
X0294900Y0330600D01*
X0293900Y0329600D01*
X0292900D01*
X0293900Y0328600D01*
X0292900Y0327600D01*
X0293900D01*
X0294900Y0326600D01*
X0289900D02*
X0290900Y0327600D01*
X0291900D01*
X0290900Y0328600D01*
X0291900Y0329600D01*
X0290900D01*
X0289900Y0330600D01*
X0288900Y0329600D01*
X0287900D01*
X0288900Y0328600D01*
X0287900Y0327600D01*
X0288900D01*
X0289900Y0326600D01*
X0284900D02*
X0285900Y0327600D01*
X0286900D01*
X0285900Y0328600D01*
X0286900Y0329600D01*
X0285900D01*
X0284900Y0330600D01*
X0283900Y0329600D01*
X0282900D01*
X0283900Y0328600D01*
X0282900Y0327600D01*
X0283900D01*
X0284900Y0326600D01*
X0279900D02*
X0280900Y0327600D01*
X0281900D01*
X0280900Y0328600D01*
X0281900Y0329600D01*
X0280900D01*
X0279900Y0330600D01*
X0278900Y0329600D01*
X0277900D01*
X0278900Y0328600D01*
X0277900Y0327600D01*
X0278900D01*
X0279900Y0326600D01*
X0344900Y0333600D02*
X0345900Y0334600D01*
X0346900D01*
X0345900Y0335600D01*
X0346900Y0336600D01*
X0345900D01*
X0344900Y0337600D01*
X0343900Y0336600D01*
X0342900D01*
X0343900Y0335600D01*
X0342900Y0334600D01*
X0343900D01*
X0344900Y0333600D01*
Y0338600D02*
X0345900Y0339600D01*
X0346900D01*
X0345900Y0340600D01*
X0346900Y0341600D01*
X0345900D01*
X0344900Y0342600D01*
X0343900Y0341600D01*
X0342900D01*
X0343900Y0340600D01*
X0342900Y0339600D01*
X0343900D01*
X0344900Y0338600D01*
Y0343600D02*
X0345900Y0344600D01*
X0346900D01*
X0345900Y0345600D01*
X0346900Y0346600D01*
X0345900D01*
X0344900Y0347600D01*
X0343900Y0346600D01*
X0342900D01*
X0343900Y0345600D01*
X0342900Y0344600D01*
X0343900D01*
X0344900Y0343600D01*
Y0348600D02*
X0345900Y0349600D01*
X0346900D01*
X0345900Y0350600D01*
X0346900Y0351600D01*
X0345900D01*
X0344900Y0352600D01*
X0343900Y0351600D01*
X0342900D01*
X0343900Y0350600D01*
X0342900Y0349600D01*
X0343900D01*
X0344900Y0348600D01*
Y0355100D02*
X0345900Y0356100D01*
X0346900D01*
X0345900Y0357100D01*
X0346900Y0358100D01*
X0345900D01*
X0344900Y0359100D01*
X0343900Y0358100D01*
X0342900D01*
X0343900Y0357100D01*
X0342900Y0356100D01*
X0343900D01*
X0344900Y0355100D01*
Y0360100D02*
X0345900Y0361100D01*
X0346900D01*
X0345900Y0362100D01*
X0346900Y0363100D01*
X0345900D01*
X0344900Y0364100D01*
X0343900Y0363100D01*
X0342900D01*
X0343900Y0362100D01*
X0342900Y0361100D01*
X0343900D01*
X0344900Y0360100D01*
Y0365100D02*
X0345900Y0366100D01*
X0346900D01*
X0345900Y0367100D01*
X0346900Y0368100D01*
X0345900D01*
X0344900Y0369100D01*
X0343900Y0368100D01*
X0342900D01*
X0343900Y0367100D01*
X0342900Y0366100D01*
X0343900D01*
X0344900Y0365100D01*
Y0370100D02*
X0345900Y0371100D01*
X0346900D01*
X0345900Y0372100D01*
X0346900Y0373100D01*
X0345900D01*
X0344900Y0374100D01*
X0343900Y0373100D01*
X0342900D01*
X0343900Y0372100D01*
X0342900Y0371100D01*
X0343900D01*
X0344900Y0370100D01*
Y0375100D02*
X0345900Y0376100D01*
X0346900D01*
X0345900Y0377100D01*
X0346900Y0378100D01*
X0345900D01*
X0344900Y0379100D01*
X0343900Y0378100D01*
X0342900D01*
X0343900Y0377100D01*
X0342900Y0376100D01*
X0343900D01*
X0344900Y0375100D01*
Y0380100D02*
X0345900Y0381100D01*
X0346900D01*
X0345900Y0382100D01*
X0346900Y0383100D01*
X0345900D01*
X0344900Y0384100D01*
X0343900Y0383100D01*
X0342900D01*
X0343900Y0382100D01*
X0342900Y0381100D01*
X0343900D01*
X0344900Y0380100D01*
Y0385100D02*
X0345900Y0386100D01*
X0346900D01*
X0345900Y0387100D01*
X0346900Y0388100D01*
X0345900D01*
X0344900Y0389100D01*
X0343900Y0388100D01*
X0342900D01*
X0343900Y0387100D01*
X0342900Y0386100D01*
X0343900D01*
X0344900Y0385100D01*
Y0390100D02*
X0345900Y0391100D01*
X0346900D01*
X0345900Y0392100D01*
X0346900Y0393100D01*
X0345900D01*
X0344900Y0394100D01*
X0343900Y0393100D01*
X0342900D01*
X0343900Y0392100D01*
X0342900Y0391100D01*
X0343900D01*
X0344900Y0390100D01*
Y0395100D02*
X0345900Y0396100D01*
X0346900D01*
X0345900Y0397100D01*
X0346900Y0398100D01*
X0345900D01*
X0344900Y0399100D01*
X0343900Y0398100D01*
X0342900D01*
X0343900Y0397100D01*
X0342900Y0396100D01*
X0343900D01*
X0344900Y0395100D01*
Y0400100D02*
X0345900Y0401100D01*
X0346900D01*
X0345900Y0402100D01*
X0346900Y0403100D01*
X0345900D01*
X0344900Y0404100D01*
X0343900Y0403100D01*
X0342900D01*
X0343900Y0402100D01*
X0342900Y0401100D01*
X0343900D01*
X0344900Y0400100D01*
X0254300Y0386700D02*
X0255300Y0388700D01*
X0254300Y0390700D01*
X0256300Y0389700D01*
X0258300Y0390700D01*
X0257300Y0388700D01*
X0258300Y0386700D01*
X0256300Y0387700D01*
X0254300Y0386700D01*
X0274300Y0387500D02*
X0275300Y0389500D01*
X0274300Y0391500D01*
X0276300Y0390500D01*
X0278300Y0391500D01*
X0277300Y0389500D01*
X0278300Y0387500D01*
X0276300Y0388500D01*
X0274300Y0387500D01*
X0255800Y0394000D02*
Y0398000D01*
X0259800D01*
Y0394000D01*
X0255800D01*
X0268400Y0398300D02*
Y0397300D01*
X0270400D01*
Y0398300D01*
X0271400D01*
Y0400300D01*
X0270400D01*
Y0401300D01*
X0268400D01*
Y0400300D01*
X0267400D01*
Y0398300D01*
X0268400D01*
X0333200Y0366800D02*
Y0365800D01*
X0335200D01*
Y0366800D01*
X0336200D01*
Y0368800D01*
X0335200D01*
Y0369800D01*
X0333200D01*
Y0368800D01*
X0332200D01*
Y0366800D01*
X0333200D01*
X0337400Y0376500D02*
Y0375500D01*
X0339400D01*
Y0376500D01*
X0340400D01*
Y0378500D01*
X0339400D01*
Y0379500D01*
X0337400D01*
Y0378500D01*
X0336400D01*
Y0376500D01*
X0337400D01*
X0334700Y0368700D02*
Y0367700D01*
X0336700D01*
Y0368700D01*
X0337700D01*
Y0370700D01*
X0336700D01*
Y0371700D01*
X0334700D01*
Y0370700D01*
X0333700D01*
Y0368700D01*
X0334700D01*
X0337500Y0388800D02*
X0338500D01*
X0339500Y0389800D01*
X0340500Y0388800D01*
X0341500D01*
Y0389800D01*
X0340500Y0390800D01*
X0341500Y0391800D01*
Y0392800D01*
X0340500D01*
X0339500Y0391800D01*
X0338500Y0392800D01*
X0337500D01*
Y0391800D01*
X0338500Y0390800D01*
X0337500Y0389800D01*
Y0388800D01*
X0306400Y0397600D02*
Y0396600D01*
X0308400D01*
Y0397600D01*
X0309400D01*
Y0399600D01*
X0308400D01*
Y0400600D01*
X0306400D01*
Y0399600D01*
X0305400D01*
Y0397600D01*
X0306400D01*
X0326300D02*
Y0396600D01*
X0328300D01*
Y0397600D01*
X0329300D01*
Y0399600D01*
X0328300D01*
Y0400600D01*
X0326300D01*
Y0399600D01*
X0325300D01*
Y0397600D01*
X0326300D01*
X0308500D02*
Y0396600D01*
X0310500D01*
Y0397600D01*
X0311500D01*
Y0399600D01*
X0310500D01*
Y0400600D01*
X0308500D01*
Y0399600D01*
X0307500D01*
Y0397600D01*
X0308500D01*
X0306500Y0381900D02*
Y0380900D01*
X0308500D01*
Y0381900D01*
X0309500D01*
Y0383900D01*
X0308500D01*
Y0384900D01*
X0306500D01*
Y0383900D01*
X0305500D01*
Y0381900D01*
X0306500D01*
X0324300Y0397600D02*
Y0396600D01*
X0326300D01*
Y0397600D01*
X0327300D01*
Y0399600D01*
X0326300D01*
Y0400600D01*
X0324300D01*
Y0399600D01*
X0323300D01*
Y0397600D01*
X0324300D01*
X0320200D02*
Y0396600D01*
X0322200D01*
Y0397600D01*
X0323200D01*
Y0399600D01*
X0322200D01*
Y0400600D01*
X0320200D01*
Y0399600D01*
X0319200D01*
Y0397600D01*
X0320200D01*
X0322300D02*
Y0396600D01*
X0324300D01*
Y0397600D01*
X0325300D01*
Y0399600D01*
X0324300D01*
Y0400600D01*
X0322300D01*
Y0399600D01*
X0321300D01*
Y0397600D01*
X0322300D01*
X0264400Y0344300D02*
X0266400Y0346300D01*
X0268400Y0344300D01*
X0266400Y0342300D01*
X0264400Y0344300D01*
X0261600Y0357000D02*
Y0356000D01*
X0263600D01*
Y0357000D01*
X0264600D01*
Y0359000D01*
X0263600D01*
Y0360000D01*
X0261600D01*
Y0359000D01*
X0260600D01*
Y0357000D01*
X0261600D01*
X0261900Y0368700D02*
Y0367700D01*
X0263900D01*
Y0368700D01*
X0264900D01*
Y0370700D01*
X0263900D01*
Y0371700D01*
X0261900D01*
Y0370700D01*
X0260900D01*
Y0368700D01*
X0261900D01*
X0260700Y0351200D02*
X0261700Y0353200D01*
X0260700Y0355200D01*
X0262700Y0354200D01*
X0264700Y0355200D01*
X0263700Y0353200D01*
X0264700Y0351200D01*
X0262700Y0352200D01*
X0260700Y0351200D01*
X0295400Y0337600D02*
X0296400Y0339600D01*
X0295400Y0341600D01*
X0297400Y0340600D01*
X0299400Y0341600D01*
X0298400Y0339600D01*
X0299400Y0337600D01*
X0297400Y0338600D01*
X0295400Y0337600D01*
X0319100Y0355300D02*
X0320100Y0357300D01*
X0319100Y0359300D01*
X0321100Y0358300D01*
X0323100Y0359300D01*
X0322100Y0357300D01*
X0323100Y0355300D01*
X0321100Y0356300D01*
X0319100Y0355300D01*
X0303700Y0359200D02*
Y0358200D01*
X0305700D01*
Y0359200D01*
X0306700D01*
Y0361200D01*
X0305700D01*
Y0362200D01*
X0303700D01*
Y0361200D01*
X0302700D01*
Y0359200D01*
X0303700D01*
X0315600Y0383600D02*
Y0387600D01*
X0319600D01*
Y0383600D01*
X0315600D01*
X0331200Y0347200D02*
Y0351200D01*
X0335200D01*
Y0347200D01*
X0331200D01*
X0269700Y0334400D02*
X0270700Y0336400D01*
X0269700Y0338400D01*
X0271700Y0337400D01*
X0273700Y0338400D01*
X0272700Y0336400D01*
X0273700Y0334400D01*
X0271700Y0335400D01*
X0269700Y0334400D01*
X0334700Y0364700D02*
Y0363700D01*
X0336700D01*
Y0364700D01*
X0337700D01*
Y0366700D01*
X0336700D01*
Y0367700D01*
X0334700D01*
Y0366700D01*
X0333700D01*
Y0364700D01*
X0334700D01*
X0290300Y0360700D02*
Y0359700D01*
X0292300D01*
Y0360700D01*
X0293300D01*
Y0362700D01*
X0292300D01*
Y0363700D01*
X0290300D01*
Y0362700D01*
X0289300D01*
Y0360700D01*
X0290300D01*
X0287900Y0362800D02*
Y0361800D01*
X0289900D01*
Y0362800D01*
X0290900D01*
Y0364800D01*
X0289900D01*
Y0365800D01*
X0287900D01*
Y0364800D01*
X0286900D01*
Y0362800D01*
X0287900D01*
X0284400Y0363300D02*
Y0362300D01*
X0286400D01*
Y0363300D01*
X0287400D01*
Y0365300D01*
X0286400D01*
Y0366300D01*
X0284400D01*
Y0365300D01*
X0283400D01*
Y0363300D01*
X0284400D01*
X0290700Y0354400D02*
Y0353400D01*
X0292700D01*
Y0354400D01*
X0293700D01*
Y0356400D01*
X0292700D01*
Y0357400D01*
X0290700D01*
Y0356400D01*
X0289700D01*
Y0354400D01*
X0290700D01*
X0285300Y0361200D02*
Y0360200D01*
X0287300D01*
Y0361200D01*
X0288300D01*
Y0363200D01*
X0287300D01*
Y0364200D01*
X0285300D01*
Y0363200D01*
X0284300D01*
Y0361200D01*
X0285300D01*
X0293800Y0358800D02*
Y0357800D01*
X0295800D01*
Y0358800D01*
X0296800D01*
Y0360800D01*
X0295800D01*
Y0361800D01*
X0293800D01*
Y0360800D01*
X0292800D01*
Y0358800D01*
X0293800D01*
X0310400Y0343600D02*
Y0342600D01*
X0312400D01*
Y0343600D01*
X0313400D01*
Y0345600D01*
X0312400D01*
Y0346600D01*
X0310400D01*
Y0345600D01*
X0309400D01*
Y0343600D01*
X0310400D01*
X0300400Y0345100D02*
Y0344100D01*
X0302400D01*
Y0345100D01*
X0303400D01*
Y0347100D01*
X0302400D01*
Y0348100D01*
X0300400D01*
Y0347100D01*
X0299400D01*
Y0345100D01*
X0300400D01*
X0299200Y0336600D02*
Y0335600D01*
X0301200D01*
Y0336600D01*
X0302200D01*
Y0338600D01*
X0301200D01*
Y0339600D01*
X0299200D01*
Y0338600D01*
X0298200D01*
Y0336600D01*
X0299200D01*
X0302600Y0345300D02*
Y0344300D01*
X0304600D01*
Y0345300D01*
X0305600D01*
Y0347300D01*
X0304600D01*
Y0348300D01*
X0302600D01*
Y0347300D01*
X0301600D01*
Y0345300D01*
X0302600D01*
X0285000Y0373900D02*
Y0372900D01*
X0287000D01*
Y0373900D01*
X0288000D01*
Y0375900D01*
X0287000D01*
Y0376900D01*
X0285000D01*
Y0375900D01*
X0284000D01*
Y0373900D01*
X0285000D01*
X0289200Y0378500D02*
Y0377500D01*
X0291200D01*
Y0378500D01*
X0292200D01*
Y0380500D01*
X0291200D01*
Y0381500D01*
X0289200D01*
Y0380500D01*
X0288200D01*
Y0378500D01*
X0289200D01*
X0273000Y0374800D02*
Y0373800D01*
X0275000D01*
Y0374800D01*
X0276000D01*
Y0376800D01*
X0275000D01*
Y0377800D01*
X0273000D01*
Y0376800D01*
X0272000D01*
Y0374800D01*
X0273000D01*
X0274900Y0367600D02*
Y0366600D01*
X0276900D01*
Y0367600D01*
X0277900D01*
Y0369600D01*
X0276900D01*
Y0370600D01*
X0274900D01*
Y0369600D01*
X0273900D01*
Y0367600D01*
X0274900D01*
X0274728Y0369750D02*
Y0368750D01*
X0276728D01*
Y0369750D01*
X0277728D01*
Y0371750D01*
X0276728D01*
Y0372750D01*
X0274728D01*
Y0371750D01*
X0273728D01*
Y0369750D01*
X0274728D01*
X0276700Y0371800D02*
Y0370800D01*
X0278700D01*
Y0371800D01*
X0279700D01*
Y0373800D01*
X0278700D01*
Y0374800D01*
X0276700D01*
Y0373800D01*
X0275700D01*
Y0371800D01*
X0276700D01*
X0267500Y0387900D02*
Y0386900D01*
X0269500D01*
Y0387900D01*
X0270500D01*
Y0389900D01*
X0269500D01*
Y0390900D01*
X0267500D01*
Y0389900D01*
X0266500D01*
Y0387900D01*
X0267500D01*
X0289700Y0386400D02*
Y0385400D01*
X0291700D01*
Y0386400D01*
X0292700D01*
Y0388400D01*
X0291700D01*
Y0389400D01*
X0289700D01*
Y0388400D01*
X0288700D01*
Y0386400D01*
X0289700D01*
X0304500Y0399400D02*
Y0398400D01*
X0306500D01*
Y0399400D01*
X0307500D01*
Y0401400D01*
X0306500D01*
Y0402400D01*
X0304500D01*
Y0401400D01*
X0303500D01*
Y0399400D01*
X0304500D01*
X0314500Y0397500D02*
Y0396500D01*
X0316500D01*
Y0397500D01*
X0317500D01*
Y0399500D01*
X0316500D01*
Y0400500D01*
X0314500D01*
Y0399500D01*
X0313500D01*
Y0397500D01*
X0314500D01*
X0310321Y0395315D02*
Y0394315D01*
X0312321D01*
Y0395315D01*
X0313321D01*
Y0397315D01*
X0312321D01*
Y0398315D01*
X0310321D01*
Y0397315D01*
X0309321D01*
Y0395315D01*
X0310321D01*
X0300600Y0398000D02*
Y0397000D01*
X0302600D01*
Y0398000D01*
X0303600D01*
Y0400000D01*
X0302600D01*
Y0401000D01*
X0300600D01*
Y0400000D01*
X0299600D01*
Y0398000D01*
X0300600D01*
X0287600Y0391900D02*
Y0390900D01*
X0289600D01*
Y0391900D01*
X0290600D01*
Y0393900D01*
X0289600D01*
Y0394900D01*
X0287600D01*
Y0393900D01*
X0286600D01*
Y0391900D01*
X0287600D01*
X0298400Y0391500D02*
Y0390500D01*
X0300400D01*
Y0391500D01*
X0301400D01*
Y0393500D01*
X0300400D01*
Y0394500D01*
X0298400D01*
Y0393500D01*
X0297400D01*
Y0391500D01*
X0298400D01*
X0267900Y0392200D02*
Y0391200D01*
X0269900D01*
Y0392200D01*
X0270900D01*
Y0394200D01*
X0269900D01*
Y0395200D01*
X0267900D01*
Y0394200D01*
X0266900D01*
Y0392200D01*
X0267900D01*
X0249100Y0383800D02*
X0250100Y0385800D01*
X0249100Y0387800D01*
X0251100Y0386800D01*
X0253100Y0387800D01*
X0252100Y0385800D01*
X0253100Y0383800D01*
X0251100Y0384800D01*
X0249100Y0383800D01*
X0262100Y0383700D02*
Y0382700D01*
X0264100D01*
Y0383700D01*
X0265100D01*
Y0385700D01*
X0264100D01*
Y0386700D01*
X0262100D01*
Y0385700D01*
X0261100D01*
Y0383700D01*
X0262100D01*
X0315200Y0342500D02*
X0316200D01*
X0317200Y0343500D01*
X0318200Y0342500D01*
X0319200D01*
Y0343500D01*
X0318200Y0344500D01*
X0319200Y0345500D01*
Y0346500D01*
X0318200D01*
X0317200Y0345500D01*
X0316200Y0346500D01*
X0315200D01*
Y0345500D01*
X0316200Y0344500D01*
X0315200Y0343500D01*
Y0342500D01*
X0331700Y0345200D02*
Y0344200D01*
X0333700D01*
Y0345200D01*
X0334700D01*
Y0347200D01*
X0333700D01*
Y0348200D01*
X0331700D01*
Y0347200D01*
X0330700D01*
Y0345200D01*
X0331700D01*
X0276300Y0397600D02*
X0277300Y0399600D01*
X0276300Y0401600D01*
X0278300Y0400600D01*
X0280300Y0401600D01*
X0279300Y0399600D01*
X0280300Y0397600D01*
X0278300Y0398600D01*
X0276300Y0397600D01*
X0336100Y0343200D02*
Y0342200D01*
X0338100D01*
Y0343200D01*
X0339100D01*
Y0345200D01*
X0338100D01*
Y0346200D01*
X0336100D01*
Y0345200D01*
X0335100D01*
Y0343200D01*
X0336100D01*
X0316500Y0346100D02*
Y0345100D01*
X0318500D01*
Y0346100D01*
X0319500D01*
Y0348100D01*
X0318500D01*
Y0349100D01*
X0316500D01*
Y0348100D01*
X0315500D01*
Y0346100D01*
X0316500D01*
X0329900Y0339300D02*
Y0338300D01*
X0331900D01*
Y0339300D01*
X0332900D01*
Y0341300D01*
X0331900D01*
Y0342300D01*
X0329900D01*
Y0341300D01*
X0328900D01*
Y0339300D01*
X0329900D01*
X0274500Y0406300D02*
Y0405300D01*
X0276500D01*
Y0406300D01*
X0277500D01*
Y0408300D01*
X0276500D01*
Y0409300D01*
X0274500D01*
Y0408300D01*
X0273500D01*
Y0406300D01*
X0274500D01*
X0334600Y0336300D02*
Y0335300D01*
X0336600D01*
Y0336300D01*
X0337600D01*
Y0338300D01*
X0336600D01*
Y0339300D01*
X0334600D01*
Y0338300D01*
X0333600D01*
Y0336300D01*
X0334600D01*
D100*
X0236800Y0358229D02*
G03*
X0236800Y0358229I-0002000J0000000D01*
G01*
Y0372371D02*
G03*
X0236800Y0372371I-0002000J0000000D01*
G01*
M02*
