%FSAX25Y25*%
%MOIN*%
G70*
G01*
G75*
G04 Layer_Color=16711935*
%ADD10R,0.02362X0.08661*%
%ADD11R,0.03543X0.02756*%
%ADD12R,0.02756X0.03543*%
%ADD13R,0.03622X0.01575*%
%ADD14R,0.01575X0.01575*%
%ADD15R,0.05118X0.05906*%
%ADD16R,0.01575X0.01575*%
%ADD17R,0.03937X0.02756*%
%ADD18R,0.04331X0.03937*%
%ADD19R,0.03347X0.03937*%
%ADD20R,0.03347X0.03937*%
%ADD21R,0.00866X0.02756*%
%ADD22R,0.03937X0.04331*%
%ADD23R,0.03937X0.09055*%
%ADD24C,0.01000*%
%ADD25C,0.00800*%
%ADD26C,0.01200*%
%ADD27C,0.01500*%
%ADD28C,0.02400*%
%ADD29C,0.04000*%
%ADD30C,0.02000*%
%ADD31C,0.02500*%
%ADD32C,0.03543*%
%ADD33C,0.03000*%
%ADD34C,0.01400*%
%ADD35C,0.03000*%
%ADD36C,0.05500*%
%ADD37C,0.06299*%
%ADD38C,0.03937*%
%ADD39R,0.03937X0.03937*%
%ADD40R,0.03937X0.03937*%
%ADD41C,0.01500*%
%ADD42C,0.01300*%
%ADD43C,0.02000*%
%ADD44C,0.02400*%
%ADD45C,0.01400*%
%ADD46C,0.01800*%
G04:AMPARAMS|DCode=47|XSize=193.75mil|YSize=195.16mil|CornerRadius=0mil|HoleSize=0mil|Usage=FLASHONLY|Rotation=45.000|XOffset=0mil|YOffset=0mil|HoleType=Round|Shape=Rectangle|*
%AMROTATEDRECTD47*
4,1,4,0.00050,-0.13750,-0.13750,0.00050,-0.00050,0.13750,0.13750,-0.00050,0.00050,-0.13750,0.0*
%
%ADD47ROTATEDRECTD47*%

%ADD48R,0.05309X0.05255*%
%ADD49R,0.01575X0.03622*%
%ADD50R,0.03937X0.07087*%
%ADD51R,0.03622X0.02362*%
%ADD52R,0.02756X0.00866*%
%ADD53O,0.06102X0.00984*%
%ADD54O,0.00984X0.06102*%
%ADD55R,0.00984X0.06102*%
%ADD56R,0.34252X0.34252*%
%ADD57R,0.02362X0.04331*%
%ADD58R,0.03150X0.01181*%
%ADD59R,0.01181X0.03642*%
%ADD60C,0.00787*%
%ADD61C,0.00984*%
%ADD62C,0.00394*%
%ADD63C,0.00300*%
%ADD64C,0.00500*%
%ADD65C,0.00299*%
%ADD66R,0.03162X0.09461*%
%ADD67R,0.04343X0.03556*%
%ADD68R,0.03556X0.04343*%
%ADD69R,0.04422X0.02375*%
%ADD70R,0.02375X0.02375*%
%ADD71R,0.05918X0.06706*%
%ADD72R,0.02375X0.02375*%
%ADD73R,0.04737X0.03556*%
%ADD74R,0.05131X0.04737*%
%ADD75R,0.04147X0.04737*%
%ADD76R,0.04147X0.04737*%
%ADD77R,0.01666X0.03556*%
%ADD78R,0.04737X0.05131*%
%ADD79R,0.04737X0.09855*%
%ADD80C,0.03800*%
%ADD81C,0.06300*%
%ADD82C,0.07099*%
%ADD83C,0.04737*%
%ADD84R,0.04737X0.04737*%
%ADD85R,0.04737X0.04737*%
%ADD86C,0.02200*%
%ADD87R,0.02375X0.04422*%
%ADD88R,0.04737X0.07887*%
%ADD89R,0.04422X0.03162*%
%ADD90R,0.03556X0.01666*%
%ADD91O,0.06902X0.01784*%
%ADD92O,0.01784X0.06902*%
%ADD93R,0.01784X0.06902*%
%ADD94R,0.35052X0.35052*%
%ADD95R,0.03162X0.05131*%
%ADD96R,0.03950X0.01981*%
%ADD97R,0.01981X0.04442*%
D67*
X0266659Y0366800D02*
D03*
X0261541D02*
D03*
D68*
X0252100Y0396659D02*
D03*
Y0391541D02*
D03*
X0259000Y0346941D02*
D03*
Y0352059D02*
D03*
X0253400Y0346941D02*
D03*
Y0352059D02*
D03*
D69*
X0260760Y0357941D02*
D03*
Y0360500D02*
D03*
X0268240Y0363059D02*
D03*
Y0357941D02*
D03*
X0260760Y0363059D02*
D03*
X0252002Y0364186D02*
D03*
Y0369304D02*
D03*
X0243735Y0364186D02*
D03*
D78*
X0246600Y0390754D02*
D03*
Y0397446D02*
D03*
D80*
X0247000Y0343600D02*
D03*
X0244500Y0351200D02*
D03*
X0257800Y0396000D02*
D03*
D81*
X0234800Y0358229D02*
D03*
Y0372371D02*
D03*
D82*
X0277800Y0384139D02*
D03*
Y0364061D02*
D03*
D83*
X0344900Y0410500D02*
D03*
X0339900D02*
D03*
X0334900D02*
D03*
X0329900D02*
D03*
X0324900D02*
D03*
X0319900D02*
D03*
X0314900D02*
D03*
X0309900D02*
D03*
X0304900D02*
D03*
X0299900D02*
D03*
X0294900D02*
D03*
X0289900D02*
D03*
X0284900D02*
D03*
X0339900Y0328600D02*
D03*
X0334900D02*
D03*
X0329900D02*
D03*
X0324900D02*
D03*
X0319900D02*
D03*
X0314900D02*
D03*
X0309900D02*
D03*
X0304900D02*
D03*
X0299900D02*
D03*
X0294900D02*
D03*
X0289900D02*
D03*
X0284900D02*
D03*
X0279900D02*
D03*
X0344900Y0335600D02*
D03*
Y0340600D02*
D03*
Y0345600D02*
D03*
Y0357100D02*
D03*
Y0362100D02*
D03*
Y0367100D02*
D03*
Y0372100D02*
D03*
Y0377100D02*
D03*
Y0382100D02*
D03*
Y0387100D02*
D03*
Y0392100D02*
D03*
Y0397100D02*
D03*
D84*
X0279900Y0410500D02*
D03*
X0344900Y0328600D02*
D03*
D85*
Y0350600D02*
D03*
Y0402100D02*
D03*
D86*
X0277700Y0372800D02*
D03*
X0268500Y0388900D02*
D03*
X0290700Y0387400D02*
D03*
X0301600Y0399000D02*
D03*
X0299400Y0392500D02*
D03*
X0268900Y0393200D02*
D03*
X0263100Y0384700D02*
D03*
X0317500Y0347100D02*
D03*
X0330900Y0340300D02*
D03*
X0275500Y0407300D02*
D03*
X0335600Y0337300D02*
D03*
D87*
X0271609Y0352840D02*
D03*
X0266491D02*
D03*
Y0345360D02*
D03*
X0271609D02*
D03*
D88*
X0319221Y0339100D02*
D03*
X0309379D02*
D03*
D89*
X0243700Y0369100D02*
D03*
D90*
X0281279Y0377875D02*
D03*
Y0376300D02*
D03*
Y0374725D02*
D03*
X0277520D02*
D03*
Y0376300D02*
D03*
Y0377875D02*
D03*
D91*
X0336152Y0357836D02*
D03*
Y0359805D02*
D03*
Y0361773D02*
D03*
Y0363742D02*
D03*
Y0365710D02*
D03*
Y0367679D02*
D03*
Y0369647D02*
D03*
Y0371616D02*
D03*
Y0373584D02*
D03*
Y0375553D02*
D03*
Y0377521D02*
D03*
Y0379490D02*
D03*
Y0381458D02*
D03*
Y0383427D02*
D03*
Y0385395D02*
D03*
Y0387364D02*
D03*
X0292648D02*
D03*
Y0385395D02*
D03*
Y0383427D02*
D03*
Y0381458D02*
D03*
Y0379490D02*
D03*
Y0377521D02*
D03*
Y0375553D02*
D03*
Y0373584D02*
D03*
Y0371616D02*
D03*
Y0369647D02*
D03*
Y0367679D02*
D03*
Y0365710D02*
D03*
Y0363742D02*
D03*
Y0361773D02*
D03*
Y0359805D02*
D03*
Y0357836D02*
D03*
D92*
X0329164Y0394352D02*
D03*
X0327195D02*
D03*
X0325227D02*
D03*
X0323258D02*
D03*
X0321290D02*
D03*
X0319321D02*
D03*
X0317353D02*
D03*
X0315384D02*
D03*
X0313416D02*
D03*
X0311447D02*
D03*
X0309479D02*
D03*
X0307510D02*
D03*
X0305542D02*
D03*
X0303573D02*
D03*
X0301605D02*
D03*
X0299636D02*
D03*
Y0350848D02*
D03*
X0301605D02*
D03*
X0303573D02*
D03*
X0305542D02*
D03*
X0307510D02*
D03*
X0309479D02*
D03*
X0311447D02*
D03*
X0313416D02*
D03*
X0315384D02*
D03*
X0317353D02*
D03*
X0319321D02*
D03*
X0321290D02*
D03*
X0323258D02*
D03*
X0325227D02*
D03*
X0327195D02*
D03*
D93*
X0329164D02*
D03*
D94*
X0314400Y0372600D02*
D03*
D95*
X0284240Y0393776D02*
D03*
X0280500D02*
D03*
X0276760D02*
D03*
Y0403224D02*
D03*
X0284240D02*
D03*
D96*
X0257221Y0385850D02*
D03*
Y0383882D02*
D03*
Y0381913D02*
D03*
X0267653D02*
D03*
Y0383882D02*
D03*
Y0385850D02*
D03*
D97*
X0258500Y0378764D02*
D03*
X0260469D02*
D03*
X0262437D02*
D03*
X0264405D02*
D03*
X0266374D02*
D03*
Y0389000D02*
D03*
X0264405D02*
D03*
X0262437D02*
D03*
X0260469D02*
D03*
X0258500D02*
D03*
M02*
