%FSAX25Y25*%
%MOIN*%
G70*
G01*
G75*
G04 Layer_Physical_Order=1*
G04 Layer_Color=255*
%ADD10R,0.02362X0.08661*%
%ADD11R,0.03543X0.02756*%
%ADD12R,0.02756X0.03543*%
%ADD13R,0.03622X0.01575*%
%ADD14R,0.01575X0.01575*%
%ADD15R,0.05118X0.05906*%
%ADD16R,0.01575X0.01575*%
%ADD17R,0.03937X0.02756*%
%ADD18R,0.04331X0.03937*%
%ADD19R,0.03347X0.03937*%
%ADD20R,0.03347X0.03937*%
%ADD21R,0.00866X0.02756*%
%ADD22R,0.03937X0.04331*%
%ADD23R,0.03937X0.09055*%
%ADD24C,0.01000*%
%ADD25C,0.00800*%
%ADD26C,0.01200*%
%ADD27C,0.01500*%
%ADD28C,0.02400*%
%ADD29C,0.04000*%
%ADD30C,0.02000*%
%ADD31C,0.02500*%
%ADD32C,0.03543*%
%ADD33C,0.03000*%
%ADD34C,0.01400*%
%ADD35C,0.03000*%
%ADD36C,0.05500*%
%ADD37C,0.06299*%
%ADD38C,0.03937*%
%ADD39R,0.03937X0.03937*%
%ADD40R,0.03937X0.03937*%
%ADD41C,0.01500*%
%ADD42C,0.01300*%
%ADD43C,0.02000*%
%ADD44C,0.02400*%
%ADD45C,0.01400*%
%ADD46C,0.01800*%
D10*
X0329950Y0364586D02*
D03*
X0324950D02*
D03*
X0319950D02*
D03*
X0314950D02*
D03*
X0329950Y0385764D02*
D03*
X0324950D02*
D03*
X0319950D02*
D03*
X0314950D02*
D03*
D11*
X0329859Y0349200D02*
D03*
X0324741D02*
D03*
X0338559Y0404500D02*
D03*
X0333441D02*
D03*
X0282041Y0404200D02*
D03*
Y0399000D02*
D03*
X0253441Y0343600D02*
D03*
X0258559D02*
D03*
X0253441Y0352200D02*
D03*
X0258559D02*
D03*
X0253441Y0361100D02*
D03*
X0258559D02*
D03*
X0253441Y0369800D02*
D03*
X0258559D02*
D03*
X0253441Y0378700D02*
D03*
X0258559D02*
D03*
X0276441Y0389500D02*
D03*
X0281559D02*
D03*
X0287159Y0399000D02*
D03*
Y0404200D02*
D03*
X0333141Y0399300D02*
D03*
X0338259D02*
D03*
X0333141Y0393600D02*
D03*
X0338259D02*
D03*
X0238441Y0343600D02*
D03*
X0243559D02*
D03*
X0329759Y0354600D02*
D03*
X0324641D02*
D03*
X0334859Y0336000D02*
D03*
X0329741D02*
D03*
Y0341100D02*
D03*
X0334859D02*
D03*
D12*
X0296200Y0350741D02*
D03*
X0287200Y0383941D02*
D03*
Y0389059D02*
D03*
X0302400Y0394559D02*
D03*
Y0389441D02*
D03*
X0271100Y0358259D02*
D03*
Y0353141D02*
D03*
Y0348759D02*
D03*
Y0343641D02*
D03*
Y0367759D02*
D03*
Y0362641D02*
D03*
Y0377259D02*
D03*
Y0372141D02*
D03*
X0282000Y0374759D02*
D03*
Y0369641D02*
D03*
X0301800Y0355859D02*
D03*
X0296200Y0355859D02*
D03*
X0301800Y0350741D02*
D03*
X0293500Y0374059D02*
D03*
Y0368941D02*
D03*
X0282000Y0343659D02*
D03*
Y0338541D02*
D03*
D13*
X0307540Y0375359D02*
D03*
X0300060Y0370241D02*
D03*
Y0375359D02*
D03*
X0307540Y0372800D02*
D03*
Y0370241D02*
D03*
X0297240Y0339641D02*
D03*
X0289760D02*
D03*
Y0342200D02*
D03*
Y0344759D02*
D03*
X0297240D02*
D03*
D14*
X0302375Y0361831D02*
D03*
X0300800Y0365769D02*
D03*
X0271000Y0389512D02*
D03*
Y0384000D02*
D03*
X0275000Y0373600D02*
D03*
Y0379112D02*
D03*
X0299225Y0361831D02*
D03*
D15*
X0262760Y0407500D02*
D03*
X0270240D02*
D03*
D16*
X0266000Y0389000D02*
D03*
X0260488D02*
D03*
X0307469Y0382875D02*
D03*
X0303532Y0381300D02*
D03*
X0307469Y0379725D02*
D03*
X0306132Y0351000D02*
D03*
X0310068Y0352575D02*
D03*
Y0349425D02*
D03*
D17*
X0266835Y0343841D02*
D03*
Y0348959D02*
D03*
X0258765Y0346400D02*
D03*
X0266835Y0352741D02*
D03*
Y0357859D02*
D03*
X0258765Y0355300D02*
D03*
X0266835Y0361641D02*
D03*
Y0366759D02*
D03*
X0258765Y0364200D02*
D03*
X0266835Y0370541D02*
D03*
Y0375659D02*
D03*
X0258765Y0373100D02*
D03*
X0266835Y0379441D02*
D03*
Y0384559D02*
D03*
X0258765Y0382000D02*
D03*
D18*
X0253046Y0357500D02*
D03*
X0246354D02*
D03*
X0271146Y0398100D02*
D03*
X0264454D02*
D03*
D19*
X0238860Y0348076D02*
D03*
X0242600Y0357524D02*
D03*
D20*
X0246340Y0348076D02*
D03*
D21*
X0309075Y0361821D02*
D03*
X0307500D02*
D03*
X0305925D02*
D03*
Y0365580D02*
D03*
X0307500D02*
D03*
X0309075D02*
D03*
D22*
X0295700Y0395746D02*
D03*
Y0389054D02*
D03*
X0244300Y0362291D02*
D03*
D23*
Y0371346D02*
D03*
D24*
X0341400Y0387100D02*
X0344900D01*
X0333500Y0379200D02*
X0341400Y0387100D01*
X0333500Y0372100D02*
Y0379200D01*
X0333350Y0371950D02*
X0333500Y0372100D01*
X0327650Y0371950D02*
X0333350D01*
X0333450D02*
X0335800Y0369600D01*
X0327650Y0371950D02*
X0333450D01*
X0324950Y0369250D02*
X0327650Y0371950D01*
X0324950Y0364586D02*
Y0369250D01*
X0323300Y0392700D02*
Y0398600D01*
X0322400Y0391800D02*
X0323300Y0392700D01*
X0322400Y0377800D02*
Y0391800D01*
X0327331Y0377431D02*
Y0398569D01*
X0297600Y0377500D02*
X0299600Y0375500D01*
X0271000Y0383300D02*
Y0383900D01*
X0314950Y0370350D02*
X0322400Y0377800D01*
X0314950Y0364586D02*
Y0370350D01*
X0319950Y0370050D02*
X0327331Y0377431D01*
X0319950Y0364586D02*
Y0370050D01*
X0259100Y0390500D02*
X0260488Y0389112D01*
Y0389000D02*
Y0389112D01*
X0266835Y0384559D02*
X0267394Y0384000D01*
X0266835Y0384559D02*
X0267641D01*
X0267394Y0384000D02*
X0271300D01*
X0324641Y0354600D02*
Y0364277D01*
X0310068Y0352575D02*
Y0354832D01*
X0304700Y0360200D02*
X0310068Y0354832D01*
X0271000Y0383300D02*
X0275000Y0379300D01*
X0289800Y0345500D02*
Y0349900D01*
X0295859Y0355959D01*
X0301200D01*
X0293900Y0348200D02*
X0296200Y0350500D01*
X0293900Y0343200D02*
Y0348200D01*
Y0343200D02*
X0297350Y0339750D01*
X0296950Y0344750D02*
X0299400Y0342300D01*
X0310100Y0346500D02*
Y0349200D01*
X0305900Y0342300D02*
X0310100Y0346500D01*
X0299400Y0342300D02*
X0305900D01*
X0275000Y0379300D02*
X0287400D01*
X0289200Y0377500D01*
X0297600D01*
X0251100Y0385800D02*
X0260600D01*
X0263800Y0389000D02*
X0266000D01*
X0260600Y0385800D02*
X0263800Y0389000D01*
X0328841Y0336059D02*
Y0341100D01*
D25*
X0343000Y0367100D02*
X0344900D01*
X0338400Y0371700D02*
X0343000Y0367100D01*
X0338400Y0371700D02*
Y0377500D01*
X0307500Y0365580D02*
Y0370201D01*
X0302971Y0376071D02*
X0305500Y0378600D01*
X0309500Y0380300D02*
Y0398600D01*
X0325300Y0386114D02*
Y0398600D01*
X0302971Y0374116D02*
Y0376071D01*
X0302326Y0373472D02*
X0302971Y0374116D01*
X0298031Y0373472D02*
X0302326D01*
X0303129Y0372153D02*
X0304629Y0373653D01*
X0303129Y0370629D02*
Y0372153D01*
X0305945Y0372800D02*
X0307540D01*
X0304629Y0371484D02*
X0305945Y0372800D01*
X0304629Y0370008D02*
Y0371484D01*
X0293500Y0368941D02*
X0298031Y0373472D01*
X0302741Y0370241D02*
X0303129Y0370629D01*
X0303362Y0368741D02*
X0304629Y0370008D01*
X0300060Y0370241D02*
X0302741D01*
X0304629Y0373653D02*
Y0374043D01*
X0293500Y0374059D02*
X0294087Y0373472D01*
X0289604Y0374500D02*
X0294328D01*
X0304629Y0374043D02*
X0305274Y0374687D01*
X0306869D01*
X0303358Y0368741D02*
X0303362D01*
X0300800Y0366183D02*
X0303358Y0368741D01*
X0300800Y0365769D02*
Y0366183D01*
X0306869Y0374687D02*
X0307540Y0375359D01*
X0307699Y0375200D01*
X0324950Y0385764D02*
X0325300Y0386114D01*
X0278200Y0363000D02*
X0278600Y0362600D01*
X0279100Y0363200D02*
Y0363400D01*
X0307668Y0379725D02*
X0308925D01*
X0309500Y0380300D01*
X0302386Y0361821D02*
X0305925D01*
Y0365580D01*
X0307699Y0375200D02*
X0310400D01*
X0310500Y0375100D01*
X0309075Y0365580D02*
X0310080D01*
X0310500Y0366000D01*
Y0375100D01*
X0319869Y0349366D02*
Y0352631D01*
X0313345Y0359156D02*
X0319869Y0352631D01*
X0313313Y0359156D02*
X0313345D01*
X0312400Y0360069D02*
X0313313Y0359156D01*
X0307500Y0359663D02*
X0313100Y0354063D01*
X0307500Y0359663D02*
Y0361821D01*
X0338559Y0404500D02*
X0341700D01*
X0344900Y0407700D01*
Y0410500D01*
X0321200Y0398600D02*
Y0400100D01*
X0322000Y0400900D01*
X0328000D01*
X0329200Y0399700D01*
Y0386514D02*
Y0399700D01*
Y0386514D02*
X0329950Y0385764D01*
X0307400Y0398600D02*
Y0400000D01*
X0311559Y0404159D01*
X0333141D01*
X0333141Y0404159D01*
Y0393600D02*
Y0404159D01*
X0287159Y0404200D02*
Y0405241D01*
X0284900Y0407500D02*
X0287159Y0405241D01*
X0284900Y0407500D02*
Y0410500D01*
X0292000Y0402000D02*
Y0406200D01*
X0289900Y0408300D02*
X0292000Y0406200D01*
X0289900Y0408300D02*
Y0410500D01*
X0283200Y0343100D02*
X0283900Y0342400D01*
X0292155D01*
X0293500Y0341055D01*
Y0338200D02*
Y0341055D01*
Y0338200D02*
X0296100Y0335600D01*
X0270800Y0342600D02*
X0274900Y0338500D01*
X0288800D01*
X0290200Y0339900D01*
X0313100Y0346300D02*
Y0354063D01*
X0311400Y0344600D02*
X0313100Y0346300D01*
X0301400Y0344800D02*
Y0346025D01*
X0308019Y0347319D02*
Y0354345D01*
X0303634Y0358731D02*
X0308019Y0354345D01*
X0302326Y0358731D02*
X0303634D01*
X0299225Y0361831D02*
X0302326Y0358731D01*
X0301400Y0344800D02*
X0302000Y0344200D01*
X0304900D01*
X0308019Y0347319D01*
X0280166Y0377631D02*
X0286473D01*
X0289604Y0374500D01*
X0274100Y0375900D02*
X0275300Y0377100D01*
X0279636D01*
X0280166Y0377631D01*
X0287159Y0399000D02*
X0289000D01*
X0292000Y0402000D01*
X0305500Y0378600D02*
Y0400400D01*
X0311400Y0391200D02*
Y0396400D01*
Y0391200D02*
X0312400Y0390200D01*
Y0360069D02*
Y0390200D01*
X0300200Y0337600D02*
X0318100D01*
X0326700Y0346200D01*
X0332700D01*
X0296100Y0335600D02*
X0319200D01*
X0327800Y0344200D01*
X0319869Y0349366D02*
X0319900Y0349336D01*
X0327800Y0344200D02*
X0337100D01*
X0305400Y0342200D02*
X0318000D01*
X0319900Y0344100D01*
Y0349336D01*
D26*
X0338259Y0392041D02*
X0339500Y0390800D01*
X0302059Y0351000D02*
X0305700D01*
X0338259Y0393600D02*
Y0399300D01*
X0279300Y0365200D02*
Y0366800D01*
X0271100Y0362641D02*
X0273859D01*
X0271100Y0353141D02*
X0273859D01*
X0266835Y0384559D02*
X0267000D01*
X0266341D02*
X0266835D01*
X0266900Y0384800D02*
X0267400Y0385300D01*
X0266835Y0384559D02*
X0266976Y0384700D01*
X0273859Y0362641D02*
X0273900Y0362600D01*
X0274200Y0364341D02*
X0276959D01*
X0277900Y0386000D02*
X0278300D01*
X0281400Y0389100D02*
Y0389200D01*
X0279600Y0388000D02*
X0281300Y0389700D01*
X0279600Y0385300D02*
Y0388000D01*
X0281400Y0389500D02*
Y0390000D01*
X0281300Y0389200D02*
Y0390000D01*
X0302375Y0361831D02*
X0302386Y0361821D01*
X0270959Y0389553D02*
Y0398700D01*
X0321100Y0357300D02*
X0321569Y0356831D01*
X0323800Y0349200D02*
X0324741D01*
X0321569Y0351431D02*
Y0356831D01*
Y0351431D02*
X0323800Y0349200D01*
X0329859D02*
X0333200D01*
X0309600Y0360000D02*
Y0362600D01*
X0304700Y0360200D02*
Y0361400D01*
X0279300Y0366800D02*
X0281500Y0369000D01*
X0271100Y0372141D02*
X0271141Y0372100D01*
X0271100Y0343641D02*
X0272941D01*
X0273900Y0344600D01*
X0271141Y0372100D02*
X0272000D01*
X0291700Y0365400D02*
X0296200D01*
X0299300Y0368500D01*
Y0369900D01*
X0338259Y0392041D02*
Y0393600D01*
X0281800Y0375300D02*
X0291700Y0365400D01*
X0275500Y0373700D02*
X0276900Y0375100D01*
X0281800D01*
Y0375559D01*
X0273900Y0344600D02*
Y0369142D01*
X0272000Y0372100D02*
X0273350Y0370750D01*
X0273778Y0369264D02*
X0273900Y0369142D01*
X0273778Y0369264D02*
Y0370069D01*
X0273350Y0370497D02*
X0273778Y0370069D01*
X0273350Y0370497D02*
Y0370750D01*
X0287200Y0389059D02*
Y0391500D01*
X0288600Y0392900D01*
X0317200Y0344500D02*
X0317500D01*
X0317350Y0344350D02*
X0317500Y0344500D01*
X0278300Y0399600D02*
X0282141D01*
Y0404600D01*
X0315400Y0346300D02*
X0317350Y0344350D01*
X0315400Y0346300D02*
Y0354200D01*
X0309600Y0360000D02*
X0315400Y0354200D01*
D27*
X0302600Y0382231D02*
Y0389441D01*
Y0382231D02*
X0303532Y0381300D01*
X0296646Y0394800D02*
X0302359D01*
X0302600Y0394559D01*
X0339900Y0328681D02*
Y0332900D01*
X0238441Y0343600D02*
Y0347141D01*
X0244400Y0343500D02*
X0247100D01*
X0247200Y0343600D01*
X0279700Y0384000D02*
X0287000D01*
X0268100Y0332900D02*
X0339900D01*
X0262700Y0338300D02*
X0268100Y0332900D01*
X0262700Y0338300D02*
Y0353200D01*
X0329700Y0354900D02*
X0339900D01*
Y0357600D02*
X0339900Y0357600D01*
X0339900Y0332900D02*
Y0357600D01*
X0329800Y0349100D02*
Y0363700D01*
X0339900Y0357600D02*
X0344900D01*
X0345350Y0357150D01*
X0270900Y0406800D02*
X0271600D01*
X0276200Y0402200D01*
X0266000Y0401800D02*
X0270240Y0406040D01*
Y0407500D01*
X0295050Y0389250D02*
Y0390150D01*
X0289800Y0395400D02*
X0295050Y0390150D01*
X0276200Y0395400D02*
X0289800D01*
X0266000Y0389000D02*
Y0401800D01*
X0276100Y0400711D02*
X0276200Y0400811D01*
Y0402200D01*
X0276100Y0390300D02*
X0276200Y0390200D01*
X0276100Y0390300D02*
Y0400711D01*
D28*
X0314950Y0385764D02*
X0319950D01*
D29*
X0234900Y0358700D02*
X0236200Y0360000D01*
X0244200D01*
X0234900Y0371600D02*
X0243800D01*
D30*
X0244400Y0351200D02*
Y0351300D01*
Y0351200D02*
X0246600Y0349000D01*
X0244600Y0351000D02*
Y0351400D01*
X0266635Y0343800D02*
X0270700D01*
X0266835Y0375659D02*
Y0379441D01*
Y0375659D02*
X0268435Y0377259D01*
X0271100D01*
X0266835Y0366759D02*
Y0370541D01*
Y0366759D02*
X0267835Y0367759D01*
X0271100D01*
X0266835Y0357859D02*
Y0361641D01*
X0270700Y0357859D02*
X0271100Y0358259D01*
X0266835Y0357859D02*
X0270700D01*
X0266835Y0348959D02*
Y0352741D01*
X0270900Y0348959D02*
X0271100Y0348759D01*
X0266835Y0348959D02*
X0270900D01*
D31*
X0258500Y0343600D02*
Y0346400D01*
X0258600Y0355000D02*
X0258700Y0354900D01*
Y0352100D02*
Y0354900D01*
Y0361200D02*
Y0363700D01*
X0258500Y0363900D02*
X0258700Y0363700D01*
X0258800Y0370200D02*
X0259000Y0370000D01*
X0258800Y0370200D02*
Y0372700D01*
X0258700Y0379200D02*
Y0381900D01*
X0258600Y0379100D02*
X0258700Y0379200D01*
D32*
X0253500Y0344459D02*
Y0378100D01*
D33*
X0257800Y0391600D02*
X0258400Y0391000D01*
X0257800Y0403500D02*
X0261600Y0407300D01*
X0257800Y0391600D02*
Y0396000D01*
Y0403500D01*
D34*
X0335559Y0336159D02*
Y0341000D01*
D35*
X0247000Y0343600D02*
D03*
X0244500Y0351200D02*
D03*
X0257800Y0396000D02*
D03*
X0317600Y0385600D02*
D03*
X0333200Y0349200D02*
D03*
D36*
X0234800Y0358229D02*
D03*
Y0372371D02*
D03*
D37*
X0277800Y0384139D02*
D03*
Y0364061D02*
D03*
D38*
X0344900Y0410500D02*
D03*
X0339900D02*
D03*
X0334900D02*
D03*
X0329900D02*
D03*
X0324900D02*
D03*
X0319900D02*
D03*
X0314900D02*
D03*
X0309900D02*
D03*
X0304900D02*
D03*
X0299900D02*
D03*
X0294900D02*
D03*
X0289900D02*
D03*
X0284900D02*
D03*
X0339900Y0328600D02*
D03*
X0334900D02*
D03*
X0329900D02*
D03*
X0324900D02*
D03*
X0319900D02*
D03*
X0314900D02*
D03*
X0309900D02*
D03*
X0304900D02*
D03*
X0299900D02*
D03*
X0294900D02*
D03*
X0289900D02*
D03*
X0284900D02*
D03*
X0279900D02*
D03*
X0344900Y0335600D02*
D03*
Y0340600D02*
D03*
Y0345600D02*
D03*
Y0357100D02*
D03*
Y0362100D02*
D03*
Y0367100D02*
D03*
Y0372100D02*
D03*
Y0377100D02*
D03*
Y0382100D02*
D03*
Y0387100D02*
D03*
Y0392100D02*
D03*
Y0397100D02*
D03*
D39*
X0279900Y0410500D02*
D03*
X0344900Y0328600D02*
D03*
D40*
Y0350600D02*
D03*
Y0402100D02*
D03*
D41*
X0256300Y0388700D02*
D03*
X0276300Y0389500D02*
D03*
X0262700Y0353200D02*
D03*
X0297400Y0339600D02*
D03*
X0321100Y0357300D02*
D03*
X0271700Y0336400D02*
D03*
X0278300Y0399600D02*
D03*
D42*
X0269400Y0399300D02*
D03*
X0334200Y0367800D02*
D03*
X0338400Y0377500D02*
D03*
X0335700Y0369700D02*
D03*
X0307400Y0398600D02*
D03*
X0327300D02*
D03*
X0309500D02*
D03*
X0307500Y0382900D02*
D03*
X0325300Y0398600D02*
D03*
X0321200D02*
D03*
X0323300D02*
D03*
X0262600Y0358000D02*
D03*
X0262900Y0369700D02*
D03*
X0304700Y0360200D02*
D03*
X0335700Y0365700D02*
D03*
X0291300Y0361700D02*
D03*
X0288900Y0363800D02*
D03*
X0285400Y0364300D02*
D03*
X0291700Y0355400D02*
D03*
X0286300Y0362200D02*
D03*
X0294800Y0359800D02*
D03*
X0311400Y0344600D02*
D03*
X0301400Y0346100D02*
D03*
X0300200Y0337600D02*
D03*
X0303600Y0346300D02*
D03*
X0286000Y0374900D02*
D03*
X0290200Y0379500D02*
D03*
X0274000Y0375800D02*
D03*
X0275900Y0368600D02*
D03*
X0275728Y0370750D02*
D03*
X0305500Y0400400D02*
D03*
X0315500Y0398500D02*
D03*
X0311321Y0396315D02*
D03*
X0288600Y0392900D02*
D03*
X0332700Y0346200D02*
D03*
X0337100Y0344200D02*
D03*
D43*
X0339500Y0390800D02*
D03*
D44*
X0266400Y0344300D02*
D03*
D45*
X0277700Y0372800D02*
D03*
X0268500Y0388900D02*
D03*
X0290700Y0387400D02*
D03*
X0301600Y0399000D02*
D03*
X0299400Y0392500D02*
D03*
X0268900Y0393200D02*
D03*
X0263100Y0384700D02*
D03*
X0317500Y0347100D02*
D03*
X0330900Y0340300D02*
D03*
X0275500Y0407300D02*
D03*
X0335600Y0337300D02*
D03*
D46*
X0251100Y0385800D02*
D03*
X0317200Y0344500D02*
D03*
M02*
