M48
;Layer_Color=9474304
;FILE_FORMAT=2:5
INCH
;TYPE=PLATED
T1F00S00C0.00800
T2F00S00C0.01000
T3F00S00C0.01200
T4F00S00C0.01600
T5F00S00C0.02000
T6F00S00C0.02362
T7F00S00C0.04000
T8F00S00C0.04724
%
T01
X0032700Y0032900
X0033000Y0044600
X0045828Y0045650
X0046000Y0043500
X0047800Y0047700
X0044100Y0050700
X0056100Y0049800
X0060300Y0054400
X0060800Y0062300
X0058700Y0067800
X0069500Y0067400
X0071700Y0073900
X0075600Y0075300
X0077500Y0073500
X0079600
X0081421Y0071215
X0077600Y0057800
X0074800Y0035100
X0064900Y0034700
X0061400Y0036600
X0059000Y0038700
X0055500Y0039200
X0056400Y0037100
X0061800Y0030300
X0071500Y0021000
X0073700Y0021200
X0081500Y0019500
X0070300Y0012500
X0038600Y0063800
X0039000Y0068100
X0039500Y0074200
X0045600Y0082200
X0033200Y0059600
X0085600Y0073400
X0091300Y0073500
X0093400
X0095400
X0097400
X0108500Y0052400
X0105800Y0044600
X0104300Y0042700
X0105800Y0040600
X0102800Y0021100
X0107200Y0019100
X0105700Y0012200
X0101000Y0015200
X0087600Y0022000
T02
X0041800Y0011300
X0032800Y0028100
X0026400Y0063600
X0021200Y0060700
X0046400Y0064400
X0048400Y0074500
X0067500Y0014500
X0091200Y0032200
T03
X0087300Y0019400
X0109600Y0065700
T04
X0036500Y0019200
T05
X0017100Y0018500
X0014600Y0026100
X0027900Y0070900
X0087700Y0060500
X0103300Y0024100
T06
X0050000Y0003500
X0055000
X0060000
X0065000
X0070000
X0075000
X0080000
Y0085400
X0075000
X0070000
X0065000
X0060000
X0055000
X0050000
X0085000
X0090000
X0095000
X0100000
X0105000
X0110000
X0115000
Y0077000
Y0072000
Y0067000
Y0062000
Y0057000
Y0052000
Y0047000
Y0042000
Y0037000
Y0032000
Y0025500
Y0020500
Y0015500
Y0010500
Y0003500
X0110000
X0105000
X0100000
X0095000
X0090000
X0085000
T07
X0004900Y0033129
Y0047271
T08
X0047900Y0038961
Y0059039
M30
