%FSAX25Y25*%
%MOIN*%
G70*
G01*
G75*
G04 Layer_Physical_Order=4*
G04 Layer_Color=16711680*
%ADD10R,0.02362X0.08661*%
%ADD11R,0.03543X0.02756*%
%ADD12R,0.02756X0.03543*%
%ADD13R,0.03622X0.01575*%
%ADD14R,0.01575X0.01575*%
%ADD15R,0.05118X0.05906*%
%ADD16R,0.01575X0.01575*%
%ADD17R,0.03937X0.02756*%
%ADD18R,0.04331X0.03937*%
%ADD19R,0.03347X0.03937*%
%ADD20R,0.03347X0.03937*%
%ADD21R,0.00866X0.02756*%
%ADD22R,0.03937X0.04331*%
%ADD23R,0.03937X0.09055*%
%ADD24C,0.01000*%
%ADD25C,0.00800*%
%ADD26C,0.01200*%
%ADD27C,0.01500*%
%ADD28C,0.02400*%
%ADD29C,0.04000*%
%ADD30C,0.02000*%
%ADD31C,0.02500*%
%ADD32C,0.03543*%
%ADD33C,0.03000*%
%ADD34C,0.01400*%
%ADD35C,0.03000*%
%ADD36C,0.05500*%
%ADD37C,0.06299*%
%ADD38C,0.03937*%
%ADD39R,0.03937X0.03937*%
%ADD40R,0.03937X0.03937*%
%ADD41C,0.01500*%
%ADD42C,0.01300*%
%ADD43C,0.02000*%
%ADD44C,0.02400*%
%ADD45C,0.01400*%
%ADD46C,0.01800*%
G04:AMPARAMS|DCode=47|XSize=193.75mil|YSize=195.16mil|CornerRadius=0mil|HoleSize=0mil|Usage=FLASHONLY|Rotation=45.000|XOffset=0mil|YOffset=0mil|HoleType=Round|Shape=Rectangle|*
%AMROTATEDRECTD47*
4,1,4,0.00050,-0.13750,-0.13750,0.00050,-0.00050,0.13750,0.13750,-0.00050,0.00050,-0.13750,0.0*
%
%ADD47ROTATEDRECTD47*%

%ADD48R,0.05309X0.05255*%
%ADD49R,0.01575X0.03622*%
%ADD50R,0.03937X0.07087*%
%ADD51R,0.03622X0.02362*%
%ADD52R,0.02756X0.00866*%
%ADD53O,0.06102X0.00984*%
%ADD54O,0.00984X0.06102*%
%ADD55R,0.00984X0.06102*%
%ADD56R,0.34252X0.34252*%
%ADD57R,0.02362X0.04331*%
%ADD58R,0.03150X0.01181*%
%ADD59R,0.01181X0.03642*%
D11*
X0266659Y0366800D02*
D03*
X0261541D02*
D03*
D12*
X0252100Y0396659D02*
D03*
Y0391541D02*
D03*
X0259000Y0346941D02*
D03*
Y0352059D02*
D03*
X0253400Y0346941D02*
D03*
Y0352059D02*
D03*
D13*
X0260760Y0357941D02*
D03*
Y0360500D02*
D03*
X0268240Y0363059D02*
D03*
Y0357941D02*
D03*
X0260760Y0363059D02*
D03*
X0252002Y0364186D02*
D03*
Y0369304D02*
D03*
X0243735Y0364186D02*
D03*
D22*
X0246600Y0390754D02*
D03*
Y0397446D02*
D03*
D24*
X0305600Y0345300D02*
Y0348400D01*
X0303900Y0343600D02*
X0305600Y0345300D01*
X0292100Y0343600D02*
X0303900D01*
X0307500Y0344600D02*
Y0350800D01*
X0304500Y0341600D02*
X0307500Y0344600D01*
X0291400Y0341600D02*
X0304500D01*
X0266700Y0371700D02*
X0271200Y0367200D01*
Y0364500D02*
Y0367200D01*
Y0364500D02*
X0292100Y0343600D01*
X0259100Y0385900D02*
X0260350Y0384650D01*
X0257270Y0385900D02*
X0259100D01*
X0260350Y0384650D02*
X0262437Y0386737D01*
X0271609Y0336491D02*
X0273700Y0334400D01*
X0271609Y0336491D02*
Y0345360D01*
X0340684Y0373584D02*
X0344300Y0377200D01*
X0327195Y0394352D02*
Y0398495D01*
X0327300Y0398600D01*
X0325227Y0394352D02*
Y0398527D01*
X0325300Y0398600D01*
X0323258Y0398558D02*
X0323300Y0398600D01*
X0323258Y0394352D02*
Y0398558D01*
X0321290Y0394352D02*
Y0398510D01*
X0336152Y0373584D02*
X0340684D01*
X0321600Y0361400D02*
X0323700Y0359300D01*
X0321600Y0361400D02*
Y0370100D01*
X0328500Y0377000D01*
X0328800Y0379500D02*
X0337300D01*
X0309500Y0350600D02*
Y0355999D01*
X0311400Y0350600D02*
Y0355952D01*
X0330500Y0359800D02*
X0337295D01*
X0325175Y0361800D02*
X0336100D01*
X0271649Y0345400D02*
Y0352800D01*
X0270000Y0363000D02*
X0291400Y0341600D01*
X0246900Y0343500D02*
X0250000Y0346600D01*
Y0357100D01*
X0252200Y0359300D01*
Y0368900D01*
X0255000Y0371700D01*
X0266700D01*
X0336152Y0369647D02*
X0336155Y0369650D01*
X0284900Y0328600D02*
Y0334300D01*
X0279500Y0374500D02*
X0279600Y0374400D01*
Y0364300D02*
Y0374400D01*
X0279300Y0364000D02*
X0279600Y0364300D01*
X0271100Y0410600D02*
X0279700D01*
X0276300Y0389500D02*
X0276500Y0389700D01*
X0282200Y0378250D02*
Y0387900D01*
X0276100Y0389500D02*
X0276300D01*
X0280600D01*
X0280300Y0389800D02*
X0282200Y0387900D01*
X0280300Y0392400D02*
X0280600Y0392700D01*
X0262437Y0389000D02*
Y0391363D01*
X0257900Y0395900D02*
X0262437Y0391363D01*
Y0386737D02*
Y0389000D01*
X0264228Y0389178D02*
X0264405Y0389000D01*
X0264228Y0389178D02*
Y0392972D01*
X0264200Y0393000D02*
X0264228Y0392972D01*
X0264200Y0393000D02*
Y0403700D01*
X0271100Y0410600D01*
X0263100Y0384700D02*
X0264300Y0385900D01*
Y0388895D01*
X0264405Y0389000D01*
X0297400Y0339600D02*
X0301200D01*
X0302700Y0338100D01*
X0273700Y0334400D02*
X0301000D01*
X0302700Y0336100D01*
Y0338100D01*
D25*
X0266559Y0367500D02*
X0267600Y0366459D01*
Y0363699D02*
X0268299Y0363000D01*
X0265800Y0360400D02*
X0269935D01*
X0271151Y0359184D01*
Y0359149D02*
X0292700Y0337600D01*
X0271151Y0359149D02*
Y0359184D01*
X0292700Y0337600D02*
X0300200D01*
X0257221Y0385850D02*
X0257270Y0385900D01*
X0311000Y0339600D02*
X0313416Y0342016D01*
X0310000Y0340600D02*
X0311000Y0339600D01*
X0313416Y0342016D02*
Y0350848D01*
X0317900Y0339200D02*
X0318921D01*
X0315200Y0341900D02*
X0317900Y0339200D01*
X0315200Y0341900D02*
Y0350664D01*
X0315384Y0350848D01*
X0309079Y0339200D02*
Y0339779D01*
X0262500Y0376300D02*
X0265100Y0373700D01*
X0262500Y0376300D02*
Y0377600D01*
X0327195Y0350848D02*
X0327200Y0350843D01*
X0342600Y0382100D02*
X0344900D01*
X0341300Y0380800D02*
X0342600Y0382100D01*
X0341300Y0377400D02*
Y0380800D01*
X0339453Y0375553D02*
X0341300Y0377400D01*
X0341900Y0362000D02*
X0344900D01*
X0341000Y0362900D02*
X0341900Y0362000D01*
X0341000Y0362900D02*
Y0369900D01*
X0339284Y0371616D02*
X0341000Y0369900D01*
X0307400Y0398600D02*
X0307400Y0398600D01*
Y0398599D02*
Y0398600D01*
X0307400Y0398599D02*
X0307400Y0398599D01*
X0307400Y0394462D02*
Y0398599D01*
X0260760Y0363059D02*
X0260819Y0363000D01*
X0263200D01*
X0265800Y0360400D01*
X0307400Y0394462D02*
X0307510Y0394352D01*
X0336152Y0371616D02*
X0339284D01*
X0280679Y0376300D02*
X0281279D01*
X0277520D02*
X0278100D01*
X0274600D02*
X0277520D01*
X0278000Y0385300D02*
X0280331D01*
X0257200Y0362000D02*
X0258259Y0363059D01*
X0260760D01*
X0277800Y0365900D02*
X0278000Y0366100D01*
X0253600Y0352700D02*
X0257200Y0356300D01*
Y0362000D01*
X0309500Y0394373D02*
Y0398600D01*
X0305542Y0394352D02*
Y0400400D01*
X0319321Y0394352D02*
X0319450Y0394481D01*
X0339900Y0403400D02*
Y0410500D01*
X0334900Y0404500D02*
Y0410500D01*
X0333400Y0403000D02*
X0334900Y0404500D01*
X0337700Y0401200D02*
X0339900Y0403400D01*
X0319450Y0394481D02*
Y0399325D01*
X0321325Y0401200D01*
X0337700D01*
X0320700Y0403000D02*
X0333400D01*
X0313416Y0394352D02*
Y0399016D01*
X0324900Y0410500D01*
X0315384Y0398384D02*
X0315500Y0398500D01*
X0315384Y0394352D02*
Y0398384D01*
X0292643Y0385400D02*
X0292648Y0385395D01*
X0304900Y0407500D02*
Y0410500D01*
X0309900Y0409400D02*
Y0410500D01*
X0303573Y0394352D02*
X0303750Y0394529D01*
X0319900Y0408700D02*
Y0410500D01*
X0312400Y0401200D02*
X0319900Y0408700D01*
X0305500Y0400400D02*
X0306300Y0401200D01*
X0312400D01*
X0307025Y0404400D02*
X0312000D01*
X0314900Y0407300D01*
Y0410500D01*
X0268299Y0363000D02*
X0270000D01*
X0277900Y0374700D02*
X0281100D01*
X0288052Y0350848D02*
X0299636D01*
X0283100Y0372000D02*
X0285950Y0374850D01*
X0283100Y0355800D02*
X0288052Y0350848D01*
X0283100Y0355800D02*
Y0372000D01*
X0286300Y0362200D02*
Y0362625D01*
X0285500Y0366500D02*
X0286679Y0367679D01*
X0292648D01*
X0288800Y0363800D02*
X0288900D01*
X0286300Y0362625D02*
X0287150Y0363475D01*
Y0364850D01*
X0288010Y0365710D01*
X0292648D01*
X0285500Y0364300D02*
Y0366500D01*
X0292688Y0357900D02*
X0293200D01*
X0292512Y0357700D02*
Y0357724D01*
X0288800Y0363800D02*
X0288900Y0363700D01*
X0292606D01*
X0291700Y0355400D02*
X0292648Y0356348D01*
Y0357836D01*
X0292512Y0357724D02*
X0292688Y0357900D01*
X0335300Y0344200D02*
X0342000D01*
X0343400Y0345600D01*
X0344800D01*
X0332700Y0346200D02*
X0339300D01*
X0343700Y0350600D01*
X0344900D01*
X0336152Y0375553D02*
X0339453D01*
X0336152Y0391752D02*
X0341600Y0397200D01*
X0336152Y0387364D02*
Y0391752D01*
X0341600Y0397200D02*
X0344900D01*
X0336152Y0383427D02*
X0340073D01*
X0341200Y0384554D01*
Y0388400D01*
X0344900Y0392100D01*
X0329164Y0394352D02*
X0334752D01*
X0342500Y0402100D01*
X0344900D01*
X0301400Y0346100D02*
X0301605Y0346305D01*
Y0350848D01*
X0303600Y0346300D02*
Y0350821D01*
X0265100Y0373700D02*
X0267400D01*
X0266250Y0377250D02*
X0266550Y0377550D01*
X0273300Y0380500D02*
X0275925Y0377875D01*
X0277520D01*
X0274000Y0375700D02*
X0274600Y0376300D01*
X0271600Y0374400D02*
Y0379700D01*
X0267400Y0373700D02*
X0272500Y0368600D01*
X0275900D01*
X0271600Y0374400D02*
X0273300Y0372700D01*
X0277500D01*
X0266250Y0377250D02*
X0272800Y0370700D01*
X0275700D01*
X0267653Y0385850D02*
X0267704Y0385800D01*
X0269500Y0381800D02*
X0271600Y0379700D01*
X0268600Y0381800D02*
X0269500D01*
X0267653Y0383882D02*
X0267672Y0383900D01*
X0269700D01*
X0267653Y0385850D02*
X0268500Y0386697D01*
Y0388800D01*
X0269700Y0383900D02*
X0271100Y0385300D01*
X0280679Y0377875D02*
X0280721Y0377833D01*
X0281784D01*
X0282200Y0378250D01*
X0299700Y0410400D02*
X0299800D01*
X0289805Y0385395D02*
X0292648D01*
X0288497Y0386704D02*
X0289805Y0385396D01*
Y0385395D02*
Y0385396D01*
X0289800Y0410200D02*
X0292950Y0407050D01*
X0288942Y0381458D02*
X0292648D01*
X0299700Y0406077D02*
Y0410400D01*
X0299636Y0395500D02*
Y0402236D01*
X0304900Y0407500D01*
X0301605Y0394352D02*
Y0401105D01*
X0309900Y0409400D01*
X0303750Y0394529D02*
Y0401125D01*
X0307025Y0404400D01*
X0317353Y0394352D02*
Y0399653D01*
X0320700Y0403000D01*
X0292621Y0383400D02*
X0292648Y0383427D01*
X0285400Y0385000D02*
X0288942Y0381458D01*
X0285400Y0385000D02*
Y0389800D01*
X0273300Y0380500D02*
Y0395300D01*
X0277500Y0399500D01*
X0286997Y0385803D02*
X0289400Y0383400D01*
X0292621D01*
X0292950Y0394575D02*
Y0407050D01*
X0289925Y0391550D02*
X0292950Y0394575D01*
X0289925Y0391525D02*
Y0391550D01*
X0288497Y0388023D02*
X0289429Y0388956D01*
X0289477D01*
X0286997Y0388645D02*
X0288808Y0390456D01*
X0288856D01*
X0289925Y0391525D01*
X0288497Y0386704D02*
Y0388023D01*
X0289477Y0388956D02*
X0295100Y0394579D01*
Y0410500D01*
X0286997Y0385803D02*
Y0388645D01*
X0283900Y0391900D02*
X0284700Y0392700D01*
X0285400Y0389800D02*
X0286800Y0391200D01*
X0285000Y0410000D02*
X0286800Y0408200D01*
Y0391200D02*
Y0408200D01*
X0297000Y0403377D02*
X0299700Y0406077D01*
X0297000Y0392500D02*
Y0403377D01*
X0295200Y0387300D02*
X0295300Y0387400D01*
Y0390800D01*
X0297000Y0392500D01*
X0268900Y0392100D02*
Y0393300D01*
Y0392100D02*
X0271100Y0389900D01*
Y0385300D02*
Y0389900D01*
X0281279Y0376300D02*
X0281313Y0376333D01*
X0283233D01*
X0283900Y0377000D02*
Y0391900D01*
X0283233Y0376333D02*
X0283900Y0377000D01*
X0260469Y0378764D02*
X0260500Y0378795D01*
X0264400Y0380000D02*
Y0381100D01*
X0321290Y0347259D02*
Y0350848D01*
X0325227Y0347565D02*
Y0350848D01*
Y0347565D02*
X0328592Y0344200D01*
X0327200Y0347713D02*
Y0350843D01*
Y0347713D02*
X0328713Y0346200D01*
X0332700D01*
X0323258Y0347412D02*
Y0350848D01*
X0260500Y0382300D02*
X0263200D01*
X0264400Y0381100D01*
X0328592Y0344200D02*
X0335300D01*
X0323258Y0347412D02*
X0328570Y0342100D01*
X0335945D01*
X0335967Y0342078D01*
X0337417D01*
X0337439Y0342100D01*
X0344900D01*
X0329900Y0328600D02*
Y0336400D01*
X0319321Y0346979D02*
Y0350848D01*
Y0346979D02*
X0329900Y0336400D01*
X0278300Y0399600D02*
Y0399800D01*
X0277500Y0399500D02*
X0278300D01*
X0317353Y0347147D02*
Y0350848D01*
X0321290Y0347259D02*
X0333149Y0335400D01*
X0343200D01*
X0344900Y0337100D01*
D26*
X0267600Y0363699D02*
Y0366459D01*
X0277393Y0407232D02*
X0277938D01*
X0280350Y0404819D01*
X0253700Y0387400D02*
X0255000Y0388700D01*
X0252700Y0388400D02*
X0253700Y0387400D01*
X0252700Y0388400D02*
Y0388600D01*
X0256300Y0388700D02*
X0258400D01*
X0255000D02*
X0256300D01*
X0252700D02*
X0255000D01*
X0254987Y0381913D02*
X0257221D01*
X0253700Y0383200D02*
X0254987Y0381913D01*
X0253700Y0383200D02*
Y0387200D01*
X0314000Y0377700D02*
X0324827Y0366873D01*
X0309700Y0361400D02*
Y0374800D01*
X0312600Y0377700D02*
X0319490Y0384590D01*
X0300100Y0384700D02*
X0300800Y0385400D01*
X0312600Y0377700D02*
X0314000D01*
X0262541Y0357941D02*
X0262600Y0358000D01*
X0260760Y0357941D02*
X0262541D01*
X0260760D02*
Y0360500D01*
X0268181Y0358000D02*
X0268240Y0357941D01*
X0262600Y0358000D02*
X0268181D01*
X0262700Y0369500D02*
X0262900Y0369700D01*
X0262700Y0367900D02*
Y0369500D01*
X0280300Y0389800D02*
Y0392400D01*
X0258500Y0378764D02*
X0260164D01*
X0252900Y0396100D02*
X0257900D01*
X0260500Y0378795D02*
Y0384800D01*
X0279149Y0397550D02*
X0280350Y0398751D01*
X0266300Y0389074D02*
X0266374Y0389000D01*
X0279149Y0397549D02*
Y0397550D01*
X0278780Y0397241D02*
X0278841D01*
X0279149Y0397549D01*
X0276760Y0395220D02*
X0278780Y0397241D01*
X0276760Y0393776D02*
Y0395220D01*
X0266300Y0389074D02*
Y0399400D01*
X0280350Y0398751D02*
Y0404819D01*
X0266300Y0399400D02*
X0274200Y0407300D01*
X0277325D01*
X0277393Y0407232D01*
D27*
X0247659Y0391541D02*
X0252200D01*
Y0389100D02*
Y0391541D01*
Y0389100D02*
X0252700Y0388600D01*
X0252500Y0396500D02*
X0252900Y0396100D01*
X0247547Y0396500D02*
X0252500D01*
X0246600Y0397446D02*
X0247547Y0396500D01*
X0261641Y0344300D02*
X0266800D01*
X0259000Y0346941D02*
X0261641Y0344300D01*
X0262700Y0353200D02*
X0266131D01*
X0259000Y0352059D02*
X0261559D01*
X0262700Y0353200D01*
X0253400Y0347000D02*
X0258200D01*
X0329700Y0353000D02*
X0332700D01*
X0333900Y0354200D01*
Y0357500D01*
X0334000Y0357600D01*
X0345100D01*
D29*
X0235000Y0371300D02*
Y0373100D01*
X0235900Y0369900D02*
X0243500D01*
X0235000Y0371300D02*
X0235900Y0369900D01*
X0239700Y0363000D02*
X0243600D01*
X0234500Y0357800D02*
X0239700Y0363000D01*
X0234500Y0357500D02*
Y0357800D01*
D35*
X0247000Y0343600D02*
D03*
X0244500Y0351200D02*
D03*
X0257800Y0396000D02*
D03*
X0317600Y0385600D02*
D03*
X0333200Y0349200D02*
D03*
D36*
X0234800Y0358229D02*
D03*
Y0372371D02*
D03*
D37*
X0277800Y0384139D02*
D03*
Y0364061D02*
D03*
D38*
X0344900Y0410500D02*
D03*
X0339900D02*
D03*
X0334900D02*
D03*
X0329900D02*
D03*
X0324900D02*
D03*
X0319900D02*
D03*
X0314900D02*
D03*
X0309900D02*
D03*
X0304900D02*
D03*
X0299900D02*
D03*
X0294900D02*
D03*
X0289900D02*
D03*
X0284900D02*
D03*
X0339900Y0328600D02*
D03*
X0334900D02*
D03*
X0329900D02*
D03*
X0324900D02*
D03*
X0319900D02*
D03*
X0314900D02*
D03*
X0309900D02*
D03*
X0304900D02*
D03*
X0299900D02*
D03*
X0294900D02*
D03*
X0289900D02*
D03*
X0284900D02*
D03*
X0279900D02*
D03*
X0344900Y0335600D02*
D03*
Y0340600D02*
D03*
Y0345600D02*
D03*
Y0357100D02*
D03*
Y0362100D02*
D03*
Y0367100D02*
D03*
Y0372100D02*
D03*
Y0377100D02*
D03*
Y0382100D02*
D03*
Y0387100D02*
D03*
Y0392100D02*
D03*
Y0397100D02*
D03*
D39*
X0279900Y0410500D02*
D03*
X0344900Y0328600D02*
D03*
D40*
Y0350600D02*
D03*
Y0402100D02*
D03*
D41*
X0256300Y0388700D02*
D03*
X0276300Y0389500D02*
D03*
X0262700Y0353200D02*
D03*
X0297400Y0339600D02*
D03*
X0321100Y0357300D02*
D03*
X0271700Y0336400D02*
D03*
X0278300Y0399600D02*
D03*
D42*
X0269400Y0399300D02*
D03*
X0334200Y0367800D02*
D03*
X0338400Y0377500D02*
D03*
X0335700Y0369700D02*
D03*
X0307400Y0398600D02*
D03*
X0327300D02*
D03*
X0309500D02*
D03*
X0307500Y0382900D02*
D03*
X0325300Y0398600D02*
D03*
X0321200D02*
D03*
X0323300D02*
D03*
X0262600Y0358000D02*
D03*
X0262900Y0369700D02*
D03*
X0304700Y0360200D02*
D03*
X0335700Y0365700D02*
D03*
X0291300Y0361700D02*
D03*
X0288900Y0363800D02*
D03*
X0285400Y0364300D02*
D03*
X0291700Y0355400D02*
D03*
X0286300Y0362200D02*
D03*
X0294800Y0359800D02*
D03*
X0311400Y0344600D02*
D03*
X0301400Y0346100D02*
D03*
X0300200Y0337600D02*
D03*
X0303600Y0346300D02*
D03*
X0286000Y0374900D02*
D03*
X0290200Y0379500D02*
D03*
X0274000Y0375800D02*
D03*
X0275900Y0368600D02*
D03*
X0275728Y0370750D02*
D03*
X0305500Y0400400D02*
D03*
X0315500Y0398500D02*
D03*
X0311321Y0396315D02*
D03*
X0288600Y0392900D02*
D03*
X0332700Y0346200D02*
D03*
X0337100Y0344200D02*
D03*
D43*
X0339500Y0390800D02*
D03*
D44*
X0266400Y0344300D02*
D03*
D45*
X0277700Y0372800D02*
D03*
X0268500Y0388900D02*
D03*
X0290700Y0387400D02*
D03*
X0301600Y0399000D02*
D03*
X0299400Y0392500D02*
D03*
X0268900Y0393200D02*
D03*
X0263100Y0384700D02*
D03*
X0317500Y0347100D02*
D03*
X0330900Y0340300D02*
D03*
X0275500Y0407300D02*
D03*
X0335600Y0337300D02*
D03*
D46*
X0251100Y0385800D02*
D03*
X0317200Y0344500D02*
D03*
D49*
X0271609Y0352840D02*
D03*
X0266491D02*
D03*
Y0345360D02*
D03*
X0271609D02*
D03*
D50*
X0319221Y0339100D02*
D03*
X0309379D02*
D03*
D51*
X0243700Y0369100D02*
D03*
D52*
X0281279Y0377875D02*
D03*
Y0376300D02*
D03*
Y0374725D02*
D03*
X0277520D02*
D03*
Y0376300D02*
D03*
Y0377875D02*
D03*
D53*
X0336152Y0357836D02*
D03*
Y0359805D02*
D03*
Y0361773D02*
D03*
Y0363742D02*
D03*
Y0365710D02*
D03*
Y0367679D02*
D03*
Y0369647D02*
D03*
Y0371616D02*
D03*
Y0373584D02*
D03*
Y0375553D02*
D03*
Y0377521D02*
D03*
Y0379490D02*
D03*
Y0381458D02*
D03*
Y0383427D02*
D03*
Y0385395D02*
D03*
Y0387364D02*
D03*
X0292648D02*
D03*
Y0385395D02*
D03*
Y0383427D02*
D03*
Y0381458D02*
D03*
Y0379490D02*
D03*
Y0377521D02*
D03*
Y0375553D02*
D03*
Y0373584D02*
D03*
Y0371616D02*
D03*
Y0369647D02*
D03*
Y0367679D02*
D03*
Y0365710D02*
D03*
Y0363742D02*
D03*
Y0361773D02*
D03*
Y0359805D02*
D03*
Y0357836D02*
D03*
D54*
X0329164Y0394352D02*
D03*
X0327195D02*
D03*
X0325227D02*
D03*
X0323258D02*
D03*
X0321290D02*
D03*
X0319321D02*
D03*
X0317353D02*
D03*
X0315384D02*
D03*
X0313416D02*
D03*
X0311447D02*
D03*
X0309479D02*
D03*
X0307510D02*
D03*
X0305542D02*
D03*
X0303573D02*
D03*
X0301605D02*
D03*
X0299636D02*
D03*
Y0350848D02*
D03*
X0301605D02*
D03*
X0303573D02*
D03*
X0305542D02*
D03*
X0307510D02*
D03*
X0309479D02*
D03*
X0311447D02*
D03*
X0313416D02*
D03*
X0315384D02*
D03*
X0317353D02*
D03*
X0319321D02*
D03*
X0321290D02*
D03*
X0323258D02*
D03*
X0325227D02*
D03*
X0327195D02*
D03*
D55*
X0329164D02*
D03*
D56*
X0314400Y0372600D02*
D03*
D57*
X0284240Y0393776D02*
D03*
X0280500D02*
D03*
X0276760D02*
D03*
Y0403224D02*
D03*
X0284240D02*
D03*
D58*
X0257221Y0385850D02*
D03*
Y0383882D02*
D03*
Y0381913D02*
D03*
X0267653D02*
D03*
Y0383882D02*
D03*
Y0385850D02*
D03*
D59*
X0258500Y0378764D02*
D03*
X0260469D02*
D03*
X0262437D02*
D03*
X0264405D02*
D03*
X0266374D02*
D03*
Y0389000D02*
D03*
X0264405D02*
D03*
X0262437D02*
D03*
X0260469D02*
D03*
X0258500D02*
D03*
M02*
