%FSAX25Y25*%
%MOIN*%
G70*
G01*
G75*
%ADD10R,0.02362X0.08661*%
%ADD11R,0.03543X0.02756*%
%ADD12R,0.02756X0.03543*%
%ADD13R,0.03622X0.01575*%
%ADD14R,0.01575X0.01575*%
%ADD15R,0.05118X0.05906*%
%ADD16R,0.01575X0.01575*%
%ADD17R,0.03937X0.02756*%
%ADD18R,0.04331X0.03937*%
%ADD19R,0.03347X0.03937*%
%ADD20R,0.03347X0.03937*%
%ADD21R,0.00866X0.02756*%
%ADD22R,0.03937X0.04331*%
%ADD23R,0.03937X0.09055*%
%ADD24C,0.01000*%
%ADD25C,0.00800*%
%ADD26C,0.01200*%
%ADD27C,0.01500*%
%ADD28C,0.02400*%
%ADD29C,0.04000*%
%ADD30C,0.02000*%
%ADD31C,0.02500*%
%ADD32C,0.03543*%
%ADD33C,0.03000*%
%ADD34C,0.01400*%
%ADD35C,0.03000*%
%ADD36C,0.05500*%
%ADD37C,0.06299*%
%ADD38C,0.03937*%
%ADD39R,0.03937X0.03937*%
%ADD40R,0.03937X0.03937*%
%ADD41C,0.01500*%
%ADD42C,0.01300*%
%ADD43C,0.02000*%
%ADD44C,0.02400*%
%ADD45C,0.01400*%
%ADD46C,0.01800*%
G04:AMPARAMS|DCode=47|XSize=193.75mil|YSize=195.16mil|CornerRadius=0mil|HoleSize=0mil|Usage=FLASHONLY|Rotation=45.000|XOffset=0mil|YOffset=0mil|HoleType=Round|Shape=Rectangle|*
%AMROTATEDRECTD47*
4,1,4,0.00050,-0.13750,-0.13750,0.00050,-0.00050,0.13750,0.13750,-0.00050,0.00050,-0.13750,0.0*
%
%ADD47ROTATEDRECTD47*%

%ADD48R,0.05309X0.05255*%
%ADD49R,0.01575X0.03622*%
%ADD50R,0.03937X0.07087*%
%ADD51R,0.03622X0.02362*%
%ADD52R,0.02756X0.00866*%
%ADD53O,0.06102X0.00984*%
%ADD54O,0.00984X0.06102*%
%ADD55R,0.00984X0.06102*%
%ADD56R,0.34252X0.34252*%
%ADD57R,0.02362X0.04331*%
%ADD58R,0.03150X0.01181*%
%ADD59R,0.01181X0.03642*%
%ADD60C,0.00787*%
%ADD61C,0.00984*%
%ADD62C,0.00394*%
%ADD63C,0.00300*%
%ADD64C,0.00500*%
%ADD65C,0.00299*%
%ADD66R,0.03162X0.09461*%
%ADD67R,0.04343X0.03556*%
%ADD68R,0.03556X0.04343*%
%ADD69R,0.04422X0.02375*%
%ADD70R,0.02375X0.02375*%
%ADD71R,0.05918X0.06706*%
%ADD72R,0.02375X0.02375*%
%ADD73R,0.04737X0.03556*%
%ADD74R,0.05131X0.04737*%
%ADD75R,0.04147X0.04737*%
%ADD76R,0.04147X0.04737*%
%ADD77R,0.01666X0.03556*%
%ADD78R,0.04737X0.05131*%
%ADD79R,0.04737X0.09855*%
%ADD80C,0.03800*%
%ADD81C,0.06300*%
%ADD82C,0.07099*%
%ADD83C,0.04737*%
%ADD84R,0.04737X0.04737*%
%ADD85R,0.04737X0.04737*%
%ADD86C,0.02200*%
%ADD87R,0.02375X0.04422*%
%ADD88R,0.04737X0.07887*%
%ADD89R,0.04422X0.03162*%
%ADD90R,0.03556X0.01666*%
%ADD91O,0.06902X0.01784*%
%ADD92O,0.01784X0.06902*%
%ADD93R,0.01784X0.06902*%
%ADD94R,0.35052X0.35052*%
%ADD95R,0.03162X0.05131*%
%ADD96R,0.03950X0.01981*%
%ADD97R,0.01981X0.04442*%
%ADD98C,0.01575*%
%ADD99C,0.00200*%
%ADD100C,0.00667*%
D64*
X0246000Y0343600D02*
X0248000D01*
X0247000Y0342600D02*
Y0344600D01*
X0232800Y0358229D02*
X0236800D01*
X0234800Y0356229D02*
Y0360229D01*
X0232800Y0372371D02*
X0236800D01*
X0234800Y0370371D02*
Y0374371D01*
X0275438Y0384139D02*
X0280162D01*
X0277800Y0381777D02*
Y0386502D01*
X0275438Y0364061D02*
X0280162D01*
X0277800Y0361698D02*
Y0366423D01*
X0243500Y0351200D02*
X0245500D01*
X0244500Y0350200D02*
Y0352200D01*
X0343719Y0410500D02*
X0346081D01*
X0344900Y0409319D02*
Y0411681D01*
X0338719Y0410500D02*
X0341081D01*
X0339900Y0409319D02*
Y0411681D01*
X0333719Y0410500D02*
X0336081D01*
X0334900Y0409319D02*
Y0411681D01*
X0328719Y0410500D02*
X0331081D01*
X0329900Y0409319D02*
Y0411681D01*
X0323719Y0410500D02*
X0326081D01*
X0324900Y0409319D02*
Y0411681D01*
X0318719Y0410500D02*
X0321081D01*
X0319900Y0409319D02*
Y0411681D01*
X0313719Y0410500D02*
X0316081D01*
X0314900Y0409319D02*
Y0411681D01*
X0308719Y0410500D02*
X0311081D01*
X0309900Y0409319D02*
Y0411681D01*
X0303719Y0410500D02*
X0306081D01*
X0304900Y0409319D02*
Y0411681D01*
X0298719Y0410500D02*
X0301081D01*
X0299900Y0409319D02*
Y0411681D01*
X0293719Y0410500D02*
X0296081D01*
X0294900Y0409319D02*
Y0411681D01*
X0288719Y0410500D02*
X0291081D01*
X0289900Y0409319D02*
Y0411681D01*
X0283719Y0410500D02*
X0286081D01*
X0284900Y0409319D02*
Y0411681D01*
X0278719Y0410500D02*
X0281081D01*
X0279900Y0409319D02*
Y0411681D01*
X0343719Y0328600D02*
X0346081D01*
X0344900Y0327419D02*
Y0329781D01*
X0338719Y0328600D02*
X0341081D01*
X0339900Y0327419D02*
Y0329781D01*
X0333719Y0328600D02*
X0336081D01*
X0334900Y0327419D02*
Y0329781D01*
X0328719Y0328600D02*
X0331081D01*
X0329900Y0327419D02*
Y0329781D01*
X0323719Y0328600D02*
X0326081D01*
X0324900Y0327419D02*
Y0329781D01*
X0318719Y0328600D02*
X0321081D01*
X0319900Y0327419D02*
Y0329781D01*
X0313719Y0328600D02*
X0316081D01*
X0314900Y0327419D02*
Y0329781D01*
X0308719Y0328600D02*
X0311081D01*
X0309900Y0327419D02*
Y0329781D01*
X0303719Y0328600D02*
X0306081D01*
X0304900Y0327419D02*
Y0329781D01*
X0298719Y0328600D02*
X0301081D01*
X0299900Y0327419D02*
Y0329781D01*
X0293719Y0328600D02*
X0296081D01*
X0294900Y0327419D02*
Y0329781D01*
X0288719Y0328600D02*
X0291081D01*
X0289900Y0327419D02*
Y0329781D01*
X0283719Y0328600D02*
X0286081D01*
X0284900Y0327419D02*
Y0329781D01*
X0278719Y0328600D02*
X0281081D01*
X0279900Y0327419D02*
Y0329781D01*
X0343719Y0335600D02*
X0346081D01*
X0344900Y0334419D02*
Y0336781D01*
X0343719Y0340600D02*
X0346081D01*
X0344900Y0339419D02*
Y0341781D01*
X0343719Y0345600D02*
X0346081D01*
X0344900Y0344419D02*
Y0346781D01*
X0343719Y0350600D02*
X0346081D01*
X0344900Y0349419D02*
Y0351781D01*
X0343719Y0357100D02*
X0346081D01*
X0344900Y0355919D02*
Y0358281D01*
X0343719Y0362100D02*
X0346081D01*
X0344900Y0360919D02*
Y0363281D01*
X0343719Y0367100D02*
X0346081D01*
X0344900Y0365919D02*
Y0368281D01*
X0343719Y0372100D02*
X0346081D01*
X0344900Y0370919D02*
Y0373281D01*
X0343719Y0377100D02*
X0346081D01*
X0344900Y0375919D02*
Y0378281D01*
X0343719Y0382100D02*
X0346081D01*
X0344900Y0380919D02*
Y0383281D01*
X0343719Y0387100D02*
X0346081D01*
X0344900Y0385919D02*
Y0388281D01*
X0343719Y0392100D02*
X0346081D01*
X0344900Y0390919D02*
Y0393281D01*
X0343719Y0397100D02*
X0346081D01*
X0344900Y0395919D02*
Y0398281D01*
X0343719Y0402100D02*
X0346081D01*
X0344900Y0400919D02*
Y0403281D01*
X0255800Y0388700D02*
X0256800D01*
X0256300Y0388200D02*
Y0389200D01*
X0275800Y0389500D02*
X0276800D01*
X0276300Y0389000D02*
Y0390000D01*
X0256800Y0396000D02*
X0258800D01*
X0257800Y0395000D02*
Y0397000D01*
X0269000Y0399300D02*
X0269800D01*
X0269400Y0398900D02*
Y0399700D01*
X0333800Y0367800D02*
X0334600D01*
X0334200Y0367400D02*
Y0368200D01*
X0338000Y0377500D02*
X0338800D01*
X0338400Y0377100D02*
Y0377900D01*
X0335300Y0369700D02*
X0336100D01*
X0335700Y0369300D02*
Y0370100D01*
X0338900Y0390800D02*
X0340100D01*
X0339500Y0390200D02*
Y0391400D01*
X0307000Y0398600D02*
X0307800D01*
X0307400Y0398200D02*
Y0399000D01*
X0326900Y0398600D02*
X0327700D01*
X0327300Y0398200D02*
Y0399000D01*
X0309100Y0398600D02*
X0309900D01*
X0309500Y0398200D02*
Y0399000D01*
X0307100Y0382900D02*
X0307900D01*
X0307500Y0382500D02*
Y0383300D01*
X0324900Y0398600D02*
X0325700D01*
X0325300Y0398200D02*
Y0399000D01*
X0320800Y0398600D02*
X0321600D01*
X0321200Y0398200D02*
Y0399000D01*
X0322900Y0398600D02*
X0323700D01*
X0323300Y0398200D02*
Y0399000D01*
X0265600Y0344300D02*
X0267200D01*
X0266400Y0343500D02*
Y0345100D01*
X0262200Y0358000D02*
X0263000D01*
X0262600Y0357600D02*
Y0358400D01*
X0262500Y0369700D02*
X0263300D01*
X0262900Y0369300D02*
Y0370100D01*
X0262200Y0353200D02*
X0263200D01*
X0262700Y0352700D02*
Y0353700D01*
X0296900Y0339600D02*
X0297900D01*
X0297400Y0339100D02*
Y0340100D01*
X0320600Y0357300D02*
X0321600D01*
X0321100Y0356800D02*
Y0357800D01*
X0304300Y0360200D02*
X0305100D01*
X0304700Y0359800D02*
Y0360600D01*
X0316600Y0385600D02*
X0318600D01*
X0317600Y0384600D02*
Y0386600D01*
X0332200Y0349200D02*
X0334200D01*
X0333200Y0348200D02*
Y0350200D01*
X0271200Y0336400D02*
X0272200D01*
X0271700Y0335900D02*
Y0336900D01*
X0335300Y0365700D02*
X0336100D01*
X0335700Y0365300D02*
Y0366100D01*
X0290900Y0361700D02*
X0291700D01*
X0291300Y0361300D02*
Y0362100D01*
X0288500Y0363800D02*
X0289300D01*
X0288900Y0363400D02*
Y0364200D01*
X0285000Y0364300D02*
X0285800D01*
X0285400Y0363900D02*
Y0364700D01*
X0291300Y0355400D02*
X0292100D01*
X0291700Y0355000D02*
Y0355800D01*
X0285900Y0362200D02*
X0286700D01*
X0286300Y0361800D02*
Y0362600D01*
X0294400Y0359800D02*
X0295200D01*
X0294800Y0359400D02*
Y0360200D01*
X0311000Y0344600D02*
X0311800D01*
X0311400Y0344200D02*
Y0345000D01*
X0301000Y0346100D02*
X0301800D01*
X0301400Y0345700D02*
Y0346500D01*
X0299800Y0337600D02*
X0300600D01*
X0300200Y0337200D02*
Y0338000D01*
X0303200Y0346300D02*
X0304000D01*
X0303600Y0345900D02*
Y0346700D01*
X0285600Y0374900D02*
X0286400D01*
X0286000Y0374500D02*
Y0375300D01*
X0289800Y0379500D02*
X0290600D01*
X0290200Y0379100D02*
Y0379900D01*
X0273600Y0375800D02*
X0274400D01*
X0274000Y0375400D02*
Y0376200D01*
X0275500Y0368600D02*
X0276300D01*
X0275900Y0368200D02*
Y0369000D01*
X0275328Y0370750D02*
X0276128D01*
X0275728Y0370350D02*
Y0371150D01*
X0277300Y0372800D02*
X0278100D01*
X0277700Y0372400D02*
Y0373200D01*
X0268100Y0388900D02*
X0268900D01*
X0268500Y0388500D02*
Y0389300D01*
X0290300Y0387400D02*
X0291100D01*
X0290700Y0387000D02*
Y0387800D01*
X0305100Y0400400D02*
X0305900D01*
X0305500Y0400000D02*
Y0400800D01*
X0315100Y0398500D02*
X0315900D01*
X0315500Y0398100D02*
Y0398900D01*
X0310921Y0396315D02*
X0311721D01*
X0311321Y0395915D02*
Y0396715D01*
X0301200Y0399000D02*
X0302000D01*
X0301600Y0398600D02*
Y0399400D01*
X0288200Y0392900D02*
X0289000D01*
X0288600Y0392500D02*
Y0393300D01*
X0299000Y0392500D02*
X0299800D01*
X0299400Y0392100D02*
Y0392900D01*
X0268500Y0393200D02*
X0269300D01*
X0268900Y0392800D02*
Y0393600D01*
X0250600Y0385800D02*
X0251600D01*
X0251100Y0385300D02*
Y0386300D01*
X0262700Y0384700D02*
X0263500D01*
X0263100Y0384300D02*
Y0385100D01*
X0316600Y0344500D02*
X0317800D01*
X0317200Y0343900D02*
Y0345100D01*
X0332300Y0346200D02*
X0333100D01*
X0332700Y0345800D02*
Y0346600D01*
X0277800Y0399600D02*
X0278800D01*
X0278300Y0399100D02*
Y0400100D01*
X0336700Y0344200D02*
X0337500D01*
X0337100Y0343800D02*
Y0344600D01*
X0317100Y0347100D02*
X0317900D01*
X0317500Y0346700D02*
Y0347500D01*
X0330500Y0340300D02*
X0331300D01*
X0330900Y0339900D02*
Y0340700D01*
X0275100Y0407300D02*
X0275900D01*
X0275500Y0406900D02*
Y0407700D01*
X0335200Y0337300D02*
X0336000D01*
X0335600Y0336900D02*
Y0337700D01*
M02*
