%FSDAX25Y25*%
%MOIN*%
%SFA1B1*%

%IPPOS*%
%ADD97C,0.002000*%
%LNmoo1.1-1*%
%LPD*%
G54D97*
X0343719Y0402100D02*
X0346081D01*
X0344900Y0400919D02*
Y0403281D01*
X0343719Y0397100D02*
X0346081D01*
X0344900Y0395919D02*
Y0398281D01*
X0343719Y0392100D02*
X0346081D01*
X0344900Y0390919D02*
Y0393281D01*
X0343719Y0387100D02*
X0346081D01*
X0344900Y0385919D02*
Y0388281D01*
X0343719Y0382100D02*
X0346081D01*
X0344900Y0380919D02*
Y0383281D01*
X0343719Y0377100D02*
X0346081D01*
X0344900Y0375919D02*
Y0378281D01*
X0343719Y0372100D02*
X0346081D01*
X0344900Y0370919D02*
Y0373281D01*
X0343719Y0367100D02*
X0346081D01*
X0344900Y0365919D02*
Y0368281D01*
X0343719Y0362100D02*
X0346081D01*
X0344900Y0360919D02*
Y0363281D01*
X0343719Y0357100D02*
X0346081D01*
X0344900Y0355919D02*
Y0358281D01*
X0343719Y0350600D02*
X0346081D01*
X0344900Y0349419D02*
Y0351781D01*
X0343719Y0345600D02*
X0346081D01*
X0344900Y0344419D02*
Y0346781D01*
X0343719Y0340600D02*
X0346081D01*
X0344900Y0339419D02*
Y0341781D01*
X0343719Y0335600D02*
X0346081D01*
X0344900Y0334419D02*
Y0336781D01*
X0278719Y0328600D02*
X0281081D01*
X0279900Y0327419D02*
Y0329781D01*
X0283719Y0328600D02*
X0286081D01*
X0284900Y0327419D02*
Y0329781D01*
X0288719Y0328600D02*
X0291081D01*
X0289900Y0327419D02*
Y0329781D01*
X0293719Y0328600D02*
X0296081D01*
X0294900Y0327419D02*
Y0329781D01*
X0298719Y0328600D02*
X0301081D01*
X0299900Y0327419D02*
Y0329781D01*
X0303719Y0328600D02*
X0306081D01*
X0304900Y0327419D02*
Y0329781D01*
X0308719Y0328600D02*
X0311081D01*
X0309900Y0327419D02*
Y0329781D01*
X0313719Y0328600D02*
X0316081D01*
X0314900Y0327419D02*
Y0329781D01*
X0318719Y0328600D02*
X0321081D01*
X0319900Y0327419D02*
Y0329781D01*
X0323719Y0328600D02*
X0326081D01*
X0324900Y0327419D02*
Y0329781D01*
X0328719Y0328600D02*
X0331081D01*
X0329900Y0327419D02*
Y0329781D01*
X0333719Y0328600D02*
X0336081D01*
X0334900Y0327419D02*
Y0329781D01*
X0338719Y0328600D02*
X0341081D01*
X0339900Y0327419D02*
Y0329781D01*
X0343719Y0328600D02*
X0346081D01*
X0344900Y0327419D02*
Y0329781D01*
X0278719Y0410500D02*
X0281081D01*
X0279900Y0409319D02*
Y0411681D01*
X0283719Y0410500D02*
X0286081D01*
X0284900Y0409319D02*
Y0411681D01*
X0288719Y0410500D02*
X0291081D01*
X0289900Y0409319D02*
Y0411681D01*
X0293719Y0410500D02*
X0296081D01*
X0294900Y0409319D02*
Y0411681D01*
X0298719Y0410500D02*
X0301081D01*
X0299900Y0409319D02*
Y0411681D01*
X0303719Y0410500D02*
X0306081D01*
X0304900Y0409319D02*
Y0411681D01*
X0308719Y0410500D02*
X0311081D01*
X0309900Y0409319D02*
Y0411681D01*
X0313719Y0410500D02*
X0316081D01*
X0314900Y0409319D02*
Y0411681D01*
X0318719Y0410500D02*
X0321081D01*
X0319900Y0409319D02*
Y0411681D01*
X0323719Y0410500D02*
X0326081D01*
X0324900Y0409319D02*
Y0411681D01*
X0328719Y0410500D02*
X0331081D01*
X0329900Y0409319D02*
Y0411681D01*
X0333719Y0410500D02*
X0336081D01*
X0334900Y0409319D02*
Y0411681D01*
X0338719Y0410500D02*
X0341081D01*
X0339900Y0409319D02*
Y0411681D01*
X0343719Y0410500D02*
X0346081D01*
X0344900Y0409319D02*
Y0411681D01*
X0243500Y0351200D02*
X0245500D01*
X0244500Y0350200D02*
Y0352200D01*
X0275438Y0364061D02*
X0280162D01*
X0277800Y0361698D02*
Y0366423D01*
X0275438Y0384139D02*
X0280162D01*
X0277800Y0381777D02*
Y0386502D01*
X0232800Y0372371D02*
X0236800D01*
X0234800Y0370371D02*
Y0374371D01*
X0232800Y0358229D02*
X0236800D01*
X0234800Y0356229D02*
Y0360229D01*
X0246000Y0343600D02*
X0248000D01*
X0247000Y0342600D02*
Y0344600D01*
X0303200Y0346300D02*
X0304000D01*
X0303600Y0345900D02*
Y0346700D01*
X0299800Y0337600D02*
X0300600D01*
X0300200Y0337200D02*
Y0338000D01*
X0301000Y0346100D02*
X0301800D01*
X0301400Y0345700D02*
Y0346500D01*
X0311000Y0344600D02*
X0311800D01*
X0311400Y0344200D02*
Y0345000D01*
X0317200Y0344800D02*
X0318400D01*
X0317800Y0344200D02*
Y0345400D01*
X0294400Y0359800D02*
X0295200D01*
X0294800Y0359400D02*
Y0360200D01*
X0285900Y0362200D02*
X0286700D01*
X0286300Y0361800D02*
Y0362600D01*
X0291300Y0355400D02*
X0292100D01*
X0291700Y0355000D02*
Y0355800D01*
X0285000Y0364300D02*
X0285800D01*
X0285400Y0363900D02*
Y0364700D01*
X0288500Y0363800D02*
X0289300D01*
X0288900Y0363400D02*
Y0364200D01*
X0290900Y0361700D02*
X0291700D01*
X0291300Y0361300D02*
Y0362100D01*
X0275500Y0368600D02*
X0276300D01*
X0275900Y0368200D02*
Y0369000D01*
X0276800Y0372800D02*
X0277600D01*
X0277200Y0372400D02*
Y0373200D01*
X0273500Y0376800D02*
X0274300D01*
X0273900Y0376400D02*
Y0377200D01*
X0335300Y0365700D02*
X0336100D01*
X0335700Y0365300D02*
Y0366100D01*
X0285600Y0374900D02*
X0286400D01*
X0286000Y0374500D02*
Y0375300D01*
X0289800Y0379500D02*
X0290600D01*
X0290200Y0379100D02*
Y0379900D01*
X0281600Y0396600D02*
X0282600D01*
X0282100Y0396100D02*
Y0397100D01*
X0271200Y0336400D02*
X0272200D01*
X0271700Y0335900D02*
Y0336900D01*
X0315100Y0398500D02*
X0315900D01*
X0315500Y0398100D02*
Y0398900D01*
X0268900Y0398000D02*
X0269700D01*
X0269300Y0397600D02*
Y0398400D01*
X0332200Y0349200D02*
X0334200D01*
X0333200Y0348200D02*
Y0350200D01*
X0286300Y0390900D02*
X0287100D01*
X0286700Y0390500D02*
Y0391300D01*
X0333700Y0363700D02*
X0334500D01*
X0334100Y0363300D02*
Y0364100D01*
X0316600Y0385600D02*
X0318600D01*
X0317600Y0384600D02*
Y0386600D01*
X0304300Y0360200D02*
X0305100D01*
X0304700Y0359800D02*
Y0360600D01*
X0311200Y0398600D02*
X0312000D01*
X0311600Y0398200D02*
Y0399000D01*
X0320600Y0357300D02*
X0321600D01*
X0321100Y0356800D02*
Y0357800D01*
X0275900Y0393100D02*
X0276900D01*
X0276400Y0392600D02*
Y0393600D01*
X0296900Y0339600D02*
X0297900D01*
X0297400Y0339100D02*
Y0340100D01*
X0275400Y0370800D02*
X0276200D01*
X0275800Y0370400D02*
Y0371200D01*
X0262200Y0353200D02*
X0263200D01*
X0262700Y0352700D02*
Y0353700D01*
X0250200Y0386200D02*
X0251200D01*
X0250700Y0385700D02*
Y0386700D01*
X0253000Y0391300D02*
X0254000D01*
X0253500Y0390800D02*
Y0391800D01*
X0262500Y0369700D02*
X0263300D01*
X0262900Y0369300D02*
Y0370100D01*
X0262200Y0358000D02*
X0263000D01*
X0262600Y0357600D02*
Y0358400D01*
X0257300Y0391000D02*
X0259300D01*
X0258300Y0390000D02*
Y0392000D01*
X0265600Y0344300D02*
X0267200D01*
X0266400Y0343500D02*
Y0345100D01*
X0281600Y0386500D02*
X0282600D01*
X0282100Y0386000D02*
Y0387000D01*
X0322900Y0398600D02*
X0323700D01*
X0323300Y0398200D02*
Y0399000D01*
X0320800Y0398600D02*
X0321600D01*
X0321200Y0398200D02*
Y0399000D01*
X0324900Y0398600D02*
X0325700D01*
X0325300Y0398200D02*
Y0399000D01*
X0291600Y0381400D02*
X0292400D01*
X0292000Y0381000D02*
Y0381800D01*
X0334900Y0344200D02*
X0335700D01*
X0335300Y0343800D02*
Y0344600D01*
X0332300Y0346200D02*
X0333100D01*
X0332700Y0345800D02*
Y0346600D01*
X0293600Y0383500D02*
X0294400D01*
X0294000Y0383100D02*
Y0383900D01*
X0307100Y0382900D02*
X0307900D01*
X0307500Y0382500D02*
Y0383300D01*
X0309100Y0398600D02*
X0309900D01*
X0309500Y0398200D02*
Y0399000D01*
X0326900Y0398600D02*
X0327700D01*
X0327300Y0398200D02*
Y0399000D01*
X0307000Y0398600D02*
X0307800D01*
X0307400Y0398200D02*
Y0399000D01*
X0305100Y0400400D02*
X0305900D01*
X0305500Y0400000D02*
Y0400800D01*
X0338900Y0390800D02*
X0340100D01*
X0339500Y0390200D02*
Y0391400D01*
X0335300Y0369700D02*
X0336100D01*
X0335700Y0369300D02*
Y0370100D01*
X0338000Y0377500D02*
X0338800D01*
X0338400Y0377100D02*
Y0377900D01*
X0333800Y0367800D02*
X0334600D01*
X0334200Y0367400D02*
Y0368200D01*
M02*