%FSDAX25Y25*%
%MOIN*%
%SFA1B1*%

%IPPOS*%
%ADD97C,0.002000*%
%ADD98C,0.006670*%
%LNmoo1.1-1*%
%LPD*%
G54D97*
X0342900Y0400100D02*
Y0404100D01*
X0346900*
Y0400100*
X0342900*
Y0395100D02*
Y0399100D01*
X0346900*
Y0395100*
X0342900*
Y0390100D02*
Y0394100D01*
X0346900*
Y0390100*
X0342900*
Y0385100D02*
Y0389100D01*
X0346900*
Y0385100*
X0342900*
Y0380100D02*
Y0384100D01*
X0346900*
Y0380100*
X0342900*
Y0375100D02*
Y0379100D01*
X0346900*
Y0375100*
X0342900*
Y0370100D02*
Y0374100D01*
X0346900*
Y0370100*
X0342900*
Y0365100D02*
Y0369100D01*
X0346900*
Y0365100*
X0342900*
Y0360100D02*
Y0364100D01*
X0346900*
Y0360100*
X0342900*
Y0355100D02*
Y0359100D01*
X0346900*
Y0355100*
X0342900*
Y0348600D02*
Y0352600D01*
X0346900*
Y0348600*
X0342900*
Y0343600D02*
Y0347600D01*
X0346900*
Y0343600*
X0342900*
Y0338600D02*
Y0342600D01*
X0346900*
Y0338600*
X0342900*
Y0333600D02*
Y0337600D01*
X0346900*
Y0333600*
X0342900*
X0277900Y0326600D02*
Y0330600D01*
X0281900*
Y0326600*
X0277900*
X0282900D02*
Y0330600D01*
X0286900*
Y0326600*
X0282900*
X0287900D02*
Y0330600D01*
X0291900*
Y0326600*
X0287900*
X0292900D02*
Y0330600D01*
X0296900*
Y0326600*
X0292900*
X0297900D02*
Y0330600D01*
X0301900*
Y0326600*
X0297900*
X0302900D02*
Y0330600D01*
X0306900*
Y0326600*
X0302900*
X0307900D02*
Y0330600D01*
X0311900*
Y0326600*
X0307900*
X0312900D02*
Y0330600D01*
X0316900*
Y0326600*
X0312900*
X0317900D02*
Y0330600D01*
X0321900*
Y0326600*
X0317900*
X0322900D02*
Y0330600D01*
X0326900*
Y0326600*
X0322900*
X0327900D02*
Y0330600D01*
X0331900*
Y0326600*
X0327900*
X0332900D02*
Y0330600D01*
X0336900*
Y0326600*
X0332900*
X0337900D02*
Y0330600D01*
X0341900*
Y0326600*
X0337900*
X0342900D02*
Y0330600D01*
X0346900*
Y0326600*
X0342900*
X0277900Y0408500D02*
Y0412500D01*
X0281900*
Y0408500*
X0277900*
X0282900D02*
Y0412500D01*
X0286900*
Y0408500*
X0282900*
X0287900D02*
Y0412500D01*
X0291900*
Y0408500*
X0287900*
X0292900D02*
Y0412500D01*
X0296900*
Y0408500*
X0292900*
X0297900D02*
Y0412500D01*
X0301900*
Y0408500*
X0297900*
X0302900D02*
Y0412500D01*
X0306900*
Y0408500*
X0302900*
X0307900D02*
Y0412500D01*
X0311900*
Y0408500*
X0307900*
X0312900D02*
Y0412500D01*
X0316900*
Y0408500*
X0312900*
X0317900D02*
Y0412500D01*
X0321900*
Y0408500*
X0317900*
X0322900D02*
Y0412500D01*
X0326900*
Y0408500*
X0322900*
X0327900D02*
Y0412500D01*
X0331900*
Y0408500*
X0327900*
X0332900D02*
Y0412500D01*
X0336900*
Y0408500*
X0332900*
X0337900D02*
Y0412500D01*
X0341900*
Y0408500*
X0337900*
X0342900D02*
Y0412500D01*
X0346900*
Y0408500*
X0342900*
X0277800Y0362061D02*
X0275800Y0366061D01*
X0279800*
X0277800Y0362061*
Y0382139D02*
X0275800Y0386139D01*
X0279800*
X0277800Y0382139*
X0234800Y0370371D02*
X0235800Y0371371D01*
X0236800*
X0235800Y0372371*
X0236800Y0373371*
X0235800*
X0234800Y0374371*
X0233800Y0373371*
X0232800*
X0233800Y0372371*
X0232800Y0371371*
X0233800*
X0234800Y0370371*
Y0356229D02*
X0235800Y0357229D01*
X0236800*
X0235800Y0358229*
X0236800Y0359229*
X0235800*
X0234800Y0360229*
X0233800Y0359229*
X0232800*
X0233800Y0358229*
X0232800Y0357229*
X0233800*
X0234800Y0356229*
X0301600Y0344300D02*
X0302600Y0346300D01*
X0301600Y0348300*
X0303600Y0347300*
X0305600Y0348300*
X0304600Y0346300*
X0305600Y0344300*
X0303600Y0345300*
X0301600Y0344300*
X0298200Y0335600D02*
X0299200Y0337600D01*
X0298200Y0339600*
X0300200Y0338600*
X0302200Y0339600*
X0301200Y0337600*
X0302200Y0335600*
X0300200Y0336600*
X0298200Y0335600*
X0299400Y0344100D02*
X0300400Y0346100D01*
X0299400Y0348100*
X0301400Y0347100*
X0303400Y0348100*
X0302400Y0346100*
X0303400Y0344100*
X0301400Y0345100*
X0299400Y0344100*
X0309400Y0342600D02*
X0310400Y0344600D01*
X0309400Y0346600*
X0311400Y0345600*
X0313400Y0346600*
X0312400Y0344600*
X0313400Y0342600*
X0311400Y0343600*
X0309400Y0342600*
X0316800Y0343800D02*
Y0342800D01*
X0318800*
Y0343800*
X0319800*
Y0345800*
X0318800*
Y0346800*
X0316800*
Y0345800*
X0315800*
Y0343800*
X0316800*
X0292800Y0357800D02*
X0293800Y0359800D01*
X0292800Y0361800*
X0294800Y0360800*
X0296800Y0361800*
X0295800Y0359800*
X0296800Y0357800*
X0294800Y0358800*
X0292800Y0357800*
X0284300Y0360200D02*
X0285300Y0362200D01*
X0284300Y0364200*
X0286300Y0363200*
X0288300Y0364200*
X0287300Y0362200*
X0288300Y0360200*
X0286300Y0361200*
X0284300Y0360200*
X0289700Y0353400D02*
X0290700Y0355400D01*
X0289700Y0357400*
X0291700Y0356400*
X0293700Y0357400*
X0292700Y0355400*
X0293700Y0353400*
X0291700Y0354400*
X0289700Y0353400*
X0283400Y0362300D02*
X0284400Y0364300D01*
X0283400Y0366300*
X0285400Y0365300*
X0287400Y0366300*
X0286400Y0364300*
X0287400Y0362300*
X0285400Y0363300*
X0283400Y0362300*
X0286900Y0361800D02*
X0287900Y0363800D01*
X0286900Y0365800*
X0288900Y0364800*
X0290900Y0365800*
X0289900Y0363800*
X0290900Y0361800*
X0288900Y0362800*
X0286900Y0361800*
X0289300Y0359700D02*
X0290300Y0361700D01*
X0289300Y0363700*
X0291300Y0362700*
X0293300Y0363700*
X0292300Y0361700*
X0293300Y0359700*
X0291300Y0360700*
X0289300Y0359700*
X0273900Y0366600D02*
X0274900Y0368600D01*
X0273900Y0370600*
X0275900Y0369600*
X0277900Y0370600*
X0276900Y0368600*
X0277900Y0366600*
X0275900Y0367600*
X0273900Y0366600*
X0275200Y0370800D02*
X0276200Y0372800D01*
X0275200Y0374800*
X0277200Y0373800*
X0279200Y0374800*
X0278200Y0372800*
X0279200Y0370800*
X0277200Y0371800*
X0275200Y0370800*
X0271900Y0374800D02*
X0272900Y0376800D01*
X0271900Y0378800*
X0273900Y0377800*
X0275900Y0378800*
X0274900Y0376800*
X0275900Y0374800*
X0273900Y0375800*
X0271900Y0374800*
X0333700Y0363700D02*
X0334700Y0365700D01*
X0333700Y0367700*
X0335700Y0366700*
X0337700Y0367700*
X0336700Y0365700*
X0337700Y0363700*
X0335700Y0364700*
X0333700Y0363700*
X0284000Y0372900D02*
X0285000Y0374900D01*
X0284000Y0376900*
X0286000Y0375900*
X0288000Y0376900*
X0287000Y0374900*
X0288000Y0372900*
X0286000Y0373900*
X0284000Y0372900*
X0288200Y0377500D02*
X0289200Y0379500D01*
X0288200Y0381500*
X0290200Y0380500*
X0292200Y0381500*
X0291200Y0379500*
X0292200Y0377500*
X0290200Y0378500*
X0288200Y0377500*
X0280100Y0394600D02*
X0281100D01*
X0282100Y0395600*
X0283100Y0394600*
X0284100*
Y0395600*
X0283100Y0396600*
X0284100Y0397600*
Y0398600*
X0283100*
X0282100Y0397600*
X0281100Y0398600*
X0280100*
Y0397600*
X0281100Y0396600*
X0280100Y0395600*
Y0394600*
X0269700Y0334400D02*
X0270700D01*
X0271700Y0335400*
X0272700Y0334400*
X0273700*
Y0335400*
X0272700Y0336400*
X0273700Y0337400*
Y0338400*
X0272700*
X0271700Y0337400*
X0270700Y0338400*
X0269700*
Y0337400*
X0270700Y0336400*
X0269700Y0335400*
Y0334400*
X0313500Y0396500D02*
X0314500Y0398500D01*
X0313500Y0400500*
X0315500Y0399500*
X0317500Y0400500*
X0316500Y0398500*
X0317500Y0396500*
X0315500Y0397500*
X0313500Y0396500*
X0267300Y0396000D02*
X0268300Y0398000D01*
X0267300Y0400000*
X0269300Y0399000*
X0271300Y0400000*
X0270300Y0398000*
X0271300Y0396000*
X0269300Y0397000*
X0267300Y0396000*
X0284700Y0388900D02*
X0285700Y0390900D01*
X0284700Y0392900*
X0286700Y0391900*
X0288700Y0392900*
X0287700Y0390900*
X0288700Y0388900*
X0286700Y0389900*
X0284700Y0388900*
X0332100Y0361700D02*
X0333100Y0363700D01*
X0332100Y0365700*
X0334100Y0364700*
X0336100Y0365700*
X0335100Y0363700*
X0336100Y0361700*
X0334100Y0362700*
X0332100Y0361700*
X0302700Y0358200D02*
X0303700Y0360200D01*
X0302700Y0362200*
X0304700Y0361200*
X0306700Y0362200*
X0305700Y0360200*
X0306700Y0358200*
X0304700Y0359200*
X0302700Y0358200*
X0309600Y0396600D02*
X0310600Y0398600D01*
X0309600Y0400600*
X0311600Y0399600*
X0313600Y0400600*
X0312600Y0398600*
X0313600Y0396600*
X0311600Y0397600*
X0309600Y0396600*
X0319100Y0355300D02*
X0320100D01*
X0321100Y0356300*
X0322100Y0355300*
X0323100*
Y0356300*
X0322100Y0357300*
X0323100Y0358300*
Y0359300*
X0322100*
X0321100Y0358300*
X0320100Y0359300*
X0319100*
Y0358300*
X0320100Y0357300*
X0319100Y0356300*
Y0355300*
X0274400Y0391100D02*
X0275400D01*
X0276400Y0392100*
X0277400Y0391100*
X0278400*
Y0392100*
X0277400Y0393100*
X0278400Y0394100*
Y0395100*
X0277400*
X0276400Y0394100*
X0275400Y0395100*
X0274400*
Y0394100*
X0275400Y0393100*
X0274400Y0392100*
Y0391100*
X0295400Y0337600D02*
X0296400D01*
X0297400Y0338600*
X0298400Y0337600*
X0299400*
Y0338600*
X0298400Y0339600*
X0299400Y0340600*
Y0341600*
X0298400*
X0297400Y0340600*
X0296400Y0341600*
X0295400*
Y0340600*
X0296400Y0339600*
X0295400Y0338600*
Y0337600*
X0273800Y0368800D02*
X0274800Y0370800D01*
X0273800Y0372800*
X0275800Y0371800*
X0277800Y0372800*
X0276800Y0370800*
X0277800Y0368800*
X0275800Y0369800*
X0273800Y0368800*
X0260700Y0351200D02*
X0261700D01*
X0262700Y0352200*
X0263700Y0351200*
X0264700*
Y0352200*
X0263700Y0353200*
X0264700Y0354200*
Y0355200*
X0263700*
X0262700Y0354200*
X0261700Y0355200*
X0260700*
Y0354200*
X0261700Y0353200*
X0260700Y0352200*
Y0351200*
X0248700Y0384200D02*
X0249700D01*
X0250700Y0385200*
X0251700Y0384200*
X0252700*
Y0385200*
X0251700Y0386200*
X0252700Y0387200*
Y0388200*
X0251700*
X0250700Y0387200*
X0249700Y0388200*
X0248700*
Y0387200*
X0249700Y0386200*
X0248700Y0385200*
Y0384200*
X0251500Y0389300D02*
X0252500D01*
X0253500Y0390300*
X0254500Y0389300*
X0255500*
Y0390300*
X0254500Y0391300*
X0255500Y0392300*
Y0393300*
X0254500*
X0253500Y0392300*
X0252500Y0393300*
X0251500*
Y0392300*
X0252500Y0391300*
X0251500Y0390300*
Y0389300*
X0260900Y0367700D02*
X0261900Y0369700D01*
X0260900Y0371700*
X0262900Y0370700*
X0264900Y0371700*
X0263900Y0369700*
X0264900Y0367700*
X0262900Y0368700*
X0260900Y0367700*
X0260600Y0356000D02*
X0261600Y0358000D01*
X0260600Y0360000*
X0262600Y0359000*
X0264600Y0360000*
X0263600Y0358000*
X0264600Y0356000*
X0262600Y0357000*
X0260600Y0356000*
X0264400Y0344300D02*
X0266400Y0346300D01*
X0268400Y0344300*
X0266400Y0342300*
X0264400Y0344300*
X0280100Y0384500D02*
X0281100D01*
X0282100Y0385500*
X0283100Y0384500*
X0284100*
Y0385500*
X0283100Y0386500*
X0284100Y0387500*
Y0388500*
X0283100*
X0282100Y0387500*
X0281100Y0388500*
X0280100*
Y0387500*
X0281100Y0386500*
X0280100Y0385500*
Y0384500*
X0321300Y0396600D02*
X0322300Y0398600D01*
X0321300Y0400600*
X0323300Y0399600*
X0325300Y0400600*
X0324300Y0398600*
X0325300Y0396600*
X0323300Y0397600*
X0321300Y0396600*
X0319200D02*
X0320200Y0398600D01*
X0319200Y0400600*
X0321200Y0399600*
X0323200Y0400600*
X0322200Y0398600*
X0323200Y0396600*
X0321200Y0397600*
X0319200Y0396600*
X0323300D02*
X0324300Y0398600D01*
X0323300Y0400600*
X0325300Y0399600*
X0327300Y0400600*
X0326300Y0398600*
X0327300Y0396600*
X0325300Y0397600*
X0323300Y0396600*
X0290000Y0379400D02*
X0291000Y0381400D01*
X0290000Y0383400*
X0292000Y0382400*
X0294000Y0383400*
X0293000Y0381400*
X0294000Y0379400*
X0292000Y0380400*
X0290000Y0379400*
X0333300Y0342200D02*
X0334300Y0344200D01*
X0333300Y0346200*
X0335300Y0345200*
X0337300Y0346200*
X0336300Y0344200*
X0337300Y0342200*
X0335300Y0343200*
X0333300Y0342200*
X0330700Y0344200D02*
X0331700Y0346200D01*
X0330700Y0348200*
X0332700Y0347200*
X0334700Y0348200*
X0333700Y0346200*
X0334700Y0344200*
X0332700Y0345200*
X0330700Y0344200*
X0292000Y0381500D02*
X0293000Y0383500D01*
X0292000Y0385500*
X0294000Y0384500*
X0296000Y0385500*
X0295000Y0383500*
X0296000Y0381500*
X0294000Y0382500*
X0292000Y0381500*
X0305500Y0380900D02*
X0306500Y0382900D01*
X0305500Y0384900*
X0307500Y0383900*
X0309500Y0384900*
X0308500Y0382900*
X0309500Y0380900*
X0307500Y0381900*
X0305500Y0380900*
X0307500Y0396600D02*
X0308500Y0398600D01*
X0307500Y0400600*
X0309500Y0399600*
X0311500Y0400600*
X0310500Y0398600*
X0311500Y0396600*
X0309500Y0397600*
X0307500Y0396600*
X0325300D02*
X0326300Y0398600D01*
X0325300Y0400600*
X0327300Y0399600*
X0329300Y0400600*
X0328300Y0398600*
X0329300Y0396600*
X0327300Y0397600*
X0325300Y0396600*
X0305400D02*
X0306400Y0398600D01*
X0305400Y0400600*
X0307400Y0399600*
X0309400Y0400600*
X0308400Y0398600*
X0309400Y0396600*
X0307400Y0397600*
X0305400Y0396600*
X0303500Y0398400D02*
X0304500Y0400400D01*
X0303500Y0402400*
X0305500Y0401400*
X0307500Y0402400*
X0306500Y0400400*
X0307500Y0398400*
X0305500Y0399400*
X0303500Y0398400*
X0338500Y0389800D02*
Y0388800D01*
X0340500*
Y0389800*
X0341500*
Y0391800*
X0340500*
Y0392800*
X0338500*
Y0391800*
X0337500*
Y0389800*
X0338500*
X0333700Y0367700D02*
X0334700Y0369700D01*
X0333700Y0371700*
X0335700Y0370700*
X0337700Y0371700*
X0336700Y0369700*
X0337700Y0367700*
X0335700Y0368700*
X0333700Y0367700*
X0336400Y0375500D02*
X0337400Y0377500D01*
X0336400Y0379500*
X0338400Y0378500*
X0340400Y0379500*
X0339400Y0377500*
X0340400Y0375500*
X0338400Y0376500*
X0336400Y0375500*
X0332200Y0365800D02*
X0333200Y0367800D01*
X0332200Y0369800*
X0334200Y0368800*
X0336200Y0369800*
X0335200Y0367800*
X0336200Y0365800*
X0334200Y0366800*
X0332200Y0365800*
G54D98*
X0246500Y0351200D02*
D01*
X0246495Y0351339*
X0246480Y0351478*
X0246456Y0351615*
X0246422Y0351751*
X0246379Y0351884*
X0246327Y0352013*
X0246265Y0352138*
X0246196Y0352259*
X0246118Y0352375*
X0246032Y0352485*
X0245938Y0352589*
X0245838Y0352686*
X0245731Y0352776*
X0245618Y0352858*
X0245500Y0352932*
X0245376Y0352997*
X0245249Y0353054*
X0245118Y0353102*
X0244983Y0353140*
X0244847Y0353169*
X0244709Y0353189*
X0244569Y0353198*
X0244430*
X0244290Y0353189*
X0244152Y0353169*
X0244016Y0353140*
X0243881Y0353102*
X0243750Y0353054*
X0243623Y0352997*
X0243500Y0352932*
X0243381Y0352858*
X0243268Y0352776*
X0243161Y0352686*
X0243061Y0352589*
X0242967Y0352485*
X0242881Y0352375*
X0242803Y0352259*
X0242734Y0352138*
X0242672Y0352013*
X0242620Y0351884*
X0242577Y0351751*
X0242543Y0351615*
X0242519Y0351478*
X0242504Y0351339*
X0242500Y0351200*
X0242504Y0351060*
X0242519Y0350921*
X0242543Y0350784*
X0242577Y0350648*
X0242620Y0350515*
X0242672Y0350386*
X0242734Y0350261*
X0242803Y0350140*
X0242881Y0350024*
X0242967Y0349914*
X0243061Y0349810*
X0243161Y0349713*
X0243268Y0349623*
X0243381Y0349541*
X0243500Y0349467*
X0243623Y0349402*
X0243750Y0349345*
X0243881Y0349297*
X0244016Y0349259*
X0244152Y0349230*
X0244290Y0349210*
X0244430Y0349201*
X0244569*
X0244709Y0349210*
X0244847Y0349230*
X0244983Y0349259*
X0245118Y0349297*
X0245249Y0349345*
X0245376Y0349402*
X0245500Y0349467*
X0245618Y0349541*
X0245731Y0349623*
X0245838Y0349713*
X0245938Y0349810*
X0246032Y0349914*
X0246118Y0350024*
X0246196Y0350140*
X0246265Y0350261*
X0246327Y0350386*
X0246379Y0350515*
X0246422Y0350648*
X0246456Y0350784*
X0246480Y0350921*
X0246495Y0351060*
X0246500Y0351200*
X0249000Y0343600D02*
D01*
X0248995Y0343739*
X0248980Y0343878*
X0248956Y0344015*
X0248922Y0344151*
X0248879Y0344284*
X0248827Y0344413*
X0248765Y0344538*
X0248696Y0344659*
X0248618Y0344775*
X0248532Y0344885*
X0248438Y0344989*
X0248338Y0345086*
X0248231Y0345176*
X0248118Y0345258*
X0248000Y0345332*
X0247876Y0345397*
X0247749Y0345454*
X0247618Y0345502*
X0247483Y0345540*
X0247347Y0345569*
X0247209Y0345589*
X0247069Y0345598*
X0246930*
X0246790Y0345589*
X0246652Y0345569*
X0246516Y0345540*
X0246381Y0345502*
X0246250Y0345454*
X0246123Y0345397*
X0246000Y0345332*
X0245881Y0345258*
X0245768Y0345176*
X0245661Y0345086*
X0245561Y0344989*
X0245467Y0344885*
X0245381Y0344775*
X0245303Y0344659*
X0245234Y0344538*
X0245172Y0344413*
X0245120Y0344284*
X0245077Y0344151*
X0245043Y0344015*
X0245019Y0343878*
X0245004Y0343739*
X0245000Y0343600*
X0245004Y0343460*
X0245019Y0343321*
X0245043Y0343184*
X0245077Y0343048*
X0245120Y0342915*
X0245172Y0342786*
X0245234Y0342661*
X0245303Y0342540*
X0245381Y0342424*
X0245467Y0342314*
X0245561Y0342210*
X0245661Y0342113*
X0245768Y0342023*
X0245881Y0341941*
X0246000Y0341867*
X0246123Y0341802*
X0246250Y0341745*
X0246381Y0341697*
X0246516Y0341659*
X0246652Y0341630*
X0246790Y0341610*
X0246930Y0341601*
X0247069*
X0247209Y0341610*
X0247347Y0341630*
X0247483Y0341659*
X0247618Y0341697*
X0247749Y0341745*
X0247876Y0341802*
X0248000Y0341867*
X0248118Y0341941*
X0248231Y0342023*
X0248338Y0342113*
X0248438Y0342210*
X0248532Y0342314*
X0248618Y0342424*
X0248696Y0342540*
X0248765Y0342661*
X0248827Y0342786*
X0248879Y0342915*
X0248922Y0343048*
X0248956Y0343184*
X0248980Y0343321*
X0248995Y0343460*
X0249000Y0343600*
X0335200Y0349200D02*
D01*
X0335195Y0349339*
X0335180Y0349478*
X0335156Y0349615*
X0335122Y0349751*
X0335079Y0349884*
X0335027Y0350013*
X0334965Y0350138*
X0334896Y0350259*
X0334818Y0350375*
X0334732Y0350485*
X0334638Y0350589*
X0334538Y0350686*
X0334431Y0350776*
X0334318Y0350858*
X0334200Y0350932*
X0334076Y0350997*
X0333949Y0351054*
X0333818Y0351102*
X0333683Y0351140*
X0333547Y0351169*
X0333409Y0351189*
X0333269Y0351198*
X0333130*
X0332990Y0351189*
X0332852Y0351169*
X0332716Y0351140*
X0332581Y0351102*
X0332450Y0351054*
X0332323Y0350997*
X0332200Y0350932*
X0332081Y0350858*
X0331968Y0350776*
X0331861Y0350686*
X0331761Y0350589*
X0331667Y0350485*
X0331581Y0350375*
X0331503Y0350259*
X0331434Y0350138*
X0331372Y0350013*
X0331320Y0349884*
X0331277Y0349751*
X0331243Y0349615*
X0331219Y0349478*
X0331204Y0349339*
X0331200Y0349200*
X0331204Y0349060*
X0331219Y0348921*
X0331243Y0348784*
X0331277Y0348648*
X0331320Y0348515*
X0331372Y0348386*
X0331434Y0348261*
X0331503Y0348140*
X0331581Y0348024*
X0331667Y0347914*
X0331761Y0347810*
X0331861Y0347713*
X0331968Y0347623*
X0332081Y0347541*
X0332200Y0347467*
X0332323Y0347402*
X0332450Y0347345*
X0332581Y0347297*
X0332716Y0347259*
X0332852Y0347230*
X0332990Y0347210*
X0333130Y0347201*
X0333269*
X0333409Y0347210*
X0333547Y0347230*
X0333683Y0347259*
X0333818Y0347297*
X0333949Y0347345*
X0334076Y0347402*
X0334200Y0347467*
X0334318Y0347541*
X0334431Y0347623*
X0334538Y0347713*
X0334638Y0347810*
X0334732Y0347914*
X0334818Y0348024*
X0334896Y0348140*
X0334965Y0348261*
X0335027Y0348386*
X0335079Y0348515*
X0335122Y0348648*
X0335156Y0348784*
X0335180Y0348921*
X0335195Y0349060*
X0335200Y0349200*
X0319600Y0385600D02*
D01*
X0319595Y0385739*
X0319580Y0385878*
X0319556Y0386015*
X0319522Y0386151*
X0319479Y0386284*
X0319427Y0386413*
X0319365Y0386538*
X0319296Y0386659*
X0319218Y0386775*
X0319132Y0386885*
X0319038Y0386989*
X0318938Y0387086*
X0318831Y0387176*
X0318718Y0387258*
X0318600Y0387332*
X0318476Y0387397*
X0318349Y0387454*
X0318218Y0387502*
X0318083Y0387540*
X0317947Y0387569*
X0317809Y0387589*
X0317669Y0387598*
X0317530*
X0317390Y0387589*
X0317252Y0387569*
X0317116Y0387540*
X0316981Y0387502*
X0316850Y0387454*
X0316723Y0387397*
X0316600Y0387332*
X0316481Y0387258*
X0316368Y0387176*
X0316261Y0387086*
X0316161Y0386989*
X0316067Y0386885*
X0315981Y0386775*
X0315903Y0386659*
X0315834Y0386538*
X0315772Y0386413*
X0315720Y0386284*
X0315677Y0386151*
X0315643Y0386015*
X0315619Y0385878*
X0315604Y0385739*
X0315600Y0385600*
X0315604Y0385460*
X0315619Y0385321*
X0315643Y0385184*
X0315677Y0385048*
X0315720Y0384915*
X0315772Y0384786*
X0315834Y0384661*
X0315903Y0384540*
X0315981Y0384424*
X0316067Y0384314*
X0316161Y0384210*
X0316261Y0384113*
X0316368Y0384023*
X0316481Y0383941*
X0316600Y0383867*
X0316723Y0383802*
X0316850Y0383745*
X0316981Y0383697*
X0317116Y0383659*
X0317252Y0383630*
X0317390Y0383610*
X0317530Y0383601*
X0317669*
X0317809Y0383610*
X0317947Y0383630*
X0318083Y0383659*
X0318218Y0383697*
X0318349Y0383745*
X0318476Y0383802*
X0318600Y0383867*
X0318718Y0383941*
X0318831Y0384023*
X0318938Y0384113*
X0319038Y0384210*
X0319132Y0384314*
X0319218Y0384424*
X0319296Y0384540*
X0319365Y0384661*
X0319427Y0384786*
X0319479Y0384915*
X0319522Y0385048*
X0319556Y0385184*
X0319580Y0385321*
X0319595Y0385460*
X0319600Y0385600*
X0260300Y0391000D02*
D01*
X0260295Y0391139*
X0260280Y0391278*
X0260256Y0391415*
X0260222Y0391551*
X0260179Y0391684*
X0260127Y0391813*
X0260065Y0391938*
X0259996Y0392059*
X0259918Y0392175*
X0259832Y0392285*
X0259738Y0392389*
X0259638Y0392486*
X0259531Y0392576*
X0259418Y0392658*
X0259300Y0392732*
X0259176Y0392797*
X0259049Y0392854*
X0258918Y0392902*
X0258783Y0392940*
X0258647Y0392969*
X0258509Y0392989*
X0258369Y0392998*
X0258230*
X0258090Y0392989*
X0257952Y0392969*
X0257816Y0392940*
X0257681Y0392902*
X0257550Y0392854*
X0257423Y0392797*
X0257300Y0392732*
X0257181Y0392658*
X0257068Y0392576*
X0256961Y0392486*
X0256861Y0392389*
X0256767Y0392285*
X0256681Y0392175*
X0256603Y0392059*
X0256534Y0391938*
X0256472Y0391813*
X0256420Y0391684*
X0256377Y0391551*
X0256343Y0391415*
X0256319Y0391278*
X0256304Y0391139*
X0256300Y0391000*
X0256304Y0390860*
X0256319Y0390721*
X0256343Y0390584*
X0256377Y0390448*
X0256420Y0390315*
X0256472Y0390186*
X0256534Y0390061*
X0256603Y0389940*
X0256681Y0389824*
X0256767Y0389714*
X0256861Y0389610*
X0256961Y0389513*
X0257068Y0389423*
X0257181Y0389341*
X0257300Y0389267*
X0257423Y0389202*
X0257550Y0389145*
X0257681Y0389097*
X0257816Y0389059*
X0257952Y0389030*
X0258090Y0389010*
X0258230Y0389001*
X0258369*
X0258509Y0389010*
X0258647Y0389030*
X0258783Y0389059*
X0258918Y0389097*
X0259049Y0389145*
X0259176Y0389202*
X0259300Y0389267*
X0259418Y0389341*
X0259531Y0389423*
X0259638Y0389513*
X0259738Y0389610*
X0259832Y0389714*
X0259918Y0389824*
X0259996Y0389940*
X0260065Y0390061*
X0260127Y0390186*
X0260179Y0390315*
X0260222Y0390448*
X0260256Y0390584*
X0260280Y0390721*
X0260295Y0390860*
X0260300Y0391000*
M02*