%FSDAX25Y25*%
%MOIN*%
%SFA1B1*%

%IPPOS*%
%ADD66R,0.035560X0.043430*%
%ADD67R,0.043430X0.035560*%
%ADD68R,0.044220X0.023750*%
%ADD79R,0.047370X0.047370*%
%ADD80C,0.047370*%
%ADD81R,0.047370X0.047370*%
%ADD82C,0.038000*%
%ADD83C,0.070990*%
%ADD84C,0.063000*%
%ADD85R,0.028470X0.019810*%
%ADD86R,0.350520X0.350520*%
%ADD87R,0.017840X0.069020*%
%ADD88O,0.017840X0.069020*%
%ADD89O,0.069020X0.017840*%
%ADD90R,0.035560X0.016660*%
%ADD91R,0.044220X0.031620*%
%ADD92R,0.047370X0.078870*%
%ADD93R,0.023750X0.044220*%
%ADD94O,0.021780X0.031620*%
%ADD95O,0.031620X0.021780*%
%ADD96R,0.086740X0.086740*%
%LNmoo1.1-1*%
%LPD*%
G54D66*
X0253400Y0352059D03*
Y0346941D03*
X0259000Y0352059D03*
Y0346941D03*
X0272000Y0384441D03*
Y0389559D03*
X0249400Y0389841D03*
Y0394959D03*
G54D67*
X0258059Y0377500D03*
X0252941D03*
X0261541Y0366800D03*
X0266659D03*
X0268559Y0377500D03*
X0263441D03*
G54D68*
X0243735Y0364186D03*
X0252002Y0369304D03*
Y0364186D03*
X0260760Y0363059D03*
X0268240Y0357941D03*
Y0363059D03*
X0260760Y0360500D03*
Y0357941D03*
G54D79*
X0344900Y0402100D03*
Y0350600D03*
G54D80*
X0344900Y0397100D03*
Y0392100D03*
Y0387100D03*
Y0382100D03*
Y0377100D03*
Y0372100D03*
Y0367100D03*
Y0362100D03*
Y0357100D03*
Y0345600D03*
Y0340600D03*
Y0335600D03*
X0279900Y0328600D03*
X0284900D03*
X0289900D03*
X0294900D03*
X0299900D03*
X0304900D03*
X0309900D03*
X0314900D03*
X0319900D03*
X0324900D03*
X0329900D03*
X0334900D03*
X0339900D03*
X0284900Y0410500D03*
X0289900D03*
X0294900D03*
X0299900D03*
X0304900D03*
X0309900D03*
X0314900D03*
X0319900D03*
X0324900D03*
X0329900D03*
X0334900D03*
X0339900D03*
X0344900D03*
G54D81*
X0344900Y0328600D03*
X0279900Y0410500D03*
G54D82*
X0244500Y0351200D03*
X0247000Y0343600D03*
X0258300Y0391000D03*
G54D83*
X0277800Y0364061D03*
Y0384139D03*
G54D84*
X0234800Y0372371D03*
Y0358229D03*
G54D85*
X0278286Y0399041D03*
Y0401600D03*
X0284900Y0399041D03*
Y0401600D03*
G54D86*
X0314400Y0372600D03*
G54D87*
X0329164Y0350848D03*
G54D88*
X0327195Y0350848D03*
X0325227D03*
X0323258D03*
X0321290D03*
X0319321D03*
X0317353D03*
X0315384D03*
X0313416D03*
X0311447D03*
X0309479D03*
X0307510D03*
X0305542D03*
X0303573D03*
X0301605D03*
X0299636D03*
Y0394352D03*
X0301605D03*
X0303573D03*
X0305542D03*
X0307510D03*
X0309479D03*
X0311447D03*
X0313416D03*
X0315384D03*
X0317353D03*
X0319321D03*
X0321290D03*
X0323258D03*
X0325227D03*
X0327195D03*
X0329164D03*
G54D89*
X0292648Y0357836D03*
Y0359805D03*
Y0361773D03*
Y0363742D03*
Y0365710D03*
Y0367679D03*
Y0369647D03*
Y0371616D03*
Y0373584D03*
Y0375553D03*
Y0377521D03*
Y0379490D03*
Y0381458D03*
Y0383427D03*
Y0385395D03*
Y0387364D03*
X0336152D03*
Y0385395D03*
Y0383427D03*
Y0381458D03*
Y0379490D03*
Y0377521D03*
Y0375553D03*
Y0373584D03*
Y0371616D03*
Y0369647D03*
Y0367679D03*
Y0365710D03*
Y0363742D03*
Y0361773D03*
Y0359805D03*
Y0357836D03*
G54D90*
X0277520Y0377875D03*
Y0376300D03*
Y0374725D03*
X0281279D03*
Y0376300D03*
Y0377875D03*
G54D91*
X0243700Y0369100D03*
G54D92*
X0309479Y0339100D03*
X0319321D03*
G54D93*
X0271609Y0345360D03*
X0266491D03*
Y0352840D03*
X0271609D03*
G54D94*
X0256563Y0395587D03*
Y0381151D03*
X0259319D03*
X0261878D03*
X0264437D03*
X0259319Y0395587D03*
X0261878D03*
X0264437D03*
G54D95*
X0267980Y0392437D03*
Y0389878D03*
Y0387319D03*
Y0384563D03*
X0253413D03*
Y0387319D03*
Y0389878D03*
Y0392437D03*
G54D96*
X0260500Y0388500D03*
M02*