%FSDAX25Y25*%
%MOIN*%
%SFA1B1*%

%IPPOS*%
%ADD10R,0.008660X0.027560*%
%ADD11R,0.027560X0.035430*%
%ADD12R,0.035430X0.027560*%
%ADD13R,0.036220X0.015750*%
%ADD14R,0.015750X0.015750*%
%ADD15R,0.033470X0.039370*%
%ADD16R,0.033470X0.039370*%
%ADD17R,0.015750X0.015750*%
%ADD18R,0.039370X0.027560*%
%ADD19R,0.043310X0.039370*%
%ADD20R,0.039370X0.043310*%
%ADD21R,0.039370X0.090550*%
%ADD22R,0.051180X0.059060*%
%ADD23R,0.023620X0.086610*%
%ADD24C,0.008000*%
%ADD25C,0.010000*%
%ADD26C,0.012000*%
%ADD27C,0.015000*%
%ADD28C,0.030000*%
%ADD29C,0.040000*%
%ADD30C,0.025000*%
%ADD31C,0.035430*%
%ADD32C,0.020000*%
%ADD33C,0.024000*%
%ADD34R,0.039370X0.039370*%
%ADD35C,0.039370*%
%ADD36R,0.039370X0.039370*%
%ADD37C,0.030000*%
%ADD38C,0.062990*%
%ADD39C,0.055000*%
%ADD40C,0.013000*%
%ADD41C,0.018000*%
%ADD42C,0.015000*%
%ADD43C,0.024000*%
%ADD44C,0.020000*%
%LNmoo1.1-1*%
%LPD*%
G54D10*
X0309075Y0365580D03*
X0307500D03*
X0305925D03*
Y0361821D03*
X0307500D03*
X0309075D03*
G54D11*
X0282000Y0338541D03*
Y0343659D03*
X0293500Y0368941D03*
Y0374059D03*
X0301800Y0350741D03*
X0296200Y0355859D03*
X0301800D03*
X0282000Y0369641D03*
Y0374759D03*
X0271100Y0372141D03*
Y0377259D03*
Y0362641D03*
Y0367759D03*
Y0343641D03*
Y0348759D03*
Y0353141D03*
Y0358259D03*
X0302400Y0389441D03*
Y0394559D03*
X0287200Y0389059D03*
Y0383941D03*
X0296200Y0350741D03*
G54D12*
X0324641Y0354600D03*
X0329759D03*
X0243559Y0343600D03*
X0238441D03*
X0338259Y0393600D03*
X0333141D03*
X0338259Y0399300D03*
X0333141D03*
X0287159Y0404200D03*
Y0399000D03*
X0281559Y0389500D03*
X0276441D03*
X0258559Y0378700D03*
X0253441D03*
X0258559Y0369800D03*
X0253441D03*
X0258559Y0361100D03*
X0253441D03*
X0258559Y0352200D03*
X0253441D03*
X0258559Y0343600D03*
X0253441D03*
X0282041Y0399000D03*
Y0404200D03*
X0333441Y0404500D03*
X0338559D03*
X0324741Y0349200D03*
X0329859D03*
X0265441Y0398700D03*
X0270559D03*
G54D13*
X0297240Y0344759D03*
X0289760D03*
Y0342200D03*
Y0339641D03*
X0297240D03*
X0307540Y0370241D03*
Y0372800D03*
X0300060Y0375359D03*
Y0370241D03*
X0307540Y0375359D03*
G54D14*
X0310068Y0349425D03*
Y0352575D03*
X0306132Y0351000D03*
X0307469Y0379725D03*
X0303532Y0381300D03*
X0307469Y0382875D03*
X0260488Y0389000D03*
X0266000D03*
G54D15*
X0242600Y0357524D03*
X0238860Y0348076D03*
G54D16*
X0246340Y0348076D03*
G54D17*
X0299225Y0361831D03*
X0275000Y0379112D03*
Y0373600D03*
X0271000Y0384000D03*
Y0389512D03*
X0300800Y0365769D03*
X0302375Y0361831D03*
G54D18*
X0258765Y0382000D03*
X0266835Y0384559D03*
Y0379441D03*
X0258765Y0373100D03*
X0266835Y0375659D03*
Y0370541D03*
X0258765Y0364200D03*
X0266835Y0366759D03*
Y0361641D03*
X0258765Y0355300D03*
X0266835Y0357859D03*
Y0352741D03*
X0258765Y0346400D03*
X0266835Y0348959D03*
Y0343841D03*
G54D19*
X0246354Y0357500D03*
X0253046D03*
G54D20*
X0244300Y0362291D03*
X0295700Y0395746D03*
Y0389054D03*
G54D21*
X0244300Y0371346D03*
G54D22*
X0270240Y0407500D03*
X0262760D03*
G54D23*
X0314950Y0385764D03*
X0319950D03*
X0324950D03*
X0329950D03*
X0314950Y0364586D03*
X0319950D03*
X0324950D03*
X0329950D03*
G54D24*
X0304900Y0344200D02*
X0308019Y0347319D01*
X0302000Y0344200D02*
X0304900D01*
X0301400Y0344800D02*
X0302000Y0344200D01*
X0296100Y0335600D02*
X0326700D01*
X0299225Y0361831D02*
X0302326Y0358731D01*
X0303634*
X0308019Y0354345*
Y0347319D02*
Y0354345D01*
X0301400Y0344800D02*
Y0346025D01*
X0311400Y0344600D02*
X0313100Y0346300D01*
Y0354063*
X0288800Y0338500D02*
X0290200Y0339900D01*
X0274900Y0338500D02*
X0288800D01*
X0270800Y0342600D02*
X0274900Y0338500D01*
X0326700Y0335600D02*
X0335300Y0344200D01*
X0293500Y0338200D02*
X0296100Y0335600D01*
X0293500Y0338200D02*
Y0341055D01*
X0292155Y0342400D02*
X0293500Y0341055D01*
X0283900Y0342400D02*
X0292155D01*
X0283200Y0343100D02*
X0283900Y0342400D01*
X0280166Y0377631D02*
X0286473D01*
X0279136Y0376600D02*
X0280166Y0377631D01*
X0274100Y0376600D02*
X0279136D01*
X0286473Y0377631D02*
X0289604Y0374500D01*
X0300200Y0337600D02*
X0324100D01*
X0332700Y0346200*
X0289900Y0408300D02*
Y0410500D01*
Y0408300D02*
X0292000Y0406200D01*
Y0402000D02*
Y0406200D01*
X0289000Y0399000D02*
X0292000Y0402000D01*
X0287159Y0399000D02*
X0289000D01*
X0284900Y0407500D02*
Y0410500D01*
Y0407500D02*
X0287159Y0405241D01*
Y0404200D02*
Y0405241D01*
X0333141Y0393600D02*
Y0404159D01*
D01*
X0311559D02*
X0333141D01*
X0307400Y0400000D02*
X0311559Y0404159D01*
X0307400Y0398600D02*
Y0400000D01*
X0329200Y0386514D02*
X0329950Y0385764D01*
X0329200Y0386514D02*
Y0399700D01*
X0328000Y0400900D02*
X0329200Y0399700D01*
X0322000Y0400900D02*
X0328000D01*
X0321200Y0400100D02*
X0322000Y0400900D01*
X0321200Y0398600D02*
Y0400100D01*
X0344900Y0407700D02*
Y0410500D01*
X0341700Y0404500D02*
X0344900Y0407700D01*
X0338559Y0404500D02*
X0341700D01*
X0264500Y0389000D02*
X0266000D01*
X0307500Y0359663D02*
Y0361821D01*
Y0359663D02*
X0313100Y0354063D01*
X0312400Y0360069D02*
Y0397800D01*
Y0360069D02*
X0313313Y0359156D01*
X0313345*
X0319869Y0352631*
X0305400Y0342200D02*
X0319000D01*
X0322000Y0345200*
X0311600Y0398600D02*
X0312400Y0397800D01*
X0319869Y0349366D02*
Y0352631D01*
X0310500Y0366000D02*
Y0375100D01*
X0310080Y0365580D02*
X0310500Y0366000D01*
X0309075Y0365580D02*
X0310080D01*
X0319869Y0349366D02*
X0322000Y0347236D01*
Y0345200D02*
Y0347236D01*
X0310400Y0375200D02*
X0310500Y0375100D01*
X0307699Y0375200D02*
X0310400D01*
X0305925Y0361821D02*
Y0365580D01*
X0302386Y0361821D02*
X0305925D01*
X0308925Y0379725D02*
X0309500Y0380300D01*
X0307668Y0379725D02*
X0308925D01*
X0250700Y0386200D02*
X0261700D01*
X0250600D02*
X0250700D01*
X0279100Y0363200D02*
Y0363400D01*
X0278200Y0363000D02*
X0278600Y0362600D01*
X0261700Y0386200D02*
X0264500Y0389000D01*
X0324950Y0385764D02*
X0325300Y0386114D01*
X0307540Y0375359D02*
X0307699Y0375200D01*
X0306869Y0374687D02*
X0307540Y0375359D01*
X0300800Y0365769D02*
Y0366183D01*
X0303358Y0368741*
X0303362*
X0273900Y0376800D02*
X0274100Y0376600D01*
X0305274Y0374687D02*
X0306869D01*
X0304629Y0374043D02*
X0305274Y0374687D01*
X0289604Y0374500D02*
X0294328D01*
X0293500Y0374059D02*
X0294087Y0373472D01*
X0304629Y0373653D02*
Y0374043D01*
X0300060Y0370241D02*
X0302741D01*
X0303362Y0368741D02*
X0304629Y0370008D01*
X0302741Y0370241D02*
X0303129Y0370629D01*
X0293500Y0368941D02*
X0298031Y0373472D01*
X0304629Y0370008D02*
Y0371484D01*
X0305945Y0372800*
X0307540*
X0303129Y0370629D02*
Y0372153D01*
X0304629Y0373653*
X0298031Y0373472D02*
X0302326D01*
X0302971Y0374116*
Y0376071*
X0325300Y0386114D02*
Y0398600D01*
X0309500Y0380300D02*
Y0398600D01*
X0302971Y0376071D02*
X0305500Y0378600D01*
Y0400400*
X0307500Y0365580D02*
Y0370201D01*
X0338400Y0371700D02*
Y0377500D01*
Y0371700D02*
X0343000Y0367100D01*
X0344900*
G54D25*
X0299400Y0342300D02*
X0305900D01*
X0310100Y0346500*
Y0349200*
X0296950Y0344750D02*
X0299400Y0342300D01*
X0293900Y0343200D02*
X0297350Y0339750D01*
X0293900Y0343200D02*
Y0348200D01*
X0296200Y0350500*
X0295859Y0355959D02*
X0301200D01*
X0289800Y0349900D02*
X0295859Y0355959D01*
X0289800Y0345500D02*
Y0349900D01*
X0275000Y0379300D02*
X0287400D01*
X0271000Y0383300D02*
X0275000Y0379300D01*
X0289200Y0377500D02*
X0297600D01*
X0287400Y0379300D02*
X0289200Y0377500D01*
X0304700Y0360200D02*
X0310068Y0354832D01*
Y0352575D02*
Y0354832D01*
X0324641Y0354600D02*
Y0364277D01*
X0267394Y0384000D02*
X0271300D01*
X0266835Y0384559D02*
X0267641D01*
X0266835D02*
X0267394Y0384000D01*
X0260488Y0389000D02*
Y0389112D01*
X0259100Y0390500D02*
X0260488Y0389112D01*
X0319950Y0364586D02*
Y0370050D01*
X0327331Y0377431*
X0314950Y0364586D02*
Y0370350D01*
X0322400Y0377800*
X0271000Y0383300D02*
Y0383900D01*
X0297600Y0377500D02*
X0299600Y0375500D01*
X0327331Y0377431D02*
Y0398569D01*
X0322400Y0377800D02*
Y0391800D01*
X0323300Y0392700*
Y0398600*
X0324950Y0364586D02*
Y0369250D01*
X0327650Y0371950*
X0333450*
X0335800Y0369600*
X0327650Y0371950D02*
X0333350D01*
X0333500Y0372100*
Y0379200*
X0341400Y0387100*
X0344900*
G54D26*
X0338259Y0392041D02*
Y0393600D01*
X0272000Y0372100D02*
X0273900Y0370200D01*
Y0344600D02*
Y0370200D01*
X0275700Y0374900D02*
X0279500D01*
X0275000Y0374200D02*
X0275700Y0374900D01*
X0275000Y0373500D02*
Y0374200D01*
X0299300Y0368500D02*
Y0369900D01*
X0296200Y0365400D02*
X0299300Y0368500D01*
X0291700Y0365400D02*
X0296200D01*
X0281800Y0375300D02*
X0291700Y0365400D01*
X0281800Y0375300D02*
Y0375559D01*
X0282141Y0399000D02*
Y0405000D01*
Y0396400D02*
Y0399000D01*
X0271141Y0372100D02*
X0272000D01*
X0272941Y0343641D02*
X0273900Y0344600D01*
X0271100Y0343641D02*
X0272941D01*
X0271100Y0372141D02*
X0271141Y0372100D01*
X0279300Y0366800D02*
X0281500Y0369000D01*
X0304700Y0360200D02*
Y0361400D01*
X0309600Y0360000D02*
Y0362600D01*
Y0360000D02*
X0315800Y0353800D01*
Y0346800D02*
Y0353800D01*
X0329859Y0349200D02*
X0333200D01*
X0315800Y0346800D02*
X0317800Y0344800D01*
X0321569Y0351431D02*
X0323800Y0349200D01*
X0321569Y0351431D02*
Y0356831D01*
X0323800Y0349200D02*
X0324741D01*
X0321100Y0357300D02*
X0321569Y0356831D01*
X0286700Y0389559D02*
Y0390900D01*
X0270959Y0389553D02*
Y0398700D01*
X0302375Y0361831D02*
X0302386Y0361821D01*
X0281300Y0389200D02*
Y0390000D01*
X0281400Y0389500D02*
Y0390000D01*
X0279600Y0385300D02*
Y0388000D01*
X0281300Y0389700*
X0281400Y0389100D02*
Y0389200D01*
X0277900Y0386000D02*
X0278300D01*
X0274200Y0364341D02*
X0276959D01*
X0273859Y0362641D02*
X0273900Y0362600D01*
X0266835Y0384559D02*
X0266976Y0384700D01*
X0266900Y0384800D02*
X0267400Y0385300D01*
X0266341Y0384559D02*
X0266835D01*
X0267000D01*
X0271100Y0353141D02*
X0273859D01*
X0271100Y0362641D02*
X0273859D01*
X0279300Y0365200D02*
Y0366800D01*
X0279500Y0374900D02*
X0282000D01*
X0338259Y0393600D02*
Y0399300D01*
X0302059Y0351000D02*
X0305700D01*
X0338259Y0392041D02*
X0339500Y0390800D01*
G54D27*
X0344900Y0357600D02*
X0345350Y0357150D01*
X0339900Y0357600D02*
X0344900D01*
X0276400Y0394100D02*
X0290200D01*
X0291800Y0390300D02*
X0294454D01*
X0291800D02*
Y0392500D01*
X0290200Y0394100D02*
X0291800Y0392500D01*
X0276400Y0394100D02*
Y0405800D01*
X0265841Y0401241D02*
X0266000Y0389000D01*
X0265841Y0401241D02*
X0270240Y0405640D01*
Y0407500*
X0329800Y0349100D02*
Y0363700D01*
X0339900Y0332900D02*
Y0357600D01*
X0270900Y0406800D02*
X0275400D01*
X0276400Y0405800*
X0329700Y0354900D02*
X0339900D01*
X0262700Y0338300D02*
Y0353200D01*
Y0338300D02*
X0268100Y0332900D01*
X0339900*
X0279700Y0384000D02*
X0287000D01*
X0247100Y0343500D02*
X0247200Y0343600D01*
X0244400Y0343500D02*
X0247100D01*
X0238441Y0343600D02*
Y0347141D01*
X0276400Y0390200D02*
Y0393800D01*
X0339900Y0328681D02*
Y0332900D01*
X0302359Y0394800D02*
X0302600Y0394559D01*
X0296646Y0394800D02*
X0302359D01*
X0302600Y0382231D02*
X0303532Y0381300D01*
X0302600Y0382231D02*
Y0389441D01*
G54D28*
X0258400Y0404100D02*
X0261600Y0407300D01*
X0258400Y0391000D02*
Y0404100D01*
G54D29*
X0234900Y0371600D02*
X0243800D01*
X0236200Y0360000D02*
X0244200D01*
X0234900Y0358700D02*
X0236200Y0360000D01*
G54D30*
X0258600Y0379100D02*
X0258700Y0379200D01*
Y0381900*
X0258800Y0370200D02*
Y0372700D01*
Y0370200D02*
X0259000Y0370000D01*
X0258500Y0363900D02*
X0258700Y0363700D01*
Y0361200D02*
Y0363700D01*
Y0352100D02*
Y0354900D01*
X0258600Y0355000D02*
X0258700Y0354900D01*
X0258500Y0343600D02*
Y0346400D01*
G54D31*
X0253500Y0344459D02*
Y0378100D01*
G54D32*
X0266835Y0348959D02*
X0270900D01*
X0271100Y0348759*
X0266835Y0348959D02*
Y0352741D01*
Y0357859D02*
X0270700D01*
X0271100Y0358259*
X0266835Y0357859D02*
Y0361641D01*
X0267835Y0367759D02*
X0271100D01*
X0266835Y0366759D02*
X0267835Y0367759D01*
X0266835Y0366759D02*
Y0370541D01*
X0268435Y0377259D02*
X0271100D01*
X0266835Y0375659D02*
X0268435Y0377259D01*
X0266835Y0375659D02*
Y0379441D01*
X0266635Y0343800D02*
X0270700D01*
X0244600Y0351000D02*
Y0351400D01*
X0244400Y0351200D02*
X0246600Y0349000D01*
X0244400Y0351200D02*
Y0351300D01*
G54D33*
X0314950Y0385764D02*
X0319950D01*
G54D34*
X0344900Y0402100D03*
Y0350600D03*
G54D35*
X0344900Y0397100D03*
Y0392100D03*
Y0387100D03*
Y0382100D03*
Y0377100D03*
Y0372100D03*
Y0367100D03*
Y0362100D03*
Y0357100D03*
Y0345600D03*
Y0340600D03*
Y0335600D03*
X0279900Y0328600D03*
X0284900D03*
X0289900D03*
X0294900D03*
X0299900D03*
X0304900D03*
X0309900D03*
X0314900D03*
X0319900D03*
X0324900D03*
X0329900D03*
X0334900D03*
X0339900D03*
X0284900Y0410500D03*
X0289900D03*
X0294900D03*
X0299900D03*
X0304900D03*
X0309900D03*
X0314900D03*
X0319900D03*
X0324900D03*
X0329900D03*
X0334900D03*
X0339900D03*
X0344900D03*
G54D36*
X0344900Y0328600D03*
X0279900Y0410500D03*
G54D37*
X0244500Y0351200D03*
X0247000Y0343600D03*
X0333200Y0349200D03*
X0317600Y0385600D03*
X0258300Y0391000D03*
G54D38*
X0277800Y0364061D03*
Y0384139D03*
G54D39*
X0234800Y0372371D03*
Y0358229D03*
G54D40*
X0303600Y0346300D03*
X0300200Y0337600D03*
X0301400Y0346100D03*
X0311400Y0344600D03*
X0294800Y0359800D03*
X0286300Y0362200D03*
X0291700Y0355400D03*
X0285400Y0364300D03*
X0288900Y0363800D03*
X0291300Y0361700D03*
X0275900Y0368600D03*
X0277200Y0372800D03*
X0273900Y0376800D03*
X0335700Y0365700D03*
X0286000Y0374900D03*
X0290200Y0379500D03*
X0315500Y0398500D03*
X0269300Y0398000D03*
X0286700Y0390900D03*
X0334100Y0363700D03*
X0304700Y0360200D03*
X0311600Y0398600D03*
X0275800Y0370800D03*
X0262900Y0369700D03*
X0262600Y0358000D03*
X0323300Y0398600D03*
X0321200D03*
X0325300D03*
X0292000Y0381400D03*
X0335300Y0344200D03*
X0332700Y0346200D03*
X0294000Y0383500D03*
X0307500Y0382900D03*
X0309500Y0398600D03*
X0327300D03*
X0307400D03*
X0305500Y0400400D03*
X0335700Y0369700D03*
X0338400Y0377500D03*
X0334200Y0367800D03*
G54D41*
X0317800Y0344800D03*
G54D42*
X0282100Y0396600D03*
X0271700Y0336400D03*
X0321100Y0357300D03*
X0276400Y0393100D03*
X0297400Y0339600D03*
X0262700Y0353200D03*
X0250700Y0386200D03*
X0253500Y0391300D03*
X0282100Y0386500D03*
G54D43*
X0266400Y0344300D03*
G54D44*
X0339500Y0390800D03*
M02*