%FSDAX25Y25*%
%MOIN*%
%SFA1B1*%

%IPPOS*%
%ADD25C,0.010000*%
%ADD59C,0.003940*%
%ADD60C,0.009840*%
%ADD61C,0.007870*%
%ADD62C,0.003000*%
%ADD63C,0.005000*%
%ADD64C,0.002990*%
%LNmoo1.1-1*%
%LPD*%
G54D25*
X0317200Y0377798D02*
Y0372800D01*
X0318200Y0371800*
X0320199*
X0321199Y0372800*
Y0377798*
X0323198D02*
X0327197D01*
Y0376798*
X0323198Y0372800*
Y0371800*
G54D59*
X0310494Y0366400D02*
D01*
X0310493Y0366413*
X0310492Y0366427*
X0310489Y0366440*
X0310486Y0366454*
X0310482Y0366467*
X0310476Y0366480*
X0310470Y0366492*
X0310464Y0366504*
X0310456Y0366515*
X0310447Y0366526*
X0310438Y0366536*
X0310428Y0366546*
X0310418Y0366555*
X0310407Y0366563*
X0310395Y0366570*
X0310383Y0366577*
X0310370Y0366582*
X0310357Y0366587*
X0310344Y0366591*
X0310331Y0366594*
X0310317Y0366595*
X0310303Y0366596*
X0310290*
X0310276Y0366595*
X0310262Y0366594*
X0310249Y0366591*
X0310236Y0366587*
X0310223Y0366582*
X0310210Y0366577*
X0310198Y0366570*
X0310186Y0366563*
X0310175Y0366555*
X0310165Y0366546*
X0310155Y0366536*
X0310146Y0366526*
X0310137Y0366515*
X0310129Y0366504*
X0310123Y0366492*
X0310117Y0366480*
X0310111Y0366467*
X0310107Y0366454*
X0310104Y0366440*
X0310101Y0366427*
X0310100Y0366413*
X0310100Y0366400*
X0310100Y0366386*
X0310101Y0366372*
X0310104Y0366359*
X0310107Y0366345*
X0310111Y0366332*
X0310117Y0366319*
X0310123Y0366307*
X0310129Y0366295*
X0310137Y0366284*
X0310146Y0366273*
X0310155Y0366263*
X0310165Y0366253*
X0310175Y0366244*
X0310186Y0366236*
X0310198Y0366229*
X0310210Y0366222*
X0310223Y0366217*
X0310236Y0366212*
X0310249Y0366208*
X0310262Y0366205*
X0310276Y0366204*
X0310290Y0366203*
X0310303*
X0310317Y0366204*
X0310331Y0366205*
X0310344Y0366208*
X0310357Y0366212*
X0310370Y0366217*
X0310383Y0366222*
X0310395Y0366229*
X0310407Y0366236*
X0310418Y0366244*
X0310428Y0366253*
X0310438Y0366263*
X0310447Y0366273*
X0310456Y0366284*
X0310464Y0366295*
X0310470Y0366307*
X0310476Y0366319*
X0310482Y0366332*
X0310486Y0366345*
X0310489Y0366359*
X0310492Y0366372*
X0310493Y0366386*
X0310494Y0366400*
X0305138Y0361732D02*
Y0365669D01*
X0309862Y0361732D02*
Y0365669D01*
X0273430Y0374615D02*
Y0375690D01*
X0276580Y0374575D02*
Y0375650D01*
X0273425Y0374584D02*
X0276575D01*
X0260241Y0377768D02*
Y0386232D01*
X0265359Y0377768D02*
Y0386232D01*
X0260241D02*
X0265359D01*
X0260241Y0377768D02*
X0265359D01*
X0260241Y0368868D02*
Y0377332D01*
X0265359Y0368868D02*
Y0377332D01*
X0260241D02*
X0265359D01*
X0260241Y0368868D02*
X0265359D01*
X0260241Y0359968D02*
Y0368432D01*
X0265359Y0359968D02*
Y0368432D01*
X0260241D02*
X0265359D01*
X0260241Y0359968D02*
X0265359D01*
X0260241Y0351068D02*
Y0359532D01*
X0265359Y0351068D02*
Y0359532D01*
X0260241D02*
X0265359D01*
X0260241Y0351068D02*
X0265359D01*
X0260241Y0342168D02*
Y0350632D01*
X0265359Y0342168D02*
Y0350632D01*
X0260241D02*
X0265359D01*
X0260241Y0342168D02*
X0265359D01*
X0269425Y0388528D02*
X0272575D01*
X0269420Y0387462D02*
Y0388537D01*
X0272570Y0387422D02*
Y0388497D01*
X0265016Y0387425D02*
Y0390575D01*
X0263950Y0390580D02*
X0265025D01*
X0263910Y0387430D02*
X0264985D01*
G54D60*
X0333592Y0386092D02*
D01*
X0333590Y0386126*
X0333587Y0386160*
X0333581Y0386194*
X0333572Y0386227*
X0333562Y0386260*
X0333549Y0386292*
X0333534Y0386322*
X0333517Y0386352*
X0333498Y0386381*
X0333476Y0386408*
X0333453Y0386433*
X0333429Y0386457*
X0333402Y0386479*
X0333375Y0386499*
X0333346Y0386518*
X0333315Y0386534*
X0333284Y0386548*
X0333252Y0386559*
X0333219Y0386569*
X0333185Y0386576*
X0333151Y0386581*
X0333117Y0386583*
X0333082*
X0333048Y0386581*
X0333014Y0386576*
X0332980Y0386569*
X0332947Y0386559*
X0332915Y0386548*
X0332884Y0386534*
X0332854Y0386518*
X0332824Y0386499*
X0332797Y0386479*
X0332770Y0386457*
X0332746Y0386433*
X0332723Y0386408*
X0332701Y0386381*
X0332682Y0386352*
X0332665Y0386322*
X0332650Y0386292*
X0332637Y0386260*
X0332627Y0386227*
X0332618Y0386194*
X0332612Y0386160*
X0332609Y0386126*
X0332608Y0386092*
X0332609Y0386057*
X0332612Y0386023*
X0332618Y0385989*
X0332627Y0385956*
X0332637Y0385923*
X0332650Y0385891*
X0332665Y0385861*
X0332682Y0385831*
X0332701Y0385802*
X0332723Y0385775*
X0332746Y0385750*
X0332770Y0385726*
X0332797Y0385704*
X0332824Y0385684*
X0332854Y0385665*
X0332884Y0385649*
X0332915Y0385635*
X0332947Y0385624*
X0332980Y0385614*
X0333014Y0385607*
X0333048Y0385602*
X0333082Y0385600*
X0333117*
X0333151Y0385602*
X0333185Y0385607*
X0333219Y0385614*
X0333252Y0385624*
X0333284Y0385635*
X0333315Y0385649*
X0333346Y0385665*
X0333375Y0385684*
X0333402Y0385704*
X0333429Y0385726*
X0333453Y0385750*
X0333476Y0385775*
X0333498Y0385802*
X0333517Y0385831*
X0333534Y0385861*
X0333549Y0385891*
X0333562Y0385923*
X0333572Y0385956*
X0333581Y0385989*
X0333587Y0386023*
X0333590Y0386057*
X0333592Y0386092*
G54D61*
X0332098Y0376626D02*
D01*
X0331991Y0376615*
X0331886Y0376596*
X0331782Y0376571*
X0331681Y0376538*
X0331582Y0376499*
X0331486Y0376452*
X0331393Y0376399*
X0331304Y0376340*
X0331220Y0376274*
X0331140Y0376203*
X0331066Y0376126*
X0330997Y0376045*
X0330934Y0375959*
X0330877Y0375868*
X0330827Y0375774*
X0330783Y0375677*
X0330746Y0375577*
X0330717Y0375474*
X0330694Y0375370*
X0330679Y0375264*
X0330671Y0375158*
X0330671Y0375051*
X0330678Y0374944*
X0330693Y0374839*
X0330714Y0374734*
X0330744Y0374631*
X0330780Y0374531*
X0330823Y0374433*
X0330873Y0374339*
X0330929Y0374248*
X0330991Y0374162*
X0331060Y0374080*
X0331134Y0374003*
X0331213Y0373931*
X0331297Y0373865*
X0331385Y0373805*
X0331477Y0373751*
X0331573Y0373704*
X0331672Y0373664*
X0331773Y0373631*
X0331877Y0373604*
X0331982Y0373586*
X0332010Y0373582*
X0341357Y0405643D02*
X0348443D01*
Y0353557D02*
Y0405643D01*
X0341357Y0353557D02*
X0348443D01*
X0341357D02*
Y0405643D01*
X0276357Y0325057D02*
Y0332143D01*
X0348443*
Y0325057D02*
Y0332143D01*
X0276357Y0325057D02*
X0348443D01*
X0276357Y0406957D02*
Y0414043D01*
X0348443*
Y0406957D02*
Y0414043D01*
X0276357Y0406957D02*
X0348443D01*
X0237580Y0350500D02*
X0247620D01*
Y0355100*
X0237580Y0350500D02*
Y0355100D01*
X0247620*
X0306427Y0348638D02*
X0307214D01*
X0306427Y0353362D02*
X0307214D01*
X0291925Y0338657D02*
X0295075D01*
X0291925D02*
Y0345743D01*
X0295075Y0338657D02*
Y0345743D01*
X0291925D02*
X0295075D01*
X0243007Y0355925D02*
Y0359075D01*
X0242725Y0358945D02*
X0245875D01*
X0259020Y0404941D02*
Y0410059D01*
X0303827Y0378938D02*
X0304614D01*
X0303827Y0383662D02*
X0304614D01*
X0303162Y0364686D02*
Y0365473D01*
X0298438Y0364686D02*
Y0365473D01*
X0302225Y0376343D02*
X0305375D01*
Y0369257D02*
Y0376343D01*
X0302225Y0369257D02*
Y0376343D01*
Y0369257D02*
X0305375D01*
X0312600Y0370300D02*
Y0379900D01*
Y0370300D02*
Y0379600D01*
Y0379900D02*
X0332200D01*
X0312700Y0370300D02*
X0332200D01*
Y0376800D02*
Y0379800D01*
Y0370300D02*
Y0373400D01*
X0294125Y0399093D02*
X0297275D01*
G54D62*
X0280100Y0336250D02*
Y0345950D01*
X0283900Y0336250D02*
Y0345950D01*
X0280100Y0336250D02*
X0283900D01*
X0280100Y0345950D02*
X0283900D01*
X0332050Y0352700D02*
Y0356500D01*
X0322350Y0352700D02*
Y0356500D01*
Y0352700D02*
X0332050D01*
X0322350Y0356500D02*
X0332050D01*
X0291600Y0376350D02*
X0295400D01*
X0291600Y0366650D02*
X0295400D01*
Y0376350*
X0291600Y0366650D02*
Y0376350D01*
X0236150Y0341700D02*
Y0345500D01*
X0245850Y0341700D02*
Y0345500D01*
X0236150D02*
X0245850D01*
X0236150Y0341700D02*
X0245850D01*
X0330850Y0391700D02*
X0340550D01*
X0330850Y0395500D02*
X0340550D01*
Y0391700D02*
Y0395500D01*
X0330850Y0391700D02*
Y0395500D01*
Y0397400D02*
X0340550D01*
X0330850Y0401200D02*
X0340550D01*
Y0397400D02*
Y0401200D01*
X0330850Y0397400D02*
Y0401200D01*
X0280100Y0377050D02*
X0283900D01*
X0280100Y0367350D02*
X0283900D01*
Y0377050*
X0280100Y0367350D02*
Y0377050D01*
X0283850Y0387600D02*
Y0391400D01*
X0274150Y0387600D02*
Y0391400D01*
Y0387600D02*
X0283850D01*
X0274150Y0391400D02*
X0283850D01*
X0269200Y0379550D02*
X0273000D01*
X0269200Y0369850D02*
X0273000D01*
Y0379550*
X0269200Y0369850D02*
Y0379550D01*
X0251150Y0376800D02*
Y0380600D01*
X0260850Y0376800D02*
Y0380600D01*
X0251150D02*
X0260850D01*
X0251150Y0376800D02*
X0260850D01*
X0251150Y0367900D02*
Y0371700D01*
X0260850Y0367900D02*
Y0371700D01*
X0251150D02*
X0260850D01*
X0251150Y0367900D02*
X0260850D01*
X0251150Y0359200D02*
Y0363000D01*
X0260850Y0359200D02*
Y0363000D01*
X0251150D02*
X0260850D01*
X0251150Y0359200D02*
X0260850D01*
X0251150Y0350300D02*
Y0354100D01*
X0260850Y0350300D02*
Y0354100D01*
X0251150D02*
X0260850D01*
X0251150Y0350300D02*
X0260850D01*
X0251150Y0341700D02*
Y0345500D01*
X0260850Y0341700D02*
Y0345500D01*
X0251150D02*
X0260850D01*
X0251150Y0341700D02*
X0260850D01*
X0269200Y0370050D02*
X0273000D01*
X0269200Y0360350D02*
X0273000D01*
Y0370050*
X0269200Y0360350D02*
Y0370050D01*
Y0351050D02*
X0273000D01*
X0269200Y0341350D02*
X0273000D01*
Y0351050*
X0269200Y0341350D02*
Y0351050D01*
Y0360550D02*
X0273000D01*
X0269200Y0350850D02*
X0273000D01*
Y0360550*
X0269200Y0350850D02*
Y0360550D01*
X0279750Y0397100D02*
X0289450D01*
X0279750Y0400900D02*
X0289450D01*
Y0397100D02*
Y0400900D01*
X0279750Y0397100D02*
Y0400900D01*
Y0402300D02*
Y0406100D01*
X0289450Y0402300D02*
Y0406100D01*
X0279750D02*
X0289450D01*
X0279750Y0402300D02*
X0289450D01*
X0300500Y0396850D02*
X0304300D01*
X0300500Y0387150D02*
X0304300D01*
Y0396850*
X0300500Y0387150D02*
Y0396850D01*
X0340850Y0402600D02*
Y0406400D01*
X0331150Y0402600D02*
Y0406400D01*
Y0402600D02*
X0340850D01*
X0331150Y0406400D02*
X0340850D01*
X0285300Y0381650D02*
X0289100D01*
X0285300Y0391350D02*
X0289100D01*
X0285300Y0381650D02*
Y0391350D01*
X0289100Y0381650D02*
Y0391350D01*
X0294300Y0348450D02*
X0298100D01*
X0294300Y0358150D02*
X0298100D01*
X0294300Y0348450D02*
Y0358150D01*
X0298100Y0348450D02*
Y0358150D01*
X0299900Y0348450D02*
Y0358150D01*
X0303700Y0348450D02*
Y0358150D01*
X0299900Y0348450D02*
X0303700D01*
X0299900Y0358150D02*
X0303700D01*
X0332150Y0347300D02*
Y0351100D01*
X0322450Y0347300D02*
Y0351100D01*
Y0347300D02*
X0332150D01*
X0322450Y0351100D02*
X0332150D01*
X0263150Y0396800D02*
X0272850D01*
X0263150Y0400600D02*
X0272850D01*
Y0396800D02*
Y0400600D01*
X0263150Y0396800D02*
Y0400600D01*
X0318033Y0349866D02*
X0317700Y0350199D01*
X0317033*
X0316700Y0349866*
Y0348533*
X0317033Y0348200*
X0317700*
X0318033Y0348533*
X0320032Y0348200D02*
X0318699D01*
X0320032Y0349533*
Y0349866*
X0319699Y0350199*
X0319033*
X0318699Y0349866*
X0320699D02*
X0321032Y0350199D01*
X0321698*
X0322032Y0349866*
Y0348533*
X0321698Y0348200*
X0321032*
X0320699Y0348533*
Y0349866*
X0259300Y0397900D02*
Y0399899D01*
X0260300*
X0260633Y0399566*
Y0398900*
X0260300Y0398566*
X0259300*
X0259966D02*
X0260633Y0397900D01*
X0261299D02*
X0262299D01*
X0262632Y0398233*
X0262299Y0398566*
X0261633*
X0261299Y0398900*
X0261633Y0399233*
X0262632*
X0318300Y0353700D02*
Y0355699D01*
X0319300*
X0319633Y0355366*
Y0354700*
X0319300Y0354366*
X0318300*
X0318966D02*
X0319633Y0353700D01*
X0321632Y0355699D02*
X0320966Y0355366D01*
X0320299Y0354700*
Y0354033*
X0320633Y0353700*
X0321299*
X0321632Y0354033*
Y0354366*
X0321299Y0354700*
X0320299*
X0292100Y0364200D02*
Y0366199D01*
X0293100*
X0293433Y0365866*
Y0365200*
X0293100Y0364866*
X0292100*
X0292766D02*
X0293433Y0364200D01*
X0294099D02*
X0294766D01*
X0294433*
Y0366199*
X0294099Y0365866*
X0307333Y0351267D02*
X0308666D01*
X0308999Y0351600*
Y0352267*
X0308666Y0352600*
X0307333*
X0307000Y0352267*
Y0351600*
X0307666Y0351934D02*
X0307000Y0351267D01*
Y0351600D02*
X0307333Y0351267D01*
X0308999Y0349268D02*
Y0350601D01*
X0308000*
X0308333Y0349934*
Y0349601*
X0308000Y0349268*
X0307333*
X0307000Y0349601*
Y0350267*
X0307333Y0350601*
X0325300Y0392600D02*
Y0394599D01*
X0326300*
X0326633Y0394266*
Y0393600*
X0326300Y0393266*
X0325300*
X0325966D02*
X0326633Y0392600D01*
X0327299D02*
X0327966D01*
X0327633*
Y0394599*
X0327299Y0394266*
X0328965D02*
X0329299Y0394599D01*
X0329965*
X0330298Y0394266*
Y0393933*
X0329965Y0393600*
X0330298Y0393266*
Y0392933*
X0329965Y0392600*
X0329299*
X0328965Y0392933*
Y0393266*
X0329299Y0393600*
X0328965Y0393933*
Y0394266*
X0329299Y0393600D02*
X0329965D01*
X0326833Y0399966D02*
X0326500Y0400299D01*
X0325833*
X0325500Y0399966*
Y0398633*
X0325833Y0398300*
X0326500*
X0326833Y0398633*
X0327499Y0398300D02*
X0328166D01*
X0327833*
Y0400299*
X0327499Y0399966*
X0329166Y0398300D02*
X0329832D01*
X0329499*
Y0400299*
X0329166Y0399966*
X0291900Y0337899D02*
Y0336233D01*
X0292233Y0335900*
X0292900*
X0293233Y0336233*
Y0337899*
X0295232D02*
X0294566Y0337566D01*
X0293899Y0336900*
Y0336233*
X0294233Y0335900*
X0294899*
X0295232Y0336233*
Y0336566*
X0294899Y0336900*
X0293899*
X0235500Y0342200D02*
X0233501D01*
Y0343200*
X0233834Y0343533*
X0234500*
X0234834Y0343200*
Y0342200*
Y0342866D02*
X0235500Y0343533D01*
X0233834Y0344199D02*
X0233501Y0344533D01*
Y0345199*
X0233834Y0345532*
X0234167*
X0234500Y0345199*
Y0344866*
Y0345199*
X0234834Y0345532*
X0235167*
X0235500Y0345199*
Y0344533*
X0235167Y0344199*
X0239933Y0352033D02*
Y0353366D01*
X0239600Y0353699*
X0238933*
X0238600Y0353366*
Y0352033*
X0238933Y0351700*
X0239600*
X0239266Y0352366D02*
X0239933Y0351700D01*
X0239600D02*
X0239933Y0352033D01*
X0240599Y0351700D02*
X0241266D01*
X0240933*
Y0353699*
X0240599Y0353366*
X0273500Y0377599D02*
Y0375600D01*
X0274500*
X0274833Y0375933*
Y0377266*
X0274500Y0377599*
X0273500*
X0275499D02*
X0276832D01*
Y0377266*
X0275499Y0375933*
Y0375600*
X0281833Y0379166D02*
X0281500Y0379499D01*
X0280833*
X0280500Y0379166*
Y0377833*
X0280833Y0377500*
X0281500*
X0281833Y0377833*
X0283832Y0377500D02*
X0282499D01*
X0283832Y0378833*
Y0379166*
X0283499Y0379499*
X0282833*
X0282499Y0379166*
X0291100Y0386400D02*
X0289101D01*
Y0387400*
X0289434Y0387733*
X0290100*
X0290434Y0387400*
Y0386400*
Y0387066D02*
X0291100Y0387733D01*
Y0389399D02*
X0289101D01*
X0290100Y0388399*
Y0389732*
X0277500Y0388400D02*
Y0390399D01*
X0278500*
X0278833Y0390066*
Y0389400*
X0278500Y0389066*
X0277500*
X0278166D02*
X0278833Y0388400D01*
X0280832Y0390399D02*
X0279499D01*
Y0389400*
X0280166Y0389733*
X0280499*
X0280832Y0389400*
Y0388733*
X0280499Y0388400*
X0279833*
X0279499Y0388733*
X0261801Y0379600D02*
X0263800D01*
Y0380600*
X0263467Y0380933*
X0262134*
X0261801Y0380600*
Y0379600*
Y0382932D02*
Y0381599D01*
X0262800*
X0262467Y0382266*
Y0382599*
X0262800Y0382932*
X0263467*
X0263800Y0382599*
Y0381933*
X0263467Y0381599*
X0270234Y0373333D02*
X0269901Y0373000D01*
Y0372333*
X0270234Y0372000*
X0271567*
X0271900Y0372333*
Y0373000*
X0271567Y0373333*
X0272566Y0373999D02*
X0270567D01*
Y0374999*
X0270900Y0375332*
X0271567*
X0271900Y0374999*
Y0373999*
Y0376998D02*
X0269901D01*
X0270900Y0375999*
Y0377332*
X0240500Y0356401D02*
Y0358400D01*
X0239167*
X0238501D02*
X0237834D01*
X0238167*
Y0356401*
X0238501Y0356734*
X0261901Y0371800D02*
X0263900D01*
Y0372800*
X0263567Y0373133*
X0262234*
X0261901Y0372800*
Y0371800*
X0263900Y0374799D02*
X0261901D01*
X0262900Y0373799*
Y0375132*
X0261801Y0364300D02*
X0263800D01*
Y0365300*
X0263467Y0365633*
X0262134*
X0261801Y0365300*
Y0364300*
X0262134Y0366299D02*
X0261801Y0366633D01*
Y0367299*
X0262134Y0367632*
X0262467*
X0262800Y0367299*
Y0366966*
Y0367299*
X0263134Y0367632*
X0263467*
X0263800Y0367299*
Y0366633*
X0263467Y0366299*
X0261701Y0353900D02*
X0263700D01*
Y0354900*
X0263367Y0355233*
X0262034*
X0261701Y0354900*
Y0353900*
X0263700Y0357232D02*
Y0355899D01*
X0262367Y0357232*
X0262034*
X0261701Y0356899*
Y0356233*
X0262034Y0355899*
X0261801Y0345600D02*
X0263800D01*
Y0346600*
X0263467Y0346933*
X0262134*
X0261801Y0346600*
Y0345600*
X0263800Y0347599D02*
Y0348266D01*
Y0347933*
X0261801*
X0262134Y0347599*
X0251833Y0382966D02*
X0251500Y0383299D01*
X0250833*
X0250500Y0382966*
Y0381633*
X0250833Y0381300*
X0251500*
X0251833Y0381633*
X0252499Y0381300D02*
X0253499D01*
X0253832Y0381633*
X0253499Y0381966*
X0252833*
X0252499Y0382300*
X0252833Y0382633*
X0253832*
X0255832Y0383299D02*
X0254499D01*
Y0382300*
X0255165Y0382633*
X0255498*
X0255832Y0382300*
Y0381633*
X0255498Y0381300*
X0254832*
X0254499Y0381633*
X0251933Y0374066D02*
X0251600Y0374399D01*
X0250933*
X0250600Y0374066*
Y0372733*
X0250933Y0372400*
X0251600*
X0251933Y0372733*
X0252599Y0372400D02*
X0253599D01*
X0253932Y0372733*
X0253599Y0373066*
X0252933*
X0252599Y0373400*
X0252933Y0373733*
X0253932*
X0255598Y0372400D02*
Y0374399D01*
X0254599Y0373400*
X0255932*
X0251933Y0365266D02*
X0251600Y0365599D01*
X0250933*
X0250600Y0365266*
Y0363933*
X0250933Y0363600*
X0251600*
X0251933Y0363933*
X0252599Y0363600D02*
X0253599D01*
X0253932Y0363933*
X0253599Y0364266*
X0252933*
X0252599Y0364600*
X0252933Y0364933*
X0253932*
X0254599Y0365266D02*
X0254932Y0365599D01*
X0255598*
X0255932Y0365266*
Y0364933*
X0255598Y0364600*
X0255265*
X0255598*
X0255932Y0364266*
Y0363933*
X0255598Y0363600*
X0254932*
X0254599Y0363933*
X0251933Y0356366D02*
X0251600Y0356699D01*
X0250933*
X0250600Y0356366*
Y0355033*
X0250933Y0354700*
X0251600*
X0251933Y0355033*
X0252599Y0354700D02*
X0253599D01*
X0253932Y0355033*
X0253599Y0355366*
X0252933*
X0252599Y0355700*
X0252933Y0356033*
X0253932*
X0255932Y0354700D02*
X0254599D01*
X0255932Y0356033*
Y0356366*
X0255598Y0356699*
X0254932*
X0254599Y0356366*
X0251933Y0347666D02*
X0251600Y0347999D01*
X0250933*
X0250600Y0347666*
Y0346333*
X0250933Y0346000*
X0251600*
X0251933Y0346333*
X0252599Y0346000D02*
X0253599D01*
X0253932Y0346333*
X0253599Y0346666*
X0252933*
X0252599Y0347000*
X0252933Y0347333*
X0253932*
X0254599Y0346000D02*
X0255265D01*
X0254932*
Y0347999*
X0254599Y0347666*
X0247134Y0367133D02*
X0246801Y0366800D01*
Y0366133*
X0247134Y0365800*
X0248467*
X0248800Y0366133*
Y0366800*
X0248467Y0367133*
X0246801Y0367799D02*
X0248134D01*
X0248800Y0368466*
X0248134Y0369132*
X0246801*
X0248800Y0369799D02*
Y0370465D01*
Y0370132*
X0246801*
X0247134Y0369799*
X0269400Y0386911D02*
Y0384912D01*
X0270400*
X0270733Y0385245*
Y0386578*
X0270400Y0386911*
X0269400*
X0272732D02*
X0272066Y0386578D01*
X0271399Y0385911*
Y0385245*
X0271733Y0384912*
X0272399*
X0272732Y0385245*
Y0385578*
X0272399Y0385911*
X0271399*
X0263299Y0389167D02*
Y0390500D01*
X0261300*
Y0389167*
X0262300Y0390500D02*
Y0389834D01*
X0263299Y0388501D02*
X0261300D01*
Y0387501*
X0261633Y0387168*
X0262966*
X0263299Y0387501*
Y0388501*
X0256534Y0408133D02*
X0256201Y0407800D01*
Y0407133*
X0256534Y0406800*
X0257867*
X0258200Y0407133*
Y0407800*
X0257867Y0408133*
X0258200Y0408799D02*
Y0409466D01*
Y0409133*
X0256201*
X0256534Y0408799*
X0300533Y0363033D02*
Y0364366D01*
X0300200Y0364699*
X0299533*
X0299200Y0364366*
Y0363033*
X0299533Y0362700*
X0300200*
X0299866Y0363366D02*
X0300533Y0362700D01*
X0300200D02*
X0300533Y0363033D01*
X0302532Y0362700D02*
X0301199D01*
X0302532Y0364033*
Y0364366*
X0302199Y0364699*
X0301533*
X0301199Y0364366*
X0270234Y0344833D02*
X0269901Y0344500D01*
Y0343833*
X0270234Y0343500*
X0271567*
X0271900Y0343833*
Y0344500*
X0271567Y0344833*
X0272566Y0345499D02*
X0270567D01*
Y0346499*
X0270900Y0346832*
X0271567*
X0271900Y0346499*
Y0345499*
Y0347499D02*
Y0348165D01*
Y0347832*
X0269901*
X0270234Y0347499*
Y0354333D02*
X0269901Y0354000D01*
Y0353333*
X0270234Y0353000*
X0271567*
X0271900Y0353333*
Y0354000*
X0271567Y0354333*
X0272566Y0354999D02*
X0270567D01*
Y0355999*
X0270900Y0356332*
X0271567*
X0271900Y0355999*
Y0354999*
Y0358332D02*
Y0356999D01*
X0270567Y0358332*
X0270234*
X0269901Y0357998*
Y0357332*
X0270234Y0356999*
X0304733Y0381667D02*
X0306066D01*
X0306399Y0382000*
Y0382667*
X0306066Y0383000*
X0304733*
X0304400Y0382667*
Y0382000*
X0305066Y0382334D02*
X0304400Y0381667D01*
Y0382000D02*
X0304733Y0381667D01*
X0306066Y0381001D02*
X0306399Y0380667D01*
Y0380001*
X0306066Y0379668*
X0305733*
X0305400Y0380001*
Y0380334*
Y0380001*
X0305066Y0379668*
X0304733*
X0304400Y0380001*
Y0380667*
X0304733Y0381001*
X0274400Y0403100D02*
Y0405099D01*
X0275400*
X0275733Y0404766*
Y0404100*
X0275400Y0403766*
X0274400*
X0275066D02*
X0275733Y0403100D01*
X0276399D02*
X0277066D01*
X0276733*
Y0405099*
X0276399Y0404766*
X0278065D02*
X0278399Y0405099D01*
X0279065*
X0279398Y0404766*
Y0403433*
X0279065Y0403100*
X0278399*
X0278065Y0403433*
Y0404766*
X0274400Y0398200D02*
Y0400199D01*
X0275400*
X0275733Y0399866*
Y0399200*
X0275400Y0398866*
X0274400*
X0275066D02*
X0275733Y0398200D01*
X0276399D02*
X0277066D01*
X0276733*
Y0400199*
X0276399Y0399866*
X0278065Y0398200D02*
X0278732D01*
X0278399*
Y0400199*
X0278065Y0399866*
X0325600Y0403600D02*
Y0405599D01*
X0326600*
X0326933Y0405266*
Y0404600*
X0326600Y0404266*
X0325600*
X0326266D02*
X0326933Y0403600D01*
X0327599D02*
X0328266D01*
X0327933*
Y0405599*
X0327599Y0405266*
X0330598Y0405599D02*
X0329932Y0405266D01*
X0329265Y0404600*
Y0403933*
X0329599Y0403600*
X0330265*
X0330598Y0403933*
Y0404266*
X0330265Y0404600*
X0329265*
X0306800Y0390200D02*
X0304801D01*
Y0391200*
X0305134Y0391533*
X0305800*
X0306134Y0391200*
Y0390200*
Y0390866D02*
X0306800Y0391533D01*
Y0393532D02*
Y0392199D01*
X0305467Y0393532*
X0305134*
X0304801Y0393199*
Y0392533*
X0305134Y0392199*
X0298700Y0379599D02*
Y0377933D01*
X0299033Y0377600*
X0299700*
X0300033Y0377933*
Y0379599*
X0300699Y0377600D02*
X0301366D01*
X0301033*
Y0379599*
X0300699Y0379266*
X0312299Y0365600D02*
X0310633D01*
X0310300Y0365267*
Y0364600*
X0310633Y0364267*
X0312299*
X0310300Y0362268D02*
Y0363601D01*
X0311633Y0362268*
X0311966*
X0312299Y0362601*
Y0363267*
X0311966Y0363601*
X0277934Y0339033D02*
X0277601Y0338700D01*
Y0338033*
X0277934Y0337700*
X0279267*
X0279600Y0338033*
Y0338700*
X0279267Y0339033*
X0279600Y0339699D02*
Y0340366D01*
Y0340033*
X0277601*
X0277934Y0339699*
Y0341366D02*
X0277601Y0341699D01*
Y0342365*
X0277934Y0342698*
X0279267*
X0279600Y0342365*
Y0341699*
X0279267Y0341366*
X0277934*
X0300800Y0355900D02*
X0302799D01*
Y0354900*
X0302466Y0354567*
X0301800*
X0301466Y0354900*
Y0355900*
Y0355234D02*
X0300800Y0354567D01*
Y0353901D02*
Y0353234D01*
Y0353567*
X0302799*
X0302466Y0353901*
X0302799Y0352235D02*
Y0350902D01*
X0302466*
X0301133Y0352235*
X0300800*
X0295200Y0355800D02*
X0297199D01*
Y0354800*
X0296866Y0354467*
X0296200*
X0295866Y0354800*
Y0355800*
Y0355134D02*
X0295200Y0354467D01*
Y0353801D02*
Y0353134D01*
Y0353467*
X0297199*
X0296866Y0353801*
X0295533Y0352134D02*
X0295200Y0351801D01*
Y0351135*
X0295533Y0350802*
X0296866*
X0297199Y0351135*
Y0351801*
X0296866Y0352134*
X0296533*
X0296200Y0351801*
Y0350802*
X0294601Y0381200D02*
X0296600D01*
Y0382200*
X0296267Y0382533*
X0294934*
X0294601Y0382200*
Y0381200*
X0296600Y0383199D02*
X0295267D01*
X0294601Y0383866*
X0295267Y0384532*
X0296600*
X0295600*
Y0383199*
X0296600Y0385199D02*
Y0385865D01*
Y0385532*
X0294601*
X0294934Y0385199*
X0243000Y0377500D02*
X0241001D01*
X0241667Y0378166*
X0241001Y0378833*
X0243000*
X0241667Y0379833D02*
Y0380499D01*
X0242000Y0380832*
X0243000*
Y0379833*
X0242667Y0379499*
X0242334Y0379833*
Y0380832*
X0243000Y0381499D02*
Y0382498D01*
X0242667Y0382832*
X0242334Y0382498*
Y0381832*
X0242000Y0381499*
X0241667Y0381832*
Y0382832*
X0243000Y0383498D02*
Y0384498D01*
X0242667Y0384831*
X0242334Y0384498*
Y0383831*
X0242000Y0383498*
X0241667Y0383831*
Y0384831*
Y0385831D02*
Y0386497D01*
X0242000Y0386830*
X0243000*
Y0385831*
X0242667Y0385497*
X0242334Y0385831*
Y0386830*
X0241667Y0388830D02*
Y0387830D01*
X0242000Y0387497*
X0242667*
X0243000Y0387830*
Y0388830*
X0241001Y0389496D02*
X0243000D01*
X0242000*
X0241667Y0389829*
Y0390496*
X0242000Y0390829*
X0243000*
X0241667Y0391495D02*
X0242667D01*
X0243000Y0391829*
Y0392828*
X0241667*
X0243000Y0393495D02*
Y0394495D01*
X0242667Y0394828*
X0242334Y0394495*
Y0393828*
X0242000Y0393495*
X0241667Y0393828*
Y0394828*
X0243000Y0396494D02*
Y0395827D01*
X0242667Y0395494*
X0242000*
X0241667Y0395827*
Y0396494*
X0242000Y0396827*
X0242334*
Y0395494*
X0241334Y0397827D02*
X0241667D01*
Y0397494*
Y0398160*
Y0397827*
X0242667*
X0243000Y0398160*
X0241334Y0399493D02*
X0241667D01*
Y0399160*
Y0399826*
Y0399493*
X0242667*
X0243000Y0399826*
Y0400826D02*
Y0401825D01*
X0242667Y0402159*
X0242334Y0401825*
Y0401159*
X0242000Y0400826*
X0241667Y0401159*
Y0402159*
X0237801Y0377700D02*
X0239467D01*
X0239800Y0378033*
Y0378700*
X0239467Y0379033*
X0237801*
X0239800Y0379699D02*
X0238467D01*
Y0380699*
X0238800Y0381032*
X0239800*
Y0381699D02*
Y0382365D01*
Y0382032*
X0238467*
Y0381699*
Y0383365D02*
X0239800Y0384031D01*
X0238467Y0384698*
X0239800Y0386364D02*
Y0385697D01*
X0239467Y0385364*
X0238800*
X0238467Y0385697*
Y0386364*
X0238800Y0386697*
X0239134*
Y0385364*
X0238467Y0387364D02*
X0239800D01*
X0239134*
X0238800Y0387697*
X0238467Y0388030*
Y0388363*
X0239800Y0389363D02*
Y0390363D01*
X0239467Y0390696*
X0239134Y0390363*
Y0389696*
X0238800Y0389363*
X0238467Y0389696*
Y0390696*
X0239800Y0391362D02*
Y0392029D01*
Y0391695*
X0238467*
Y0391362*
X0238134Y0393362D02*
X0238467D01*
Y0393028*
Y0393695*
Y0393362*
X0239467*
X0239800Y0393695*
X0238467Y0394694D02*
X0239467D01*
X0239800Y0395028*
Y0396027*
X0240133*
X0240466Y0395694*
Y0395361*
X0239800Y0396027D02*
X0238467D01*
X0237801Y0399693D02*
Y0399026D01*
X0238134Y0398693*
X0239467*
X0239800Y0399026*
Y0399693*
X0239467Y0400026*
X0238134*
X0237801Y0399693*
X0239800Y0401026D02*
X0238134D01*
X0238800*
Y0400693*
Y0401359*
Y0401026*
X0238134*
X0237801Y0401359*
X0246300Y0377500D02*
X0244967D01*
X0244301Y0378166*
X0244967Y0378833*
X0246300*
X0245300*
Y0377500*
X0246300Y0379499D02*
X0244967D01*
Y0379833*
X0245300Y0380166*
X0246300*
X0245300*
X0244967Y0380499*
X0245300Y0380832*
X0246300*
X0244301Y0381499D02*
X0246300D01*
X0245300*
X0244967Y0381832*
Y0382498*
X0245300Y0382832*
X0246300*
Y0384498D02*
Y0383831D01*
X0245967Y0383498*
X0245300*
X0244967Y0383831*
Y0384498*
X0245300Y0384831*
X0245634*
Y0383498*
X0244967Y0385497D02*
X0246300D01*
X0245634*
X0245300Y0385831*
X0244967Y0386164*
Y0386497*
X0246300Y0387497D02*
Y0388496D01*
X0245967Y0388830*
X0245634Y0388496*
Y0387830*
X0245300Y0387497*
X0244967Y0387830*
Y0388830*
X0244634Y0389829D02*
X0244967D01*
Y0389496*
Y0390163*
Y0389829*
X0245967*
X0246300Y0390163*
G54D63*
X0249221Y0361701D02*
Y0374299D01*
X0239379Y0361701D02*
Y0374299D01*
Y0361701D02*
X0249221D01*
X0239379Y0374299D02*
X0249221D01*
X0230800Y0365300D02*
X0238800D01*
X0241733Y0337216D02*
X0241149Y0337799D01*
X0239983*
X0239400Y0337216*
Y0336633*
X0239983Y0336049*
X0241149*
X0241733Y0335466*
Y0334883*
X0241149Y0334300*
X0239983*
X0239400Y0334883*
X0242899Y0334300D02*
Y0337799D01*
X0244648*
X0245231Y0337216*
Y0336049*
X0244648Y0335466*
X0242899*
X0248730Y0334883D02*
Y0337216D01*
X0248147Y0337799*
X0246981*
X0246398Y0337216*
Y0334883*
X0246981Y0334300*
X0248147*
X0247564Y0335466D02*
X0248730Y0334300D01*
X0248147D02*
X0248730Y0334883D01*
X0249897Y0334300D02*
Y0337799D01*
X0251646*
X0252229Y0337216*
Y0336049*
X0251646Y0335466*
X0249897*
X0251063D02*
X0252229Y0334300D01*
X0256894Y0337799D02*
Y0334300D01*
X0259227*
X0260976Y0336633D02*
X0262143D01*
X0262726Y0336049*
Y0334300*
X0260976*
X0260393Y0334883*
X0260976Y0335466*
X0262726*
X0263892Y0337799D02*
Y0334300D01*
X0265641*
X0266225Y0334883*
Y0335466*
Y0336049*
X0265641Y0336633*
X0263892*
X0239400Y0328500D02*
Y0331999D01*
X0240566Y0330833*
X0241733Y0331999*
Y0328500*
X0243482D02*
X0244648D01*
X0245231Y0329083*
Y0330249*
X0244648Y0330833*
X0243482*
X0242899Y0330249*
Y0329083*
X0243482Y0328500*
X0246981D02*
X0248147D01*
X0248730Y0329083*
Y0330249*
X0248147Y0330833*
X0246981*
X0246398Y0330249*
Y0329083*
X0246981Y0328500*
X0253396D02*
X0254562D01*
X0253979*
Y0331999*
X0253396Y0331416*
X0256311Y0328500D02*
Y0329083D01*
X0256894*
Y0328500*
X0256311*
X0259227D02*
X0260393D01*
X0259810*
Y0331999*
X0259227Y0331416*
G54D64*
X0270234Y0363833D02*
X0269901Y0363500D01*
Y0362833*
X0270234Y0362500*
X0271567*
X0271900Y0362833*
Y0363500*
X0271567Y0363833*
X0272566Y0364499D02*
X0270567D01*
Y0365499*
X0270900Y0365832*
X0271567*
X0271900Y0365499*
Y0364499*
X0270234Y0366499D02*
X0269901Y0366832D01*
Y0367498*
X0270234Y0367832*
X0270567*
X0270900Y0367498*
Y0367165*
Y0367498*
X0271234Y0367832*
X0271567*
X0271900Y0367498*
Y0366832*
X0271567Y0366499*
M02*